{"glyphs":{"0":{"ha":783,"x_min":38,"x_max":738,"o":"m 407 -3 q 270 31 336 -3 q 153 126 204 64 q 72 274 100 190 q 39 456 43 357 q 46 577 38 518 q 74 689 54 636 q 119 784 92 740 q 179 864 146 828 q 287 941 228 914 q 408 968 346 968 q 535 936 476 968 q 639 842 594 904 q 733 507 725 719 q 728 352 738 419 q 700 233 718 285 q 659 147 682 182 q 614 88 636 111 q 519 20 572 43 q 407 -3 465 -3 m 408 789 q 358 775 385 789 q 308 738 332 761 q 240 619 264 690 q 219 461 217 547 q 241 338 222 394 q 292 242 260 282 q 347 193 317 210 q 407 176 378 176 q 483 213 450 176 q 508 245 494 224 q 532 301 521 267 q 550 383 543 335 q 554 499 557 432 q 530 654 549 599 q 492 738 511 710 q 408 789 453 789 z "},"1":{"ha":779,"x_min":39,"x_max":756,"o":"m 665 176 q 729 149 703 176 q 754 86 756 122 q 728 22 754 49 q 665 -4 701 -4 l 664 -4 l 128 4 q 65 32 90 6 q 39 96 39 58 q 67 160 40 133 q 131 185 93 186 l 300 182 q 307 298 303 231 q 314 439 311 365 q 318 579 317 515 q 319 693 319 643 q 319 737 319 718 q 317 771 318 756 q 302 765 310 768 q 286 758 294 763 q 259 747 271 751 q 238 738 247 742 q 217 728 226 732 q 148 723 183 711 q 96 768 113 735 q 91 837 79 801 q 136 889 103 872 q 164 902 138 890 q 226 929 190 914 q 292 953 264 944 q 340 965 319 961 q 374 968 360 968 q 399 967 388 968 q 436 953 411 965 q 478 903 461 942 q 490 857 486 883 q 499 756 497 819 q 500 636 501 704 q 496 481 499 568 q 489 317 493 396 q 482 179 485 238 l 665 176 z "},"2":{"ha":765,"x_min":39,"x_max":738,"o":"m 646 -1 l 644 -1 q 468 1 561 0 q 282 4 375 1 q 222 5 251 4 q 163 6 192 6 q 83 54 110 8 q 74 101 72 76 q 89 146 75 125 q 105 170 89 146 q 146 235 121 194 q 201 329 171 276 q 263 440 232 382 q 337 595 311 532 q 374 699 363 658 q 386 760 385 739 q 386 788 388 781 q 349 769 375 785 q 285 717 324 753 q 228 657 251 685 q 204 629 215 642 q 144 596 181 600 q 78 615 107 592 q 44 676 49 639 q 63 742 39 713 q 93 777 64 743 q 165 851 122 811 q 408 969 301 978 q 485 944 450 967 q 543 881 519 921 q 567 753 572 828 q 540 628 563 696 q 495 508 524 574 q 428 367 467 442 q 375 270 401 317 q 325 183 349 224 q 490 181 408 182 q 647 178 572 181 q 711 151 685 178 q 736 86 738 124 q 708 24 735 50 q 646 -1 682 -1 z "},"3":{"ha":750,"x_min":36,"x_max":710,"o":"m 335 -3 q 267 1 301 -3 q 101 43 186 10 q 51 90 67 56 q 49 158 36 124 q 96 210 63 194 q 165 211 129 225 q 281 181 225 189 q 386 182 338 174 q 499 236 461 193 q 515 260 506 243 q 515 297 525 278 q 450 344 503 325 q 372 361 422 354 q 238 361 321 368 q 175 379 203 358 q 142 436 147 400 q 154 500 135 471 q 208 539 174 529 q 305 576 263 553 q 377 626 347 599 q 424 683 407 654 q 446 740 442 713 q 447 765 449 751 q 438 783 444 778 q 417 788 432 786 q 379 786 403 790 q 314 765 356 781 q 211 710 272 749 q 142 697 179 689 q 86 736 106 704 q 73 805 65 768 q 113 861 81 842 q 346 964 240 943 q 463 964 417 976 q 538 933 510 951 q 613 840 590 899 q 624 710 635 781 q 587 606 614 657 q 518 511 560 556 q 626 447 589 485 q 678 378 663 410 q 698 244 710 314 q 633 115 686 174 q 538 43 594 71 q 415 4 482 15 q 376 -1 396 1 q 335 -3 356 -3 z "},"4":{"ha":713,"x_min":15,"x_max":679,"o":"m 492 -3 q 429 26 456 -1 q 404 90 403 53 q 406 165 406 114 q 407 283 407 215 q 384 282 396 282 q 361 281 372 282 q 264 278 308 278 q 185 283 219 279 q 106 301 135 288 q 49 339 65 317 q 25 379 32 361 q 19 439 15 407 q 39 514 24 471 q 66 574 50 542 q 101 640 82 606 q 194 779 144 714 q 290 889 244 844 q 333 925 313 910 q 372 950 353 940 q 444 969 413 971 q 496 961 476 968 q 529 940 517 953 q 549 912 542 926 q 559 883 556 897 q 565 860 563 868 q 570 819 568 842 q 575 768 572 797 q 581 660 579 722 q 586 518 583 597 l 586 482 q 644 460 618 482 q 674 404 669 438 q 656 338 679 368 q 597 303 633 308 q 588 301 593 303 q 587 169 588 226 q 585 85 586 113 q 557 23 583 49 q 494 -3 531 -3 l 492 -3 m 213 461 q 278 458 236 458 q 389 463 321 458 q 406 464 394 464 l 406 474 q 402 636 404 571 q 397 742 400 701 q 304 624 351 692 q 247 531 269 574 q 213 461 225 489 z "},"5":{"ha":758,"x_min":50,"x_max":701,"o":"m 356 -1 q 108 61 239 -1 q 63 112 75 76 q 65 181 50 147 q 116 228 81 215 q 185 224 151 240 q 385 181 300 171 q 485 229 449 189 q 517 299 513 260 q 503 371 522 339 q 404 426 475 415 q 236 411 333 438 q 213 407 225 407 q 101 458 144 407 q 54 636 50 515 q 60 718 56 678 q 69 793 65 758 q 74 824 72 808 q 76 846 76 840 q 111 924 76 892 q 190 961 139 950 q 338 971 242 972 q 453 967 396 971 q 549 961 511 964 q 568 960 558 960 q 581 960 578 960 q 644 932 618 958 q 671 869 671 906 q 644 806 671 832 q 581 779 617 779 q 565 779 574 779 q 536 782 556 779 q 456 787 504 785 q 357 790 407 789 q 292 791 318 792 q 251 788 267 790 q 250 777 250 782 q 249 767 250 772 q 240 707 244 739 q 235 644 236 675 q 235 596 233 613 q 475 596 369 622 q 656 465 596 564 q 691 377 681 424 q 697 284 701 331 q 672 192 692 238 q 619 110 653 147 q 406 1 536 18 q 382 -1 394 0 q 356 -1 369 -1 z "},"6":{"ha":772,"x_min":42,"x_max":722,"o":"m 713 360 q 720 276 722 314 q 710 207 718 238 q 688 152 701 176 q 661 111 675 128 q 549 27 617 57 q 400 -3 482 -3 q 190 57 282 -3 q 107 135 142 88 q 58 247 71 186 q 54 273 56 260 q 53 299 53 286 q 44 457 42 376 q 64 613 47 538 q 126 776 86 704 q 222 894 165 847 q 394 967 299 957 q 604 936 494 979 q 656 890 640 924 q 657 821 671 856 q 610 769 643 785 q 542 768 576 754 q 336 754 411 815 q 280 680 304 726 q 240 575 256 633 q 406 614 321 614 q 507 598 458 614 q 596 553 556 582 q 713 360 685 485 m 521 224 q 536 322 549 260 q 406 433 511 433 q 324 415 364 433 q 258 367 283 397 q 233 308 238 339 q 233 293 236 301 q 235 281 235 289 q 257 235 240 254 q 297 203 274 215 q 347 184 319 190 q 400 178 374 178 q 472 190 440 178 q 521 224 503 203 z "},"7":{"ha":679,"x_min":25,"x_max":647,"o":"m 301 -1 q 257 10 275 -1 q 214 64 225 28 q 222 132 203 100 q 329 340 283 243 q 406 519 375 436 q 440 622 428 578 q 456 696 451 665 q 459 745 460 726 q 457 775 458 764 q 435 783 454 778 q 369 789 417 789 q 265 785 325 790 q 129 772 206 781 q 64 791 93 768 q 31 851 35 814 q 49 918 25 889 q 110 951 72 947 q 278 967 197 961 q 422 967 358 974 q 549 931 497 961 q 633 814 617 890 q 633 662 647 750 q 575 456 619 574 q 493 264 542 367 q 379 44 444 161 q 347 10 368 22 q 301 -1 325 -1 z "},"8":{"ha":731,"x_min":40,"x_max":688,"o":"m 617 469 q 670 377 653 429 q 682 264 688 325 q 576 61 671 133 q 382 -1 494 -1 q 238 26 308 -1 q 170 62 201 42 q 115 108 139 82 q 61 192 79 146 q 44 297 40 242 q 140 481 51 406 q 131 489 136 485 q 122 497 126 493 q 49 703 42 582 q 80 819 51 765 q 157 908 108 872 q 358 971 243 971 q 495 945 432 971 q 601 872 558 919 q 669 664 681 788 q 636 547 665 599 q 594 490 618 514 q 606 480 601 485 q 617 469 611 475 m 229 694 q 254 621 226 649 q 303 590 274 601 q 367 579 333 579 q 396 582 376 579 q 435 594 415 585 q 472 624 456 604 q 490 679 488 644 q 469 750 494 722 q 422 780 451 769 q 358 790 393 790 q 334 788 354 790 q 291 777 314 786 q 249 749 268 768 q 229 694 231 729 m 503 278 q 483 347 506 324 q 441 372 468 363 q 382 382 414 382 q 320 374 350 382 q 267 350 290 365 q 225 286 226 322 q 246 232 222 257 q 306 194 269 208 q 382 179 342 179 q 422 183 401 179 q 459 199 442 188 q 488 228 476 210 q 503 278 500 247 z "},"9":{"ha":772,"x_min":50,"x_max":731,"o":"m 60 613 q 52 697 50 658 q 63 765 54 735 q 84 820 71 796 q 111 861 97 844 q 223 945 156 915 q 372 975 290 975 q 582 915 490 975 q 665 838 631 885 q 714 725 701 786 q 718 699 717 713 q 719 674 719 686 q 728 515 731 596 q 708 360 725 435 q 647 197 686 268 q 550 78 607 125 q 378 6 474 15 q 168 36 278 -7 q 117 83 132 49 q 115 151 101 117 q 163 203 129 188 q 231 204 196 218 q 436 218 361 157 q 492 292 468 246 q 532 397 517 339 q 367 358 451 358 q 265 374 314 358 q 176 419 217 390 q 60 613 88 488 m 251 749 q 236 650 224 713 q 367 539 261 539 q 449 557 408 539 q 514 606 489 575 q 539 664 535 632 q 539 679 536 671 q 538 692 538 683 q 515 738 532 718 q 476 769 499 757 q 426 788 453 782 q 372 794 399 794 q 301 782 332 794 q 251 749 269 769 z "}," ":{"ha":300,"x_min":0,"x_max":0,"o":""}," ":{"ha":300,"x_min":0,"x_max":0,"o":""},"D":{"ha":850,"x_min":72,"x_max":808,"o":"m 161 -1 q 97 29 124 1 q 75 94 72 58 q 83 496 85 275 q 81 673 83 581 q 75 876 79 765 q 100 942 72 917 q 164 969 125 969 l 168 969 q 417 929 300 969 q 613 819 529 889 q 744 661 693 753 q 801 475 793 569 q 783 310 808 389 q 699 169 757 232 q 630 110 671 140 q 531 55 589 79 q 394 15 472 31 q 215 -1 315 -1 l 161 -1 m 258 783 q 263 634 261 704 q 264 497 264 564 q 260 179 265 326 q 442 213 364 185 q 565 292 519 242 q 615 381 606 336 q 622 460 625 426 q 584 578 617 521 q 497 681 551 636 q 403 741 461 711 q 258 783 344 771 z "},"E":{"ha":839,"x_min":68,"x_max":774,"o":"m 476 789 q 332 788 379 793 q 268 776 285 782 q 259 672 264 738 q 251 529 254 606 q 442 529 347 526 q 628 543 536 532 q 693 524 664 547 q 726 463 722 500 q 707 396 731 425 q 647 364 683 367 q 344 347 499 347 q 297 347 321 347 q 250 349 274 347 q 258 240 253 278 q 265 186 263 201 q 333 181 285 183 q 474 182 381 178 q 544 185 511 183 q 604 190 578 188 q 647 193 631 192 q 663 194 663 194 q 728 175 699 199 q 761 114 757 151 q 742 49 765 78 q 681 15 718 19 q 661 14 679 15 q 614 10 643 13 q 547 6 585 8 q 469 1 510 3 q 422 -1 444 0 q 376 -1 399 -1 q 339 -1 357 -1 q 304 0 321 0 q 158 33 201 6 q 96 122 117 60 q 86 163 90 140 q 78 213 82 185 q 71 313 74 257 q 69 438 68 368 q 72 558 69 497 q 78 670 75 618 q 85 763 82 722 q 93 826 89 804 q 115 882 97 857 q 161 925 133 907 q 200 944 179 936 q 249 957 221 951 q 332 968 285 964 q 438 971 379 972 q 529 968 485 971 q 609 962 574 965 q 666 956 644 958 q 690 953 688 953 q 751 918 728 947 q 768 851 774 889 q 734 792 764 815 q 667 774 704 769 q 651 776 667 774 q 608 781 635 778 q 548 785 582 783 q 476 789 514 788 z "},"F":{"ha":790,"x_min":74,"x_max":775,"o":"m 692 953 q 752 919 729 949 q 771 853 775 890 q 739 793 768 817 q 672 774 710 769 q 655 775 672 774 q 610 779 638 776 q 545 784 582 782 q 468 789 508 786 q 328 790 378 793 q 256 785 279 788 q 256 679 254 744 q 258 546 257 614 q 400 542 333 542 q 543 546 467 543 q 590 548 567 547 q 640 550 614 549 q 704 524 678 550 q 732 461 731 499 q 708 397 733 424 q 644 369 682 371 q 596 367 619 368 q 549 367 572 367 q 372 363 457 363 q 319 363 346 363 q 263 364 292 363 q 265 279 264 319 q 267 204 265 239 l 267 121 q 262 72 265 96 q 239 26 258 47 q 174 0 210 0 q 110 26 136 0 q 83 89 83 53 q 84 101 83 96 q 86 113 85 106 q 86 164 86 128 q 85 247 86 200 q 83 345 83 293 q 81 443 82 397 q 75 713 76 611 q 78 846 74 814 q 95 894 81 865 q 156 943 110 924 q 239 964 189 957 q 323 971 275 969 q 431 971 371 972 q 525 967 479 969 q 608 960 571 964 q 667 955 644 957 q 692 953 689 953 z "},"G":{"ha":903,"x_min":58,"x_max":879,"o":"m 875 403 q 856 336 879 365 q 794 303 832 307 q 756 299 775 300 q 719 297 738 297 q 683 188 713 240 q 604 93 653 136 q 492 23 553 47 q 371 -1 432 -1 l 364 -1 q 237 33 294 0 q 139 126 179 65 q 63 472 58 250 q 90 696 64 597 q 164 853 118 793 q 216 906 188 883 q 278 944 244 929 q 338 964 306 957 q 401 969 369 971 q 488 958 444 969 q 568 925 531 947 q 628 881 603 907 q 660 832 653 856 q 668 792 668 808 q 642 728 668 754 q 579 701 615 701 q 528 718 550 701 q 494 760 506 735 q 472 772 486 765 q 439 784 457 779 q 400 790 421 789 q 358 783 379 790 q 289 711 315 767 q 243 469 246 628 q 256 308 240 365 q 290 225 272 251 q 368 178 321 179 q 485 228 428 178 q 536 300 524 263 q 508 301 522 301 q 481 303 494 301 q 417 330 443 303 q 392 394 390 357 q 419 456 393 431 q 482 482 446 482 l 483 482 q 526 481 506 482 q 565 479 546 481 q 662 476 614 476 q 775 482 710 475 q 842 463 813 486 q 875 403 871 439 z "},"H":{"ha":828,"x_min":72,"x_max":758,"o":"m 675 963 q 735 928 713 957 q 753 861 758 899 q 733 557 731 703 q 742 261 735 411 q 746 176 744 219 q 749 90 747 133 q 724 26 750 53 q 661 -3 699 -1 l 658 -3 q 596 23 622 -3 q 568 85 569 49 q 565 169 567 126 q 561 253 564 213 q 560 292 560 272 q 558 331 560 311 q 436 322 497 322 q 426 322 431 322 q 414 324 421 322 q 346 326 381 324 q 271 335 311 329 q 267 208 269 271 q 260 83 264 146 q 231 23 257 47 q 169 -1 206 -1 l 164 -1 q 101 30 126 1 q 79 94 76 58 q 92 481 93 288 q 75 872 90 675 q 97 938 72 910 q 158 968 121 965 q 224 947 196 971 q 256 886 253 922 q 266 701 263 793 q 271 517 269 610 q 414 503 346 506 q 553 513 482 501 q 556 695 551 603 q 574 886 560 788 q 609 945 579 922 q 675 963 639 968 z "},"I":{"ha":801,"x_min":63,"x_max":735,"o":"m 638 189 q 700 163 674 189 q 726 100 726 136 q 701 35 728 63 q 639 8 675 8 q 569 6 603 7 q 503 3 536 6 q 424 -1 463 0 q 347 -3 386 -3 q 244 1 296 -3 q 139 18 192 6 q 83 57 103 25 q 69 125 63 89 q 110 181 78 161 q 178 194 142 201 q 232 185 206 188 q 286 179 258 182 q 290 410 290 300 q 286 636 289 521 q 285 706 286 671 q 285 776 285 740 q 274 777 279 776 q 264 778 269 778 q 213 780 238 779 q 163 782 188 781 q 99 809 125 782 q 75 874 74 836 q 102 937 75 911 q 167 963 129 963 q 219 960 193 961 q 272 958 244 960 q 442 953 356 954 q 625 968 529 953 q 692 953 663 975 q 729 893 722 931 q 713 826 735 857 q 654 790 692 796 q 557 778 604 782 q 465 774 510 775 q 466 706 465 739 q 467 639 467 672 q 470 417 469 529 q 467 182 471 304 q 481 182 474 182 q 494 183 488 182 q 563 186 528 185 q 635 189 599 188 l 638 189 z "},"J":{"ha":794,"x_min":56,"x_max":761,"o":"m 756 896 q 739 830 761 860 q 679 793 717 800 q 612 785 644 789 q 547 778 579 781 q 563 731 556 754 q 578 683 571 707 q 610 472 606 574 q 594 278 614 367 q 532 126 574 189 q 407 19 481 49 q 321 1 367 1 q 244 15 281 1 q 153 85 192 38 q 94 201 114 132 q 89 532 56 333 q 126 591 96 569 q 193 606 157 613 q 252 569 231 599 q 267 501 274 539 q 254 344 250 404 q 268 251 258 283 q 290 203 278 219 q 313 183 301 188 q 346 190 326 176 q 383 228 365 203 q 417 317 404 260 q 430 447 431 374 q 411 603 429 519 q 354 772 393 686 q 251 776 303 774 q 144 783 200 778 q 83 815 107 786 q 63 881 60 843 q 94 941 65 917 q 158 963 122 965 q 283 954 222 957 q 403 952 343 951 q 524 958 463 953 q 653 972 586 963 q 720 956 690 978 q 756 896 750 933 z "},"K":{"ha":800,"x_min":72,"x_max":740,"o":"m 701 167 q 735 107 731 143 q 718 40 740 71 q 685 15 704 24 q 646 6 665 6 q 590 24 614 6 q 427 156 508 88 q 267 297 346 225 q 264 190 265 243 q 258 85 263 138 q 230 24 256 49 q 168 0 204 0 q 165 1 167 0 q 163 1 164 1 q 101 32 125 4 q 79 97 76 60 q 87 439 90 264 q 78 788 83 614 l 74 879 q 98 944 72 917 q 161 972 124 971 q 226 948 199 974 q 254 886 253 922 q 256 840 256 863 q 257 794 257 818 l 261 674 q 405 788 335 728 q 544 924 475 849 q 608 953 571 951 q 672 929 644 954 q 701 866 700 903 q 676 801 703 829 q 501 633 589 706 q 321 493 413 560 q 506 325 410 408 q 701 167 603 242 z "},"L":{"ha":746,"x_min":71,"x_max":735,"o":"m 399 -1 q 306 1 343 -1 q 244 6 268 3 q 208 11 221 8 q 189 15 194 14 q 156 29 175 18 q 121 64 138 40 q 96 115 106 85 q 84 165 89 138 q 76 226 79 192 q 71 349 71 279 q 74 504 71 418 q 80 644 75 576 q 89 766 85 713 q 97 853 93 819 q 100 890 100 888 q 132 950 103 926 q 199 971 161 974 q 260 938 236 967 q 279 872 283 908 q 276 844 279 871 q 270 772 274 817 q 263 667 267 726 q 256 546 258 608 q 251 410 253 471 q 253 300 250 349 q 258 226 256 254 q 264 185 261 199 q 341 180 294 181 q 439 180 388 179 q 542 183 490 181 q 636 188 593 185 q 701 165 674 190 q 732 103 729 140 q 710 38 735 65 q 649 7 685 10 q 632 6 647 7 q 592 4 617 6 q 535 1 567 3 q 467 0 503 0 q 431 -1 447 -1 q 399 -1 414 -1 z "},"M":{"ha":976,"x_min":74,"x_max":903,"o":"m 165 -6 q 103 20 129 -6 q 76 83 76 46 q 76 115 76 83 q 74 197 75 146 q 74 315 74 249 q 75 451 74 381 q 81 603 78 535 q 90 724 85 671 q 102 808 96 774 q 116 865 108 842 q 133 903 124 889 q 153 929 142 918 q 228 964 183 961 q 265 958 243 964 q 308 929 286 951 q 326 910 318 921 q 342 886 333 900 q 389 783 364 850 q 476 504 428 681 q 486 470 482 488 q 494 436 490 453 q 505 470 500 453 q 517 504 510 488 q 565 660 543 592 q 607 781 588 729 q 629 837 619 813 q 649 879 639 861 q 669 918 658 900 q 738 965 697 957 q 821 944 785 974 q 845 917 835 933 q 863 876 856 900 q 876 818 871 851 q 886 739 882 785 q 894 618 892 686 q 900 465 897 550 q 902 327 901 394 q 903 207 903 260 q 902 122 903 154 q 901 89 901 89 q 875 26 901 51 q 811 0 849 0 l 810 0 q 747 27 772 0 q 721 92 721 54 q 722 120 721 92 q 722 196 722 149 q 722 303 722 243 q 721 429 722 364 q 717 543 719 490 q 698 483 708 515 q 676 414 688 450 q 638 284 656 347 q 605 172 619 221 q 582 94 590 124 q 574 63 574 64 q 542 15 565 33 q 486 -3 518 -3 l 485 -3 q 429 18 453 -1 q 399 68 406 38 q 392 97 399 68 q 374 174 386 126 q 347 283 363 222 q 315 411 332 344 q 286 515 300 469 q 261 599 272 561 q 258 519 258 563 q 256 422 257 475 q 254 297 254 357 q 254 191 254 238 q 255 116 254 144 q 256 88 256 88 q 231 23 257 50 q 168 -6 206 -4 l 165 -6 z "},"N":{"ha":793,"x_min":72,"x_max":719,"o":"m 176 -3 q 115 22 140 -3 q 86 82 89 46 q 84 117 86 83 q 80 207 82 151 q 76 333 78 263 q 74 476 74 403 q 74 633 72 564 q 81 754 76 703 q 99 861 88 824 q 119 911 107 890 q 163 951 139 942 q 201 961 186 960 q 247 954 226 963 q 282 933 267 946 q 307 908 297 921 q 321 888 317 894 q 346 843 332 868 q 375 785 360 818 q 431 651 401 725 q 489 503 460 578 q 514 440 501 471 q 538 379 526 408 q 539 453 539 413 q 540 543 539 494 q 539 667 540 607 q 537 773 538 726 q 535 847 536 819 q 533 876 533 875 q 558 940 532 913 q 621 969 583 968 q 685 945 658 971 q 714 882 713 919 q 715 850 714 882 q 717 766 717 818 q 719 648 718 714 q 719 511 719 582 q 711 240 719 344 q 691 106 704 151 q 651 36 678 60 q 571 10 617 6 q 510 38 533 14 q 472 86 488 63 q 425 181 451 119 q 375 299 401 233 q 321 438 349 365 q 288 524 304 481 q 254 607 271 567 q 254 426 253 535 q 257 301 256 361 q 260 196 258 242 q 265 122 263 150 q 267 93 267 93 q 244 28 269 56 q 181 -3 218 0 l 176 -3 z "},"O":{"ha":972,"x_min":51,"x_max":915,"o":"m 503 0 q 343 31 418 0 q 201 124 263 64 q 100 272 139 185 q 56 469 60 364 q 85 678 51 582 q 183 838 117 767 q 326 937 246 901 q 494 972 407 972 q 651 941 578 972 q 781 851 724 910 q 875 698 842 788 q 913 500 908 608 q 904 365 915 425 q 874 258 893 304 q 832 176 856 211 q 786 118 808 142 q 658 30 731 60 q 503 0 585 0 m 494 792 q 397 771 444 792 q 314 713 350 750 q 253 610 272 669 q 236 478 233 550 q 263 349 239 404 q 325 256 288 293 q 409 199 363 218 q 503 181 456 181 q 657 243 594 181 q 732 493 739 329 q 707 632 729 575 q 651 724 685 689 q 577 776 618 760 q 494 792 536 792 z "},"P":{"ha":800,"x_min":71,"x_max":781,"o":"m 168 -3 q 105 27 131 0 q 82 92 79 54 q 87 483 89 281 q 74 872 85 686 q 96 936 71 908 q 157 967 121 964 q 385 960 279 976 q 575 904 490 944 q 711 806 658 864 q 757 737 740 774 q 779 661 774 700 q 778 610 781 640 q 762 544 776 579 q 717 469 747 508 q 633 393 686 431 q 267 254 500 299 q 265 169 265 211 q 261 85 264 126 q 234 23 260 49 q 172 -3 208 -3 l 168 -3 m 258 789 q 267 439 267 618 q 434 489 371 461 q 529 540 497 517 q 584 592 565 565 q 600 640 603 618 q 570 693 597 667 q 499 740 543 719 q 258 789 401 786 z "},"Q":{"ha":949,"x_min":51,"x_max":889,"o":"m 792 165 q 801 155 797 160 q 811 144 806 150 q 837 81 838 118 q 810 17 836 43 q 746 -8 782 -8 q 682 19 707 -8 q 654 49 665 33 q 639 41 647 44 q 624 35 631 38 q 469 4 553 4 q 390 12 429 4 q 315 35 351 19 q 179 125 238 65 q 85 275 119 188 q 53 474 51 368 q 64 580 54 529 q 92 678 74 631 q 188 832 125 765 q 325 931 246 894 q 483 964 401 964 q 634 933 563 964 q 760 842 706 901 q 885 499 876 714 q 860 298 889 379 q 792 165 831 217 m 469 185 q 499 186 485 185 q 525 192 513 188 q 471 256 499 222 q 414 326 443 290 q 394 392 390 356 q 426 453 397 429 q 493 473 456 476 q 554 440 531 469 q 612 369 583 403 q 667 304 640 336 q 697 389 686 342 q 704 492 707 436 q 680 628 701 572 q 627 718 658 683 q 558 768 596 753 q 483 783 519 783 q 394 763 438 783 q 315 704 350 743 q 257 606 279 665 q 233 471 235 547 q 308 251 231 331 q 469 185 375 185 z "},"R":{"ha":804,"x_min":72,"x_max":750,"o":"m 654 -3 q 606 11 628 -3 q 480 97 532 58 q 388 167 428 135 q 319 228 349 200 q 261 286 289 257 q 258 187 258 238 q 254 83 257 136 q 226 22 253 47 q 161 -3 199 -4 q 98 26 124 -1 q 74 90 72 54 q 80 306 78 203 q 82 504 82 408 q 80 691 82 600 q 74 872 78 782 q 97 937 72 910 q 158 967 122 964 q 367 960 271 974 q 539 914 464 947 q 664 831 615 881 q 725 701 717 774 q 724 656 726 682 q 710 599 722 629 q 672 535 697 568 q 600 471 646 503 q 417 386 526 419 q 465 339 439 363 q 524 288 490 315 q 601 231 557 261 q 703 163 644 200 q 742 107 735 143 q 729 39 750 71 q 697 8 717 18 q 654 -3 676 -3 m 258 788 q 263 533 263 663 q 413 576 358 553 q 496 618 468 599 q 533 652 519 635 q 546 682 547 669 q 526 713 544 694 q 468 749 507 732 q 258 788 382 785 z "},"S":{"ha":725,"x_min":54,"x_max":671,"o":"m 346 -1 q 276 4 310 -1 q 210 21 242 10 q 121 69 157 38 q 63 169 74 111 q 76 237 56 206 q 135 275 97 268 q 201 262 171 282 q 239 207 231 242 q 259 194 243 203 q 307 182 275 186 q 372 181 339 178 q 432 194 406 183 q 477 230 469 210 q 482 269 485 250 q 470 306 479 290 q 443 333 461 321 q 397 358 425 346 q 331 383 369 369 q 245 416 288 399 q 165 463 203 433 q 60 664 68 535 q 90 813 54 743 q 185 913 125 874 q 363 971 260 963 q 457 965 411 974 q 542 936 503 956 q 633 856 600 906 q 668 743 665 806 q 645 678 671 706 q 582 649 619 651 q 517 673 544 647 q 489 736 490 699 q 484 753 488 743 q 460 775 481 764 q 419 788 442 785 q 372 790 396 792 q 324 781 347 788 q 283 761 301 774 q 244 717 251 740 q 239 676 238 693 q 248 637 240 653 q 273 607 256 621 q 319 581 290 593 q 390 553 347 568 q 472 522 431 539 q 550 479 514 506 q 661 292 646 410 q 650 175 669 231 q 590 85 631 122 q 414 4 525 21 q 380 0 397 1 q 346 -1 363 -1 z "},"T":{"ha":761,"x_min":32,"x_max":733,"o":"m 728 894 q 710 828 733 858 q 650 794 686 799 q 549 785 597 788 q 451 781 500 782 q 458 477 461 622 q 450 185 456 332 l 446 89 q 418 27 444 53 q 356 1 392 1 l 353 1 q 290 31 315 4 q 265 96 264 58 l 269 192 q 278 483 275 339 q 271 781 281 626 q 167 785 217 782 q 144 785 156 785 q 121 786 132 785 q 58 815 83 788 q 33 879 32 842 q 63 942 36 917 q 128 967 90 968 q 151 965 139 965 q 174 964 163 965 q 397 959 286 960 q 628 974 507 958 q 694 955 664 978 q 728 894 724 932 z "},"U":{"ha":836,"x_min":51,"x_max":772,"o":"m 413 -1 l 408 -1 q 190 99 278 1 q 114 235 144 151 q 90 316 100 272 q 75 408 81 360 q 85 876 51 601 q 118 936 89 913 q 185 956 147 960 q 244 921 221 950 q 264 856 268 892 q 246 620 249 726 q 254 431 243 514 q 286 288 265 336 q 326 218 307 239 q 411 179 357 181 q 496 219 460 179 q 540 292 515 243 q 579 438 564 342 q 592 634 593 526 q 576 871 592 742 q 595 937 572 907 q 656 971 618 967 q 722 952 693 975 q 756 892 751 929 q 772 631 772 751 q 757 410 772 510 q 629 99 725 203 q 413 -1 540 -1 z "},"V":{"ha":774,"x_min":49,"x_max":731,"o":"m 376 0 q 340 6 360 0 q 296 29 319 13 q 270 53 282 40 q 246 85 258 67 q 208 156 226 115 q 171 250 189 197 q 103 517 133 363 q 53 857 72 671 q 72 924 49 894 q 132 957 96 953 q 199 938 169 961 q 232 876 228 914 q 272 593 249 724 q 325 363 296 463 q 353 278 340 313 q 376 222 365 244 q 399 278 386 244 q 428 361 413 311 q 489 595 460 461 q 546 897 518 729 q 558 931 549 915 q 583 956 568 946 q 615 969 597 965 q 650 971 632 974 q 709 934 688 964 q 725 868 731 904 q 656 515 692 669 q 582 253 619 361 q 510 92 547 149 q 464 36 488 58 q 386 1 426 3 q 376 0 383 0 z "},"W":{"ha":1075,"x_min":60,"x_max":1015,"o":"m 758 -1 q 706 11 736 -1 q 650 65 676 24 q 625 119 638 88 q 599 197 613 150 q 572 299 586 240 q 538 439 557 358 q 510 334 524 382 q 483 244 497 286 q 453 161 468 197 q 425 97 439 125 q 389 44 411 71 q 331 7 367 17 q 246 22 285 -4 q 182 124 206 50 q 164 188 172 151 q 146 272 156 224 q 106 516 126 371 q 64 856 86 661 q 83 921 60 892 q 144 954 107 950 q 211 935 182 958 q 244 875 240 913 q 281 571 264 703 q 315 344 299 439 l 319 324 q 323 335 322 331 q 326 347 324 340 q 388 583 357 447 q 450 889 418 719 q 481 942 456 921 q 538 963 506 963 q 594 942 569 963 q 626 890 619 922 q 697 556 667 690 q 749 333 726 421 q 753 318 751 322 q 756 333 754 325 q 758 349 757 340 q 794 579 776 444 q 832 890 813 714 q 865 951 836 928 q 932 971 894 975 q 992 938 969 967 q 1013 871 1015 908 q 967 508 989 660 q 924 253 946 356 q 881 100 903 153 q 869 77 876 92 q 850 47 863 63 q 819 17 838 31 q 776 0 801 4 q 769 -1 774 0 q 758 -1 764 -1 z "},"X":{"ha":815,"x_min":61,"x_max":750,"o":"m 686 965 q 735 917 721 951 q 735 849 750 883 q 628 624 685 725 q 510 431 571 522 q 606 294 557 361 q 708 156 656 226 l 717 144 q 733 78 739 114 q 699 18 728 42 q 644 0 671 0 q 604 9 624 0 q 572 36 585 18 l 564 49 q 481 160 522 104 q 399 274 439 215 q 381 249 390 261 q 364 225 372 236 q 297 134 331 181 q 232 40 264 88 q 157 0 204 0 q 107 17 129 0 q 68 74 75 38 q 82 142 61 110 q 151 238 117 190 q 218 332 185 286 q 256 383 238 357 q 292 433 274 408 q 183 629 233 529 q 94 838 132 729 q 98 907 82 874 q 150 953 114 940 q 219 948 186 964 q 265 896 253 932 q 328 743 293 817 q 404 599 363 669 q 490 747 449 669 q 568 917 532 825 q 617 966 583 951 q 686 965 650 981 z "},"Y":{"ha":739,"x_min":35,"x_max":707,"o":"m 643 964 q 692 915 678 949 q 693 846 707 881 q 650 737 669 788 q 615 640 631 686 q 587 553 600 594 q 561 471 574 511 q 531 376 546 424 q 499 278 517 329 q 458 172 481 228 q 407 51 436 115 q 374 12 396 26 q 325 -3 351 -3 q 289 6 306 -3 q 241 56 254 21 q 243 125 228 90 q 286 226 267 179 q 321 317 306 274 q 253 425 290 364 q 177 555 215 486 q 105 696 139 624 q 47 835 71 768 q 51 904 35 871 q 103 950 67 938 q 172 945 139 961 q 218 893 206 929 q 296 715 247 808 q 394 540 344 622 q 449 709 419 621 q 525 914 478 797 q 574 963 540 949 q 643 964 608 978 z "},"Z":{"ha":747,"x_min":54,"x_max":686,"o":"m 328 -6 q 269 -3 296 -6 q 218 4 242 -1 q 152 24 179 11 q 108 52 125 36 q 81 85 90 68 q 68 119 72 103 q 89 247 54 171 q 116 300 100 271 q 154 364 132 329 q 243 493 194 426 q 340 626 292 560 q 398 705 371 667 q 449 775 425 743 q 452 781 451 778 q 456 786 453 783 q 332 782 413 788 q 269 776 299 779 q 217 771 240 774 q 168 765 190 768 q 101 783 131 760 q 67 842 72 806 q 83 908 61 879 q 143 943 106 938 q 161 946 144 943 q 205 951 178 949 q 267 958 232 954 q 339 964 301 961 q 462 967 411 968 q 547 961 513 967 q 601 945 581 956 q 638 922 622 935 q 676 839 676 890 q 668 794 676 818 q 638 735 660 771 q 579 648 617 700 q 485 519 542 596 q 399 401 442 460 q 321 289 357 342 q 279 222 294 249 q 257 181 264 196 q 315 176 276 178 q 415 179 353 174 q 526 192 479 185 q 575 200 574 200 q 642 185 611 206 q 679 128 672 164 q 665 60 686 92 q 607 22 644 29 q 587 19 606 22 q 538 11 568 15 q 468 3 507 7 q 388 -3 429 -1 q 358 -5 372 -4 q 328 -6 343 -6 z "},"C":{"ha":829,"x_min":53,"x_max":782,"o":"m 433 -3 q 381 1 407 -3 q 251 44 310 11 q 149 135 192 78 q 56 472 53 258 q 157 840 58 713 q 271 936 204 901 q 400 969 331 965 q 510 959 456 972 q 614 918 565 946 q 701 844 668 886 q 739 756 733 801 q 720 689 743 718 q 660 656 697 660 q 595 672 624 650 q 560 731 567 694 q 543 749 557 736 q 504 772 529 761 q 445 788 475 785 q 388 786 415 792 q 309 740 339 776 q 263 658 279 704 q 242 560 247 611 q 236 469 236 510 q 292 244 233 321 q 404 181 335 189 q 472 182 438 176 q 539 203 507 188 q 581 231 567 217 q 597 256 594 246 q 639 311 607 292 q 707 321 671 331 q 763 279 743 311 q 772 211 782 247 q 713 108 758 156 q 670 72 693 89 q 619 42 647 56 q 433 -3 531 -3 z "},"d":{"ha":833,"x_min":25,"x_max":783,"o":"m 781 99 q 759 33 783 61 q 697 1 735 4 l 690 1 q 630 25 656 1 q 601 85 604 49 q 599 100 600 92 q 599 115 599 108 l 590 107 q 485 35 543 60 q 365 10 428 10 q 244 35 301 10 q 142 106 186 60 q 54 253 83 167 q 32 347 39 297 q 26 450 25 396 q 128 763 33 644 q 236 850 175 818 q 367 881 301 881 q 499 849 435 881 q 572 797 542 826 q 574 878 574 839 q 575 956 574 918 q 603 1018 576 992 q 667 1043 631 1044 q 731 1015 704 1042 q 756 950 757 988 q 753 758 753 860 q 757 547 754 656 q 766 324 760 438 q 781 99 772 211 m 463 233 q 529 442 529 303 q 508 572 528 524 q 468 646 489 621 q 367 700 425 700 q 313 687 339 700 q 268 649 288 674 q 229 577 249 625 q 207 446 210 529 q 221 320 204 375 q 271 232 238 265 q 365 190 313 190 q 463 233 419 190 z "},"b":{"ha":833,"x_min":50,"x_max":808,"o":"m 53 99 q 67 324 61 211 q 76 547 74 438 q 80 758 79 656 q 78 950 81 860 q 103 1015 76 988 q 167 1043 129 1042 q 230 1018 203 1044 q 258 956 257 992 q 260 878 260 918 q 261 797 260 839 q 335 849 292 826 q 467 881 399 881 q 597 850 532 881 q 706 763 657 818 q 807 450 800 644 q 801 347 808 396 q 779 253 794 297 q 692 106 750 167 q 590 35 647 60 q 468 10 532 10 q 348 35 406 10 q 243 107 290 60 l 235 115 q 234 100 235 108 q 232 85 233 92 q 203 25 229 49 q 143 1 178 1 l 136 1 q 74 33 99 4 q 53 99 50 61 m 371 233 q 468 190 414 190 q 563 232 521 190 q 613 320 596 265 q 626 446 629 375 q 604 577 624 529 q 565 649 585 625 q 520 687 546 674 q 467 700 494 700 q 365 646 408 700 q 325 572 344 621 q 304 442 306 524 q 371 233 304 303 z "},"c":{"ha":801,"x_min":38,"x_max":767,"o":"m 392 -3 q 288 14 338 -3 q 182 71 229 32 q 103 167 135 110 q 43 465 38 286 q 139 810 50 676 q 238 912 181 872 q 363 964 296 951 q 466 966 414 975 q 564 932 518 957 q 704 775 660 879 q 705 706 719 740 q 656 657 690 672 q 587 656 621 642 q 538 704 553 669 q 479 773 518 750 q 396 788 440 796 q 289 710 333 775 q 242 602 258 665 q 222 460 225 539 q 224 385 221 426 q 240 303 228 343 q 276 230 253 263 q 342 185 300 197 q 408 178 372 175 q 479 197 444 182 q 544 235 514 211 q 596 289 575 258 q 652 328 615 321 q 721 315 689 335 q 759 258 751 294 q 746 190 767 221 q 658 95 710 138 q 544 28 607 53 q 468 5 507 13 q 392 -3 429 -3 z "},"e":{"ha":799,"x_min":33,"x_max":754,"o":"m 421 -1 q 294 19 354 -1 q 104 186 169 64 q 46 508 33 314 q 81 697 53 611 q 160 844 110 782 q 272 939 207 904 q 410 971 340 972 q 543 933 481 968 q 650 832 607 894 q 719 681 696 768 q 746 489 743 593 q 717 421 746 450 q 647 397 686 394 q 498 401 572 404 q 344 392 424 397 q 288 388 317 389 q 229 385 258 386 q 263 272 238 318 q 354 190 293 213 q 490 190 418 169 q 547 215 522 199 q 586 250 572 231 q 644 287 607 281 q 711 271 681 293 q 748 213 742 250 q 733 146 754 176 q 652 69 701 101 q 542 17 603 36 q 481 3 511 8 q 421 -1 451 -1 m 403 790 q 301 732 347 790 q 263 669 282 708 q 233 565 244 629 q 282 568 257 567 q 332 572 307 569 q 443 578 388 575 q 557 582 499 582 q 533 672 549 636 q 503 729 518 707 q 404 790 460 790 l 403 790 z "},"f":{"ha":796,"x_min":53,"x_max":778,"o":"m 678 529 q 616 560 642 532 q 593 625 590 588 q 560 785 599 724 q 449 858 522 847 q 389 857 419 863 q 331 835 358 851 q 281 792 303 819 q 250 726 260 765 q 234 602 236 672 q 235 453 232 532 q 466 454 360 450 q 671 469 572 458 q 738 451 708 474 q 771 390 767 428 q 753 324 776 353 q 693 290 729 294 q 526 276 611 281 q 344 271 440 271 q 294 271 319 271 q 242 272 268 271 q 244 180 243 226 q 242 86 244 133 q 213 25 239 50 q 151 0 188 0 l 147 0 q 85 28 110 1 q 61 93 60 56 q 62 227 64 160 q 57 361 60 294 q 53 578 53 474 q 76 772 53 683 q 136 900 96 846 q 181 949 157 926 q 233 988 206 971 q 351 1034 289 1021 q 476 1036 414 1047 q 599 992 543 1025 q 694 907 654 960 q 758 776 739 850 q 774 615 778 703 q 745 554 771 579 q 683 529 719 529 l 678 529 z "},"g":{"ha":874,"x_min":44,"x_max":818,"o":"m 810 739 q 814 587 811 672 q 817 408 817 501 q 816 217 818 314 q 807 32 814 121 q 699 -225 794 -121 q 599 -301 654 -271 q 481 -343 544 -332 q 444 -347 461 -346 q 407 -349 426 -349 q 322 -340 364 -349 q 242 -314 281 -332 q 60 -133 119 -257 q 56 -63 44 -99 q 103 -12 68 -28 q 172 -8 136 4 q 222 -56 207 -21 q 268 -118 240 -94 q 326 -154 296 -142 q 388 -169 357 -167 q 447 -165 419 -171 q 490 -153 461 -162 q 547 -120 518 -143 q 599 -57 576 -97 q 628 47 622 -17 q 632 114 631 79 q 635 185 633 149 q 632 182 635 182 q 513 97 579 126 q 379 67 447 67 q 272 86 324 67 q 178 150 218 110 q 90 303 119 210 q 63 517 61 397 q 151 846 67 728 q 252 938 193 907 q 381 969 311 969 q 510 940 447 969 q 625 856 572 910 l 625 860 q 626 869 625 865 q 626 876 626 872 q 644 921 629 901 q 682 950 658 940 q 751 951 717 965 q 800 903 785 938 q 806 850 810 878 q 806 806 806 838 q 810 739 807 774 m 501 307 q 560 401 540 347 q 576 518 579 456 q 555 631 574 579 q 501 722 536 683 q 442 772 474 754 q 381 789 411 789 q 299 742 332 789 q 263 663 279 717 q 243 514 246 610 q 258 370 242 431 q 306 278 274 310 q 379 246 338 246 q 442 263 410 246 q 501 307 474 279 z "},"h":{"ha":833,"x_min":53,"x_max":811,"o":"m 718 1 q 656 26 682 1 q 628 86 631 50 q 626 113 628 86 q 619 182 624 139 q 606 281 614 225 q 586 394 599 336 q 522 604 557 528 q 488 664 501 650 q 471 679 474 678 q 451 664 468 678 q 407 601 435 650 q 324 390 364 525 q 292 276 306 332 q 268 175 278 219 q 253 103 258 131 q 249 76 249 76 q 215 20 242 42 q 153 1 189 -1 q 94 29 118 4 q 69 90 71 54 l 54 951 q 79 1015 53 989 q 143 1043 106 1042 q 207 1018 181 1044 q 235 954 233 992 l 240 671 q 251 692 246 682 q 264 714 257 703 q 303 770 283 746 q 346 813 324 794 q 419 852 385 843 q 476 860 453 861 q 603 804 547 856 q 676 701 643 765 q 758 447 725 604 q 782 320 772 382 q 797 210 792 258 q 806 131 803 161 q 808 97 808 100 q 786 33 811 61 q 725 1 761 4 l 718 1 z "},"i":{"ha":351,"x_min":31,"x_max":317,"o":"m 265 610 q 277 443 279 526 q 271 283 275 360 q 267 182 268 231 q 271 101 265 133 q 254 34 276 64 q 194 -1 232 4 q 181 -3 190 -3 q 123 19 149 -3 q 92 74 97 40 q 86 176 85 121 q 92 293 88 232 q 96 437 94 363 q 86 581 97 511 q 103 647 81 617 q 161 685 125 678 q 228 668 197 690 q 265 610 258 646 m 288 929 q 317 857 317 896 q 288 783 317 817 q 247 756 269 765 q 174 742 215 742 q 135 745 154 742 q 100 756 115 749 q 78 768 88 761 q 60 783 68 775 q 31 857 31 814 q 60 929 31 897 q 78 944 68 938 q 100 957 88 951 q 135 967 115 964 q 174 971 154 971 q 247 957 215 971 q 288 929 269 946 z "},"j":{"ha":386,"x_min":-81,"x_max":357,"o":"m 296 603 q 300 562 299 583 q 304 517 301 540 q 318 306 313 417 q 307 82 324 194 q 235 -144 286 -44 q 68 -335 175 -258 q 15 -351 43 -351 q -25 -342 -6 -351 q -58 -314 -44 -333 q -74 -247 -81 -283 q -37 -187 -68 -210 q 80 -51 42 -132 q 131 122 118 29 q 138 313 143 215 q 124 501 132 411 q 119 547 121 525 q 117 590 118 568 q 138 655 114 626 q 200 686 163 683 q 265 665 238 689 q 296 603 293 640 m 321 935 q 357 856 357 903 q 321 775 357 808 q 301 762 313 768 q 279 750 290 756 q 203 738 246 738 q 128 750 161 738 q 86 775 103 760 q 50 856 50 808 q 86 935 50 903 q 128 960 103 949 q 203 972 161 972 q 279 960 246 972 q 301 948 290 954 q 321 935 313 942 z "},"k":{"ha":800,"x_min":54,"x_max":783,"o":"m 739 178 q 777 119 771 156 q 761 51 783 83 q 728 23 747 32 q 688 14 708 14 q 635 31 660 14 q 424 192 518 113 q 240 351 329 271 q 237 222 238 286 q 238 92 236 157 q 212 27 238 54 q 149 0 186 0 l 147 0 q 83 26 110 0 q 57 88 57 51 q 56 259 54 174 q 61 428 58 344 q 67 685 65 556 q 57 943 68 814 q 78 1009 54 981 q 139 1040 101 1038 q 205 1019 176 1043 q 236 958 233 996 q 247 785 244 871 q 247 614 249 700 q 435 670 343 642 q 619 738 526 699 q 688 739 654 753 q 738 690 722 725 q 738 622 753 656 q 689 572 724 588 q 535 514 611 539 q 383 465 458 489 q 550 322 465 393 q 739 178 635 251 z "},"l":{"ha":290,"x_min":49,"x_max":243,"o":"m 150 -1 q 90 22 115 -1 q 61 81 64 44 q 49 313 49 201 q 53 542 50 424 q 58 737 56 638 q 53 944 60 836 q 75 1010 50 982 q 138 1040 100 1038 q 203 1017 175 1043 q 233 956 231 992 q 238 739 240 842 q 233 536 236 636 q 230 317 231 424 q 240 97 229 210 q 219 32 243 61 q 160 -1 196 3 l 150 -1 z "},"m":{"ha":1163,"x_min":50,"x_max":1111,"o":"m 1017 -1 l 1011 -1 q 949 29 974 1 q 926 94 924 57 q 928 123 926 94 q 930 197 929 151 q 930 303 931 243 q 925 425 929 363 q 892 661 917 572 q 867 732 879 711 q 850 760 856 753 q 828 734 843 754 q 793 664 813 714 q 758 558 774 618 q 728 424 743 499 q 708 298 715 358 q 694 190 700 238 q 687 113 689 142 q 685 83 685 83 q 656 23 682 47 q 594 -1 631 -1 l 593 -1 q 531 26 557 0 q 504 88 506 51 q 503 116 504 88 q 500 192 503 144 q 492 299 497 239 q 481 424 488 358 q 448 644 465 567 q 417 757 431 721 q 399 713 408 740 q 378 646 389 686 q 354 550 367 606 q 329 422 342 494 q 310 296 318 357 q 296 188 301 235 q 288 111 290 140 q 285 82 285 82 q 256 22 282 46 q 194 -1 231 -1 q 133 24 158 0 q 106 83 108 47 l 53 875 q 75 940 50 913 q 138 971 100 968 q 203 949 175 974 q 233 886 231 924 l 239 800 q 290 896 265 861 q 408 971 340 965 q 456 967 428 974 q 515 935 485 961 q 572 854 547 906 q 615 721 596 803 q 617 716 617 718 q 618 711 617 714 q 631 744 625 729 q 644 774 638 760 q 721 886 676 844 q 794 933 758 922 q 857 942 831 943 q 985 879 929 939 q 1078 661 1047 811 q 1107 404 1099 556 q 1110 284 1110 342 q 1110 183 1111 226 q 1107 113 1108 139 q 1106 83 1106 86 q 1078 23 1103 47 q 1017 -1 1053 -1 z "},"n":{"ha":824,"x_min":47,"x_max":776,"o":"m 192 0 l 190 0 q 129 25 154 1 q 101 85 104 49 l 50 861 q 72 926 47 899 q 135 957 97 954 q 200 935 172 960 q 231 872 228 910 l 239 749 q 265 806 251 779 q 347 919 303 879 q 424 965 388 956 q 489 972 461 974 q 550 956 515 969 q 621 904 585 943 q 690 786 663 858 q 756 494 735 676 q 769 350 765 421 q 775 224 774 279 q 776 134 776 169 q 776 96 776 99 q 749 33 775 60 q 686 7 724 7 q 685 8 685 7 q 622 35 647 8 q 596 100 596 63 q 596 133 596 100 q 594 218 596 165 q 589 338 593 271 q 576 475 585 406 q 522 721 557 635 q 493 776 506 761 q 476 792 481 790 q 461 779 474 790 q 429 731 449 768 q 386 627 410 694 q 338 446 363 560 q 312 313 322 378 q 294 196 301 247 q 284 113 288 144 q 281 82 281 82 q 252 24 278 47 q 192 0 226 0 z "},"o":{"ha":957,"x_min":39,"x_max":913,"o":"m 503 -1 q 339 29 418 -1 q 263 69 299 46 q 194 122 226 92 q 88 271 128 185 q 42 468 46 360 q 47 573 39 522 q 71 672 54 624 q 169 829 106 763 q 317 933 233 897 q 493 969 401 969 q 649 939 576 969 q 779 850 722 908 q 872 700 840 785 q 899 605 889 656 q 910 497 908 554 q 902 362 913 422 q 873 254 892 301 q 831 173 854 207 q 785 115 807 139 q 658 28 731 58 q 503 -1 586 -1 m 493 790 q 390 768 440 790 q 300 706 339 746 q 244 619 271 674 q 221 476 218 564 q 251 349 225 404 q 317 255 278 293 q 406 197 357 217 q 503 178 454 178 q 656 240 596 178 q 715 344 696 281 q 731 492 733 408 q 706 631 728 574 q 650 723 683 688 q 576 774 617 758 q 493 790 535 790 z "},"p":{"ha":850,"x_min":53,"x_max":835,"o":"m 697 856 q 799 692 764 786 q 832 486 835 597 q 796 292 829 383 q 708 139 764 206 q 578 36 650 72 q 429 0 506 0 q 318 22 374 0 q 249 64 279 39 q 244 -119 246 -33 q 236 -268 242 -204 q 208 -328 233 -304 q 146 -351 182 -351 l 139 -351 q 77 -320 101 -349 q 56 -254 53 -292 q 63 -108 60 -193 q 68 76 67 -22 q 69 283 69 175 q 67 495 68 390 q 65 697 67 600 q 61 875 63 794 q 85 940 60 913 q 149 968 111 967 q 211 946 185 969 q 240 888 238 922 q 444 967 331 967 q 581 938 514 967 q 697 856 644 908 m 651 489 q 631 625 653 564 q 568 729 610 686 q 444 786 511 786 q 339 728 381 786 q 297 641 317 700 q 275 479 276 582 q 292 320 274 388 q 347 217 311 253 q 429 181 383 181 q 503 201 465 181 q 571 257 540 221 q 629 360 608 301 q 651 489 650 419 z "},"q":{"ha":850,"x_min":15,"x_max":797,"o":"m 153 856 q 269 938 206 908 q 406 967 336 967 q 610 888 519 967 q 639 946 613 922 q 701 968 665 969 q 765 940 739 967 q 789 875 790 913 q 785 697 786 794 q 783 495 783 600 q 781 283 782 390 q 782 76 781 175 q 786 -108 783 -22 q 794 -254 789 -193 q 773 -320 797 -292 q 711 -351 749 -349 l 704 -351 q 642 -328 668 -351 q 614 -268 617 -304 q 606 -119 608 -204 q 601 64 604 -33 q 532 22 571 39 q 421 0 476 0 q 272 36 344 0 q 142 139 200 72 q 54 292 86 206 q 18 486 21 383 q 51 692 15 597 q 153 856 86 786 m 199 489 q 221 360 200 419 q 279 257 242 301 q 347 201 310 221 q 421 181 385 181 q 503 217 467 181 q 558 320 539 253 q 575 479 576 388 q 553 641 574 582 q 511 728 533 700 q 406 786 469 786 q 282 729 339 786 q 219 625 240 686 q 199 489 197 564 z "},"r":{"ha":829,"x_min":50,"x_max":821,"o":"m 165 -4 l 161 -4 q 99 25 124 -1 q 75 89 74 51 q 72 437 78 263 q 57 785 65 611 q 55 829 56 807 q 53 874 54 851 q 76 938 50 911 q 139 968 101 965 q 203 945 176 971 q 233 882 231 919 q 235 850 235 867 q 236 818 235 833 q 314 911 268 874 q 549 957 415 993 q 717 843 644 929 q 774 759 753 801 q 808 685 796 717 q 806 615 821 649 q 756 568 790 582 q 686 569 719 554 q 639 621 653 585 q 615 672 629 646 q 584 719 601 697 q 545 759 567 742 q 500 783 524 776 q 455 785 471 790 q 428 772 439 781 q 365 672 394 743 q 318 528 338 603 q 286 378 299 454 q 266 226 274 301 q 254 81 258 151 q 226 20 251 44 q 165 -4 201 -4 z "},"s":{"ha":815,"x_min":39,"x_max":776,"o":"m 404 0 q 263 19 332 0 q 133 81 186 40 q 54 176 79 121 q 52 246 39 211 q 100 296 65 281 q 169 298 135 311 q 219 250 204 285 q 253 217 228 232 q 316 192 279 201 q 396 181 353 182 q 482 189 439 179 q 506 195 490 190 q 538 208 522 200 q 565 228 554 217 q 576 257 576 240 q 573 271 576 261 q 546 296 569 281 q 485 328 521 313 q 408 358 449 343 q 299 404 353 381 q 197 464 244 428 q 78 704 74 557 q 171 900 85 828 q 353 971 244 960 q 477 967 414 978 q 599 933 540 957 q 711 861 668 904 q 767 765 754 818 q 756 697 776 729 q 700 656 736 665 q 633 667 664 647 q 592 722 601 686 q 572 743 589 729 q 518 771 554 757 q 437 791 479 786 q 358 789 394 796 q 302 772 322 783 q 272 747 282 760 q 260 719 263 733 q 258 697 258 706 q 268 649 257 669 q 306 608 279 628 q 383 565 338 585 q 474 526 428 546 q 565 490 519 508 q 647 444 610 471 q 757 261 754 372 q 681 89 760 158 q 522 14 618 35 q 465 3 494 7 q 404 0 435 0 z "},"u":{"ha":824,"x_min":47,"x_max":776,"o":"m 632 974 l 633 974 q 694 949 669 972 q 722 889 719 925 l 774 113 q 751 47 776 75 q 689 17 726 19 q 624 39 651 14 q 593 101 596 64 l 585 225 q 558 168 572 194 q 476 54 521 94 q 399 9 436 18 q 335 1 363 0 q 274 17 308 4 q 203 69 239 31 q 133 188 161 115 q 68 479 89 297 q 54 624 58 553 q 49 749 50 694 q 47 840 47 804 q 47 878 47 875 q 74 940 49 914 q 138 967 100 967 q 139 965 139 967 q 202 938 176 965 q 228 874 228 911 q 228 841 228 874 q 229 756 228 808 q 235 635 231 703 q 247 499 239 568 q 301 253 267 339 q 331 198 318 213 q 347 182 343 183 q 362 194 349 183 q 394 242 375 206 q 438 347 414 279 q 486 528 461 414 q 512 661 501 596 q 529 777 522 726 q 540 860 536 828 q 543 892 543 892 q 572 950 546 926 q 632 974 597 974 z "},"t":{"ha":813,"x_min":19,"x_max":796,"o":"m 706 421 q 769 392 743 419 q 794 328 796 365 q 773 212 793 267 q 717 113 753 157 q 543 6 646 29 q 476 -3 510 -3 q 382 15 424 -3 q 253 132 296 49 q 213 258 228 181 q 196 443 199 335 l 114 440 q 111 439 114 439 q 49 465 75 439 q 21 526 22 490 q 45 591 19 564 q 107 619 71 618 l 197 624 q 206 769 200 704 q 214 865 211 833 q 215 874 214 869 q 215 881 215 878 q 234 935 215 911 q 283 967 253 960 q 326 967 304 972 q 364 947 347 963 q 384 922 371 940 q 394 872 397 904 l 394 865 q 394 858 394 863 q 393 849 393 854 q 385 763 390 821 q 378 631 381 704 l 535 636 q 599 613 572 639 q 628 550 626 588 q 605 485 631 513 q 542 457 579 458 l 376 450 q 383 351 378 392 q 392 282 388 310 q 403 238 397 254 q 413 215 408 222 q 456 180 429 183 q 501 181 483 176 q 578 228 543 190 q 614 332 613 265 q 642 394 615 368 q 704 421 668 421 l 706 421 m 218 857 q 217 858 218 858 q 217 860 217 858 q 222 843 219 849 q 218 857 224 838 m 215 867 l 215 871 l 215 867 z "},"ı":{"ha":286,"x_min":43,"x_max":242,"o":"m 228 610 q 240 443 242 526 q 233 283 238 360 q 229 182 231 231 q 233 101 228 133 q 217 34 239 64 q 157 -1 194 4 q 143 -3 153 -3 q 85 19 111 -3 q 54 74 60 40 q 49 176 47 121 q 54 293 50 232 q 58 437 57 363 q 49 581 60 511 q 65 647 43 617 q 124 685 88 678 q 190 668 160 690 q 228 610 221 646 z "},"¨":{"ha":372,"x_min":49,"x_max":324,"o":"m 149 839 q 161 810 161 826 q 149 782 161 792 q 133 771 142 775 q 104 765 122 765 q 76 771 86 765 q 60 782 67 775 q 49 810 49 792 q 60 839 49 828 q 76 850 67 846 q 90 853 82 853 q 104 854 97 854 q 119 853 113 854 q 133 850 126 853 q 149 839 142 846 m 311 842 q 324 813 324 829 q 311 785 324 794 q 296 774 304 778 q 267 768 285 768 q 239 774 249 768 q 222 785 229 778 q 211 813 211 794 q 222 842 211 831 q 239 853 229 849 q 252 856 244 856 q 267 857 260 857 q 282 856 275 857 q 296 853 289 856 q 311 842 304 849 z "},"˙":{"ha":194,"x_min":42,"x_max":154,"o":"m 142 839 q 154 810 154 826 q 142 782 154 792 q 126 771 135 775 q 97 765 115 765 q 69 771 79 765 q 53 782 60 775 q 42 810 42 792 q 53 839 42 828 q 69 850 60 846 q 83 853 75 853 q 97 854 90 854 q 113 853 106 854 q 126 850 119 853 q 142 839 135 846 z "},"Ä":{"ha":903,"x_min":53,"x_max":839,"o":"m 828 397 q 836 281 833 336 q 839 183 839 225 q 838 115 839 140 q 838 88 838 89 q 809 26 835 51 q 747 1 783 1 l 743 1 q 681 31 706 4 q 657 96 656 58 q 658 114 657 96 q 658 162 658 132 q 657 233 658 192 q 653 319 656 274 q 563 315 607 317 q 474 313 518 313 q 362 315 417 313 q 253 319 307 317 q 242 228 246 271 q 238 155 239 186 q 235 105 236 124 q 235 86 235 86 q 207 24 233 50 q 144 -3 181 -3 l 143 -3 q 79 26 106 -1 q 54 89 53 53 q 56 128 54 92 q 61 223 57 165 q 75 353 65 281 q 101 503 85 426 q 210 803 142 693 q 275 887 240 854 q 344 938 310 919 q 410 963 378 956 q 469 969 442 969 q 664 885 582 969 q 782 656 739 806 q 828 397 813 544 m 285 499 q 458 493 372 494 q 633 499 544 492 q 533 760 600 689 q 469 789 506 789 q 402 758 432 789 q 349 683 372 728 q 310 589 326 639 q 285 499 294 539 m 421 1117 q 433 1088 433 1104 q 421 1060 433 1069 q 406 1049 414 1053 q 376 1043 394 1043 q 349 1049 358 1043 q 332 1060 339 1053 q 321 1088 321 1069 q 332 1117 321 1106 q 349 1128 339 1124 q 362 1131 354 1131 q 376 1132 369 1132 q 392 1131 385 1132 q 406 1128 399 1131 q 421 1117 414 1124 m 583 1119 q 596 1090 596 1107 q 583 1063 596 1072 q 568 1051 576 1056 q 539 1046 557 1046 q 511 1051 521 1046 q 494 1063 501 1056 q 483 1090 483 1072 q 494 1119 483 1108 q 511 1131 501 1126 q 524 1134 517 1133 q 539 1135 532 1135 q 554 1134 547 1135 q 568 1131 561 1133 q 583 1119 576 1126 z "},"Ë":{"ha":839,"x_min":68,"x_max":774,"o":"m 476 789 q 332 788 379 793 q 268 776 285 782 q 259 672 264 738 q 251 529 254 606 q 442 529 347 526 q 628 543 536 532 q 693 524 664 547 q 726 463 722 500 q 707 396 731 425 q 647 364 683 367 q 344 347 499 347 q 297 347 321 347 q 250 349 274 347 q 258 240 253 278 q 265 186 263 201 q 333 181 285 183 q 474 182 381 178 q 544 185 511 183 q 604 190 578 188 q 647 193 631 192 q 663 194 663 194 q 728 175 699 199 q 761 114 757 151 q 742 49 765 78 q 681 15 718 19 q 661 14 679 15 q 614 10 643 13 q 547 6 585 8 q 469 1 510 3 q 422 -1 444 0 q 376 -1 399 -1 q 339 -1 357 -1 q 304 0 321 0 q 158 33 201 6 q 96 122 117 60 q 86 163 90 140 q 78 213 82 185 q 71 313 74 257 q 69 438 68 368 q 72 558 69 497 q 78 670 75 618 q 85 763 82 722 q 93 826 89 804 q 115 882 97 857 q 161 925 133 907 q 200 944 179 936 q 249 957 221 951 q 332 968 285 964 q 438 971 379 972 q 529 968 485 971 q 609 962 574 965 q 666 956 644 958 q 690 953 688 953 q 751 918 728 947 q 768 851 774 889 q 734 792 764 815 q 667 774 704 769 q 651 776 667 774 q 608 781 635 778 q 548 785 582 783 q 476 789 514 788 m 383 1117 q 396 1088 396 1104 q 383 1060 396 1069 q 368 1049 376 1053 q 339 1043 357 1043 q 311 1049 321 1043 q 294 1060 301 1053 q 283 1088 283 1069 q 294 1117 283 1106 q 311 1128 301 1124 q 324 1131 317 1131 q 339 1132 332 1132 q 354 1131 347 1132 q 368 1128 361 1131 q 383 1117 376 1124 m 546 1119 q 558 1090 558 1107 q 546 1063 558 1072 q 531 1051 539 1056 q 501 1046 519 1046 q 474 1051 483 1046 q 457 1063 464 1056 q 446 1090 446 1072 q 457 1119 446 1108 q 474 1131 464 1126 q 487 1134 479 1133 q 501 1135 494 1135 q 517 1134 510 1135 q 531 1131 524 1133 q 546 1119 539 1126 z "},"Ï":{"ha":801,"x_min":63,"x_max":735,"o":"m 638 189 q 700 163 674 189 q 726 100 726 136 q 701 35 728 63 q 639 8 675 8 q 569 6 603 7 q 503 3 536 6 q 424 -1 463 0 q 347 -3 386 -3 q 244 1 296 -3 q 139 18 192 6 q 83 57 103 25 q 69 125 63 89 q 110 181 78 161 q 178 194 142 201 q 232 185 206 188 q 286 179 258 182 q 290 410 290 300 q 286 636 289 521 q 285 706 286 671 q 285 776 285 740 q 274 777 279 776 q 264 778 269 778 q 213 780 238 779 q 163 782 188 781 q 99 809 125 782 q 75 874 74 836 q 102 937 75 911 q 167 963 129 963 q 219 960 193 961 q 272 958 244 960 q 442 953 356 954 q 625 968 529 953 q 692 953 663 975 q 729 893 722 931 q 713 826 735 857 q 654 790 692 796 q 557 778 604 782 q 465 774 510 775 q 466 706 465 739 q 467 639 467 672 q 470 417 469 529 q 467 182 471 304 q 481 182 474 182 q 494 183 488 182 q 563 186 528 185 q 635 189 599 188 l 638 189 m 506 1119 q 518 1090 518 1107 q 506 1063 518 1072 q 490 1051 499 1056 q 461 1046 479 1046 q 433 1051 443 1046 q 417 1063 424 1056 q 406 1090 406 1072 q 417 1119 406 1108 q 433 1131 424 1126 q 447 1134 439 1133 q 461 1135 454 1135 q 476 1134 469 1135 q 490 1131 483 1133 q 506 1119 499 1126 m 343 1117 q 356 1088 356 1104 q 343 1060 356 1069 q 328 1049 336 1053 q 299 1043 317 1043 q 271 1049 281 1043 q 254 1060 261 1053 q 243 1088 243 1069 q 254 1117 243 1106 q 271 1128 261 1124 q 284 1131 276 1131 q 299 1132 292 1132 q 314 1131 307 1132 q 328 1128 321 1131 q 343 1117 336 1124 z "},"Ö":{"ha":972,"x_min":51,"x_max":915,"o":"m 503 0 q 343 31 418 0 q 201 124 263 64 q 100 272 139 185 q 56 469 60 364 q 85 678 51 582 q 183 838 117 767 q 326 937 246 901 q 494 972 407 972 q 651 941 578 972 q 781 851 724 910 q 875 698 842 788 q 913 500 908 608 q 904 365 915 425 q 874 258 893 304 q 832 176 856 211 q 786 118 808 142 q 658 30 731 60 q 503 0 585 0 m 494 792 q 397 771 444 792 q 314 713 350 750 q 253 610 272 669 q 236 478 233 550 q 263 349 239 404 q 325 256 288 293 q 409 199 363 218 q 503 181 456 181 q 657 243 594 181 q 732 493 739 329 q 707 632 729 575 q 651 724 685 689 q 577 776 618 760 q 494 792 536 792 m 444 1117 q 457 1088 457 1104 q 444 1060 457 1069 q 429 1049 438 1053 q 400 1043 418 1043 q 372 1049 382 1043 q 356 1060 363 1053 q 344 1088 344 1069 q 356 1117 344 1106 q 372 1128 363 1124 q 385 1131 378 1131 q 400 1132 393 1132 q 415 1131 408 1132 q 429 1128 422 1131 q 444 1117 438 1124 m 607 1119 q 619 1090 619 1107 q 607 1063 619 1072 q 592 1051 600 1056 q 563 1046 581 1046 q 535 1051 544 1046 q 518 1063 525 1056 q 507 1090 507 1072 q 518 1119 507 1108 q 535 1131 525 1126 q 548 1134 540 1133 q 563 1135 556 1135 q 578 1134 571 1135 q 592 1131 585 1133 q 607 1119 600 1126 z "},"Ü":{"ha":836,"x_min":51,"x_max":772,"o":"m 408 -1 q 190 99 278 1 q 114 235 144 151 q 90 316 100 272 q 75 408 81 360 q 85 876 51 601 q 118 936 89 913 q 185 956 147 960 q 244 921 221 950 q 264 856 268 892 q 246 620 249 726 q 254 431 243 514 q 286 288 265 336 q 326 218 307 239 q 411 179 357 181 q 496 219 460 179 q 540 292 515 243 q 579 438 564 342 q 592 634 593 526 q 576 871 592 742 q 595 937 572 907 q 656 971 618 967 q 722 952 693 975 q 756 892 751 929 q 772 631 772 751 q 757 410 772 510 q 629 99 725 203 q 413 -1 540 -1 l 408 -1 m 542 1119 q 554 1090 554 1107 q 542 1063 554 1072 q 526 1051 535 1056 q 497 1046 515 1046 q 469 1051 479 1046 q 453 1063 460 1056 q 442 1090 442 1072 q 453 1119 442 1108 q 469 1131 460 1126 q 483 1134 475 1133 q 497 1135 490 1135 q 513 1134 506 1135 q 526 1131 519 1133 q 542 1119 535 1126 m 379 1117 q 392 1088 392 1104 q 379 1060 392 1069 q 364 1049 372 1053 q 335 1043 353 1043 q 307 1049 317 1043 q 290 1060 297 1053 q 279 1088 279 1069 q 290 1117 279 1106 q 307 1128 297 1124 q 320 1131 313 1131 q 335 1132 328 1132 q 350 1131 343 1132 q 364 1128 357 1131 q 379 1117 372 1124 z "},"Ÿ":{"ha":739,"x_min":35,"x_max":707,"o":"m 643 964 q 692 915 678 949 q 693 846 707 881 q 650 737 669 788 q 615 640 631 686 q 587 553 600 594 q 561 471 574 511 q 531 376 546 424 q 499 278 517 329 q 458 172 481 228 q 407 51 436 115 q 374 12 396 26 q 325 -3 351 -3 q 289 6 306 -3 q 241 56 254 21 q 243 125 228 90 q 286 226 267 179 q 321 317 306 274 q 253 425 290 364 q 177 555 215 486 q 105 696 139 624 q 47 835 71 768 q 51 904 35 871 q 103 950 67 938 q 172 945 139 961 q 218 893 206 929 q 296 715 247 808 q 394 540 344 622 q 449 709 419 621 q 525 914 478 797 q 574 963 540 949 q 643 964 608 978 m 338 1117 q 350 1088 350 1104 q 338 1060 350 1069 q 322 1049 331 1053 q 293 1043 311 1043 q 265 1049 275 1043 q 249 1060 256 1053 q 238 1088 238 1069 q 249 1117 238 1106 q 265 1128 256 1124 q 278 1131 271 1131 q 293 1132 286 1132 q 308 1131 301 1132 q 322 1128 315 1131 q 338 1117 331 1124 m 500 1119 q 513 1090 513 1107 q 500 1063 513 1072 q 485 1051 493 1056 q 456 1046 474 1046 q 428 1051 438 1046 q 411 1063 418 1056 q 400 1090 400 1072 q 411 1119 400 1108 q 428 1131 418 1126 q 441 1134 433 1133 q 456 1135 449 1135 q 471 1134 464 1135 q 485 1131 478 1133 q 500 1119 493 1126 z "},"ä":{"ha":894,"x_min":39,"x_max":843,"o":"m 840 96 q 819 30 843 58 q 757 -1 794 1 l 750 -1 q 688 22 714 -1 q 660 82 663 46 q 658 97 660 92 q 653 90 657 94 q 605 50 631 67 q 551 21 579 33 q 435 -1 492 -1 q 365 6 399 -1 q 296 29 331 14 q 233 66 263 44 q 176 115 203 88 q 73 283 107 186 q 42 492 39 379 q 53 592 44 543 q 78 685 61 640 q 164 835 110 771 q 289 935 218 900 q 435 971 360 971 q 635 893 549 971 q 666 949 640 926 q 726 969 692 971 q 789 941 763 968 q 814 876 815 914 q 817 460 807 657 q 840 96 826 264 m 525 218 q 581 323 561 256 q 600 481 600 390 q 588 608 600 551 q 553 706 575 665 q 502 769 532 747 q 435 790 472 790 q 361 769 399 790 q 294 709 324 749 q 244 613 264 669 q 222 486 224 557 q 241 348 219 411 q 306 240 263 285 q 367 195 333 211 q 435 179 401 179 q 525 218 488 179 m 403 1117 q 415 1088 415 1104 q 403 1060 415 1069 q 388 1049 396 1053 q 358 1043 376 1043 q 331 1049 340 1043 q 314 1060 321 1053 q 303 1088 303 1069 q 314 1117 303 1106 q 331 1128 321 1124 q 344 1131 336 1131 q 358 1132 351 1132 q 374 1131 367 1132 q 388 1128 381 1131 q 403 1117 396 1124 m 565 1119 q 578 1090 578 1107 q 565 1063 578 1072 q 550 1051 558 1056 q 521 1046 539 1046 q 493 1051 503 1046 q 476 1063 483 1056 q 465 1090 465 1072 q 476 1119 465 1108 q 493 1131 483 1126 q 506 1134 499 1133 q 521 1135 514 1135 q 536 1134 529 1135 q 550 1131 543 1133 q 565 1119 558 1126 z "},"ë":{"ha":799,"x_min":33,"x_max":754,"o":"m 421 -1 q 294 19 354 -1 q 104 186 169 64 q 46 508 33 314 q 81 697 53 611 q 160 844 110 782 q 272 939 207 904 q 410 971 340 972 q 543 933 481 968 q 650 832 607 894 q 719 681 696 768 q 746 489 743 593 q 717 421 746 450 q 647 397 686 394 q 498 401 572 404 q 344 392 424 397 q 288 388 317 389 q 229 385 258 386 q 263 272 238 318 q 354 190 293 213 q 490 190 418 169 q 547 215 522 199 q 586 250 572 231 q 644 287 607 281 q 711 271 681 293 q 748 213 742 250 q 733 146 754 176 q 652 69 701 101 q 542 17 603 36 q 481 3 511 8 q 421 -1 451 -1 m 403 790 q 301 732 347 790 q 263 669 282 708 q 233 565 244 629 q 282 568 257 567 q 332 572 307 569 q 443 578 388 575 q 557 582 499 582 q 533 672 549 636 q 503 729 518 707 q 404 790 460 790 l 403 790 m 356 1117 q 368 1088 368 1104 q 356 1060 368 1069 q 340 1049 349 1053 q 311 1043 329 1043 q 283 1049 293 1043 q 267 1060 274 1053 q 256 1088 256 1069 q 267 1117 256 1106 q 283 1128 274 1124 q 297 1131 289 1131 q 311 1132 304 1132 q 326 1131 319 1132 q 340 1128 333 1131 q 356 1117 349 1124 m 518 1119 q 531 1090 531 1107 q 518 1063 531 1072 q 503 1051 511 1056 q 474 1046 492 1046 q 446 1051 456 1046 q 429 1063 436 1056 q 418 1090 418 1072 q 429 1119 418 1108 q 446 1131 436 1126 q 459 1134 451 1133 q 474 1135 467 1135 q 489 1134 482 1135 q 503 1131 496 1133 q 518 1119 511 1126 z "},"ï":{"ha":325,"x_min":24,"x_max":299,"o":"m 250 610 q 262 443 264 526 q 256 283 260 360 q 251 182 253 231 q 256 101 250 133 q 239 34 261 64 q 179 -1 217 4 q 165 -3 175 -3 q 108 19 133 -3 q 76 74 82 40 q 71 176 69 121 q 76 293 72 232 q 81 437 79 363 q 71 581 82 511 q 88 647 65 617 q 146 685 110 678 q 213 668 182 690 q 250 610 243 646 m 124 839 q 136 810 136 826 q 124 782 136 792 q 108 771 117 775 q 79 765 97 765 q 51 771 61 765 q 35 782 42 775 q 24 810 24 792 q 35 839 24 828 q 51 850 42 846 q 65 853 57 853 q 79 854 72 854 q 94 853 88 854 q 108 850 101 853 q 124 839 117 846 m 286 842 q 299 813 299 829 q 286 785 299 794 q 271 774 279 778 q 242 768 260 768 q 214 774 224 768 q 197 785 204 778 q 186 813 186 794 q 197 842 186 831 q 214 853 204 849 q 227 856 219 856 q 242 857 235 857 q 257 856 250 857 q 271 853 264 856 q 286 842 279 849 z "},"ö":{"ha":957,"x_min":39,"x_max":913,"o":"m 503 -1 q 339 29 418 -1 q 263 69 299 46 q 194 122 226 92 q 88 271 128 185 q 42 468 46 360 q 47 573 39 522 q 71 672 54 624 q 169 829 106 763 q 317 933 233 897 q 493 969 401 969 q 649 939 576 969 q 779 850 722 908 q 872 700 840 785 q 899 605 889 656 q 910 497 908 554 q 902 362 913 422 q 873 254 892 301 q 831 173 854 207 q 785 115 807 139 q 658 28 731 58 q 503 -1 586 -1 m 493 790 q 390 768 440 790 q 300 706 339 746 q 244 619 271 674 q 221 476 218 564 q 251 349 225 404 q 317 255 278 293 q 406 197 357 217 q 503 178 454 178 q 656 240 596 178 q 715 344 696 281 q 731 492 733 408 q 706 631 728 574 q 650 723 683 688 q 576 774 617 758 q 493 790 535 790 m 433 1117 q 446 1088 446 1104 q 433 1060 446 1069 q 418 1049 426 1053 q 389 1043 407 1043 q 361 1049 371 1043 q 344 1060 351 1053 q 333 1088 333 1069 q 344 1117 333 1106 q 361 1128 351 1124 q 374 1131 367 1131 q 389 1132 382 1132 q 404 1131 397 1132 q 418 1128 411 1131 q 433 1117 426 1124 m 596 1119 q 608 1090 608 1107 q 596 1063 608 1072 q 581 1051 589 1056 q 551 1046 569 1046 q 524 1051 533 1046 q 507 1063 514 1056 q 496 1090 496 1072 q 507 1119 496 1108 q 524 1131 514 1126 q 537 1134 529 1133 q 551 1135 544 1135 q 567 1134 560 1135 q 581 1131 574 1133 q 596 1119 589 1126 z "},"ü":{"ha":824,"x_min":47,"x_max":776,"o":"m 633 974 q 694 949 669 972 q 722 889 719 925 l 774 113 q 751 47 776 75 q 689 17 726 19 q 624 39 651 14 q 593 101 596 64 l 585 225 q 558 168 572 194 q 476 54 521 94 q 399 9 436 18 q 335 1 363 0 q 274 17 308 4 q 203 69 239 31 q 133 188 161 115 q 68 479 89 297 q 54 624 58 553 q 49 749 50 694 q 47 840 47 804 q 47 878 47 875 q 74 940 49 914 q 138 967 100 967 q 139 965 139 967 q 202 938 176 965 q 228 874 228 911 q 228 841 228 874 q 229 756 228 808 q 235 635 231 703 q 247 499 239 568 q 301 253 267 339 q 331 198 318 213 q 347 182 343 183 q 362 194 349 183 q 394 242 375 206 q 438 347 414 279 q 486 528 461 414 q 512 661 501 596 q 529 777 522 726 q 540 860 536 828 q 543 892 543 892 q 572 950 546 926 q 632 974 597 974 l 633 974 m 510 1119 q 522 1090 522 1107 q 510 1063 522 1072 q 494 1051 503 1056 q 465 1046 483 1046 q 438 1051 447 1046 q 421 1063 428 1056 q 410 1090 410 1072 q 421 1119 410 1108 q 438 1131 428 1126 q 451 1134 443 1133 q 465 1135 458 1135 q 481 1134 474 1135 q 494 1131 488 1133 q 510 1119 503 1126 m 347 1117 q 360 1088 360 1104 q 347 1060 360 1069 q 332 1049 340 1053 q 303 1043 321 1043 q 275 1049 285 1043 q 258 1060 265 1053 q 247 1088 247 1069 q 258 1117 247 1106 q 275 1128 265 1124 q 288 1131 281 1131 q 303 1132 296 1132 q 318 1131 311 1132 q 332 1128 325 1131 q 347 1117 340 1124 z "},"Œ":{"ha":1506,"x_min":43,"x_max":1454,"o":"m 494 0 q 335 31 410 0 q 193 124 254 64 q 92 272 131 185 q 47 469 51 364 q 76 678 43 582 q 175 838 108 767 q 318 937 238 901 q 486 972 399 972 q 642 941 569 972 q 772 851 715 910 q 778 846 774 847 q 842 925 793 896 q 881 944 860 936 q 929 957 901 951 q 1013 968 965 964 q 1118 971 1060 972 q 1210 968 1165 971 q 1290 962 1254 965 q 1347 956 1325 958 q 1371 953 1368 953 q 1431 918 1408 947 q 1449 851 1454 889 q 1415 792 1444 815 q 1347 774 1385 769 q 1331 776 1347 774 q 1289 781 1315 778 q 1228 785 1263 783 q 1157 789 1194 788 q 1013 788 1060 793 q 949 776 965 782 q 940 672 944 738 q 932 529 935 606 q 1122 529 1028 526 q 1308 543 1217 532 q 1374 524 1344 547 q 1407 463 1403 500 q 1388 396 1411 425 q 1328 364 1364 367 q 1025 347 1179 347 q 978 347 1001 347 q 931 349 954 347 q 938 240 933 278 q 946 186 943 201 q 1013 181 965 183 q 1154 182 1061 178 q 1225 185 1192 183 q 1285 190 1258 188 q 1327 193 1311 192 q 1343 194 1343 194 q 1408 175 1379 199 q 1442 114 1438 151 q 1422 49 1446 78 q 1361 15 1399 19 q 1342 14 1360 15 q 1294 10 1324 13 q 1228 6 1265 8 q 1150 1 1190 3 q 1102 -1 1125 0 q 1057 -1 1079 -1 q 1019 -1 1038 -1 q 985 0 1001 0 q 839 33 882 6 q 778 118 799 57 q 649 30 722 60 q 494 0 576 0 m 486 792 q 389 771 436 792 q 306 713 342 750 q 244 610 264 669 q 228 478 225 550 q 255 349 231 404 q 317 256 279 293 q 401 199 354 218 q 494 181 447 181 q 649 243 586 181 q 724 493 731 329 q 699 632 721 575 q 643 724 676 689 q 569 776 610 760 q 486 792 528 792 z "},"œ":{"ha":1507,"x_min":44,"x_max":1454,"o":"m 508 -1 q 344 29 424 -1 q 268 69 304 46 q 200 122 232 92 q 93 271 133 185 q 47 468 51 360 q 52 573 44 522 q 76 672 60 624 q 175 829 111 763 q 323 933 239 897 q 499 969 407 969 q 655 939 582 969 q 785 850 728 908 q 806 825 796 838 q 826 797 817 813 q 860 844 839 819 q 972 939 907 904 q 1110 971 1040 972 q 1243 933 1181 968 q 1350 832 1307 894 q 1419 681 1396 768 q 1446 489 1443 593 q 1417 421 1446 450 q 1347 397 1386 394 q 1198 401 1272 404 q 1044 392 1124 397 q 988 388 1017 389 q 929 385 958 386 q 963 272 938 318 q 1054 190 993 213 q 1190 190 1118 169 q 1247 215 1222 199 q 1286 250 1272 231 q 1344 287 1307 281 q 1411 271 1381 293 q 1448 213 1442 250 q 1433 146 1454 176 q 1352 69 1401 101 q 1242 17 1303 36 q 1181 3 1211 8 q 1121 -1 1151 -1 q 994 19 1054 -1 q 822 154 888 57 q 806 133 814 143 q 790 115 799 124 q 664 28 736 58 q 508 -1 592 -1 m 499 790 q 395 768 446 790 q 306 706 344 746 q 250 619 276 674 q 226 476 224 564 q 257 349 231 404 q 323 255 283 293 q 411 197 363 217 q 508 178 460 178 q 661 240 601 178 q 720 344 701 281 q 736 492 739 408 q 711 631 733 574 q 656 723 689 688 q 581 774 622 758 q 499 790 540 790 m 1103 790 q 1001 732 1047 790 q 963 669 982 708 q 933 565 944 629 q 982 568 957 567 q 1032 572 1007 569 q 1143 578 1088 575 q 1257 582 1199 582 q 1233 672 1249 636 q 1203 729 1218 707 q 1104 790 1160 790 l 1103 790 z "},"æ":{"ha":1457,"x_min":46,"x_max":1404,"o":"m 1071 -1 q 944 19 1004 -1 q 846 74 889 39 q 819 22 842 43 q 764 -1 796 1 l 757 -1 q 695 22 721 -1 q 667 82 669 46 q 665 97 667 92 q 660 90 664 94 q 612 50 638 67 q 558 21 586 33 q 442 -1 499 -1 q 372 6 406 -1 q 303 29 338 14 q 240 66 269 44 q 183 115 210 88 q 80 283 114 186 q 49 492 46 379 q 60 592 51 543 q 85 685 68 640 q 171 835 117 771 q 296 935 225 900 q 442 971 367 971 q 642 893 556 971 q 673 949 647 926 q 733 969 699 971 q 796 941 769 968 q 821 876 822 914 q 820 866 821 871 q 819 857 819 861 q 869 903 843 883 q 922 939 894 924 q 1060 971 990 972 q 1193 933 1131 968 q 1300 832 1257 894 q 1369 681 1346 768 q 1396 489 1393 593 q 1367 421 1396 450 q 1297 397 1336 394 q 1148 401 1222 404 q 994 392 1074 397 q 938 388 967 389 q 879 385 908 386 q 913 272 888 318 q 1004 190 943 213 q 1140 190 1068 169 q 1197 215 1172 199 q 1236 250 1222 231 q 1294 287 1257 281 q 1361 271 1331 293 q 1398 213 1392 250 q 1383 146 1404 176 q 1302 69 1351 101 q 1192 17 1253 36 q 1131 3 1161 8 q 1071 -1 1101 -1 m 532 218 q 588 323 568 256 q 607 481 607 390 q 594 608 607 551 q 560 706 582 665 q 509 769 539 747 q 442 790 479 790 q 368 769 406 790 q 301 709 331 749 q 251 613 271 669 q 229 486 231 557 q 248 348 226 411 q 313 240 269 285 q 374 195 340 211 q 442 179 408 179 q 532 218 494 179 m 1053 790 q 951 732 997 790 q 913 669 932 708 q 883 565 894 629 q 932 568 907 567 q 982 572 957 569 q 1093 578 1038 575 q 1207 582 1149 582 q 1183 672 1199 636 q 1153 729 1168 707 q 1054 790 1110 790 l 1053 790 z "},"|":{"ha":290,"x_min":49,"x_max":243,"o":"m 160 879 q 219 846 196 875 q 240 781 243 817 q 232 663 235 725 q 229 535 229 600 q 231 408 229 471 q 233 290 232 346 q 238 77 236 190 q 233 -150 240 -36 q 203 -212 231 -186 q 138 -235 175 -237 q 75 -204 100 -232 q 53 -139 50 -176 q 58 79 60 -31 q 53 285 56 189 q 50 408 51 343 q 49 539 49 472 q 52 672 50 606 q 61 797 54 738 q 90 856 64 833 q 150 879 115 879 l 160 879 z "},"_":{"ha":839,"x_min":40,"x_max":799,"o":"m 40 -246 q 63 -185 40 -211 q 122 -157 86 -160 q 244 -147 193 -150 q 335 -145 294 -144 q 410 -148 375 -146 q 486 -151 446 -150 q 577 -151 526 -151 q 700 -147 628 -151 q 765 -172 738 -146 q 796 -236 793 -199 q 773 -301 799 -274 q 711 -332 747 -329 q 589 -335 639 -336 q 499 -333 539 -335 q 424 -329 458 -332 q 349 -326 389 -326 q 260 -327 310 -325 q 139 -336 210 -329 q 74 -315 103 -339 q 40 -256 44 -292 l 40 -246 z "},"$":{"ha":681,"x_min":32,"x_max":649,"o":"m 364 1035 q 414 1011 393 1032 q 442 963 435 990 q 482 951 463 958 q 519 936 501 944 q 610 856 578 906 q 646 743 643 806 q 623 678 649 706 q 560 649 597 651 q 495 673 522 647 q 467 736 468 699 q 462 753 465 743 q 438 775 458 764 q 435 776 435 775 q 433 651 432 714 q 435 528 433 588 q 528 479 483 508 q 639 292 624 410 q 628 175 647 231 q 568 85 608 122 q 438 14 518 35 l 438 6 q 407 -56 435 -31 q 342 -79 379 -82 q 283 -53 307 -76 q 257 3 260 -29 q 188 21 218 10 q 99 69 135 38 q 40 169 51 111 q 54 237 33 206 q 113 275 75 268 q 178 262 149 282 q 217 207 208 242 q 231 197 219 204 q 261 186 242 190 q 260 296 261 242 q 258 400 260 350 q 199 426 228 411 q 143 463 169 442 q 38 664 46 535 q 68 813 32 743 q 163 913 103 874 q 212 940 186 928 q 265 958 238 951 q 296 1013 271 992 q 354 1035 321 1035 l 364 1035 m 217 676 q 253 604 218 629 q 253 680 253 642 q 254 756 253 718 q 221 714 226 736 q 217 676 215 692 m 460 269 q 442 315 456 297 l 442 214 q 459 240 457 226 q 460 269 461 254 z "},".":{"ha":207,"x_min":42,"x_max":164,"o":"m 143 22 q 103 6 126 6 q 64 22 78 6 q 56 32 60 26 q 49 43 51 38 q 42 83 42 58 q 43 105 42 94 q 49 122 44 115 q 64 144 54 135 q 81 157 71 154 q 103 160 92 160 q 124 157 114 160 q 143 144 135 154 q 158 122 153 135 q 163 105 163 115 q 164 83 164 94 q 163 63 164 72 q 158 43 163 53 q 151 32 156 38 q 143 22 147 26 z "},"·":{"ha":204,"x_min":39,"x_max":161,"o":"m 140 371 q 100 354 124 354 q 61 371 75 354 q 53 381 57 375 q 46 392 49 386 q 39 432 39 407 q 40 453 39 443 q 46 471 42 464 q 61 493 51 483 q 78 506 68 503 q 100 508 89 508 q 122 506 111 508 q 140 493 132 503 q 156 471 150 483 q 160 453 160 464 q 161 432 161 443 q 160 411 161 421 q 156 392 160 401 q 149 381 153 386 q 140 371 144 375 z "},"`":{"ha":315,"x_min":25,"x_max":290,"o":"m 221 693 q 196 697 208 693 q 174 711 183 701 q 144 742 158 726 q 115 775 131 758 q 83 813 100 794 q 47 851 67 832 q 26 899 26 871 q 44 949 25 928 q 94 969 65 969 q 143 950 122 969 q 185 906 167 928 q 221 865 204 885 q 247 836 235 850 q 269 811 258 822 q 290 763 290 792 q 271 714 290 735 q 221 693 251 693 z "},"´":{"ha":317,"x_min":26,"x_max":292,"o":"m 96 693 q 69 698 82 693 q 46 714 56 703 q 26 763 26 735 q 47 811 26 792 q 70 836 58 822 q 96 865 82 850 q 131 906 113 885 q 174 950 150 928 q 223 969 194 969 q 272 949 251 969 q 291 899 292 928 q 269 851 290 871 q 233 813 250 832 q 201 775 217 794 q 172 742 186 758 q 143 711 158 726 q 121 697 133 701 q 96 693 108 693 z "},"˝":{"ha":633,"x_min":26,"x_max":608,"o":"m 96 693 q 69 698 82 693 q 46 714 56 703 q 26 763 26 735 q 47 811 26 792 q 70 836 58 822 q 96 865 82 850 q 131 906 113 885 q 174 950 150 928 q 223 969 194 969 q 272 949 251 969 q 291 899 292 928 q 269 851 290 871 q 233 813 250 832 q 201 775 217 794 q 172 742 186 758 q 143 711 158 726 q 121 697 133 701 q 96 693 108 693 m 413 693 q 385 698 399 693 q 363 714 372 703 q 343 763 343 735 q 364 811 343 792 q 387 836 375 822 q 413 865 399 850 q 448 906 429 885 q 490 950 467 928 q 540 969 511 969 q 589 949 568 969 q 608 899 608 928 q 586 851 607 871 q 550 813 567 832 q 518 775 533 794 q 489 742 503 758 q 460 711 475 726 q 438 697 450 701 q 413 693 425 693 z "},"Ź":{"ha":747,"x_min":54,"x_max":686,"o":"m 328 -6 q 269 -3 296 -6 q 218 4 242 -1 q 152 24 179 11 q 108 52 125 36 q 81 85 90 68 q 68 119 72 103 q 89 247 54 171 q 116 300 100 271 q 154 364 132 329 q 243 493 194 426 q 340 626 292 560 q 398 705 371 667 q 449 775 425 743 q 452 781 451 778 q 456 786 453 783 q 332 782 413 788 q 269 776 299 779 q 217 771 240 774 q 168 765 190 768 q 101 783 131 760 q 67 842 72 806 q 83 908 61 879 q 143 943 106 938 q 161 946 144 943 q 205 951 178 949 q 267 958 232 954 q 339 964 301 961 q 462 967 411 968 q 547 961 513 967 q 601 945 581 956 q 638 922 622 935 q 676 839 676 890 q 668 794 676 818 q 638 735 660 771 q 579 648 617 700 q 485 519 542 596 q 399 401 442 460 q 321 289 357 342 q 279 222 294 249 q 257 181 264 196 q 315 176 276 178 q 415 179 353 174 q 526 192 479 185 q 575 200 574 200 q 642 185 611 206 q 679 128 672 164 q 665 60 686 92 q 607 22 644 29 q 587 19 606 22 q 538 11 568 15 q 468 3 507 7 q 388 -3 429 -1 q 358 -5 372 -4 q 328 -6 343 -6 m 310 981 q 283 985 296 981 q 260 1001 269 990 q 240 1051 240 1022 q 261 1099 240 1079 q 284 1124 272 1110 q 310 1153 296 1138 q 345 1194 326 1172 q 388 1238 364 1215 q 437 1257 408 1257 q 486 1236 465 1257 q 505 1187 506 1215 q 483 1139 504 1158 q 447 1101 464 1119 q 415 1063 431 1082 q 386 1030 400 1046 q 357 999 372 1014 q 335 985 347 989 q 310 981 322 981 z "},"Ś":{"ha":725,"x_min":54,"x_max":671,"o":"m 346 -1 q 276 4 310 -1 q 210 21 242 10 q 121 69 157 38 q 63 169 74 111 q 76 237 56 206 q 135 275 97 268 q 201 262 171 282 q 239 207 231 242 q 259 194 243 203 q 307 182 275 186 q 372 181 339 178 q 432 194 406 183 q 477 230 469 210 q 482 269 485 250 q 470 306 479 290 q 443 333 461 321 q 397 358 425 346 q 331 383 369 369 q 245 416 288 399 q 165 463 203 433 q 60 664 68 535 q 90 813 54 743 q 185 913 125 874 q 363 971 260 963 q 457 965 411 974 q 542 936 503 956 q 633 856 600 906 q 668 743 665 806 q 645 678 671 706 q 582 649 619 651 q 517 673 544 647 q 489 736 490 699 q 484 753 488 743 q 460 775 481 764 q 419 788 442 785 q 372 790 396 792 q 324 781 347 788 q 283 761 301 774 q 244 717 251 740 q 239 676 238 693 q 248 637 240 653 q 273 607 256 621 q 319 581 290 593 q 390 553 347 568 q 472 522 431 539 q 550 479 514 506 q 661 292 646 410 q 650 175 669 231 q 590 85 631 122 q 414 4 525 21 q 380 0 397 1 q 346 -1 363 -1 m 299 983 q 272 988 285 983 q 249 1004 258 993 q 229 1053 229 1025 q 250 1101 229 1082 q 273 1126 261 1113 q 299 1156 285 1140 q 334 1197 315 1175 q 376 1240 353 1218 q 426 1260 397 1260 q 475 1239 454 1260 q 494 1190 494 1218 q 472 1142 493 1161 q 436 1103 453 1122 q 404 1065 419 1085 q 375 1033 389 1049 q 346 1001 361 1017 q 324 988 336 992 q 299 983 311 983 z "},"ś":{"ha":815,"x_min":39,"x_max":776,"o":"m 404 0 q 263 19 332 0 q 133 81 186 40 q 54 176 79 121 q 52 246 39 211 q 100 296 65 281 q 169 298 135 311 q 219 250 204 285 q 253 217 228 232 q 316 192 279 201 q 396 181 353 182 q 482 189 439 179 q 506 195 490 190 q 538 208 522 200 q 565 228 554 217 q 576 257 576 240 q 573 271 576 261 q 546 296 569 281 q 485 328 521 313 q 408 358 449 343 q 299 404 353 381 q 197 464 244 428 q 78 704 74 557 q 171 900 85 828 q 353 971 244 960 q 477 967 414 978 q 599 933 540 957 q 711 861 668 904 q 767 765 754 818 q 756 697 776 729 q 700 656 736 665 q 633 667 664 647 q 592 722 601 686 q 572 743 589 729 q 518 771 554 757 q 437 791 479 786 q 358 789 394 796 q 302 772 322 783 q 272 747 282 760 q 260 719 263 733 q 258 697 258 706 q 268 649 257 669 q 306 608 279 628 q 383 565 338 585 q 474 526 428 546 q 565 490 519 508 q 647 444 610 471 q 757 261 754 372 q 681 89 760 158 q 522 14 618 35 q 465 3 494 7 q 404 0 435 0 m 315 983 q 288 988 301 983 q 265 1004 275 993 q 246 1053 246 1025 q 267 1101 246 1082 q 290 1126 278 1113 q 315 1156 301 1140 q 351 1197 332 1175 q 393 1240 369 1218 q 442 1260 414 1260 q 492 1239 471 1260 q 510 1190 511 1218 q 489 1142 510 1161 q 453 1103 469 1122 q 421 1065 436 1085 q 392 1033 406 1049 q 363 1001 378 1017 q 340 988 353 992 q 315 983 328 983 z "},"Ż":{"ha":747,"x_min":54,"x_max":686,"o":"m 328 -6 q 269 -3 296 -6 q 218 4 242 -1 q 152 24 179 11 q 108 52 125 36 q 81 85 90 68 q 68 119 72 103 q 89 247 54 171 q 116 300 100 271 q 154 364 132 329 q 243 493 194 426 q 340 626 292 560 q 398 705 371 667 q 449 775 425 743 q 452 781 451 778 q 456 786 453 783 q 332 782 413 788 q 269 776 299 779 q 217 771 240 774 q 168 765 190 768 q 101 783 131 760 q 67 842 72 806 q 83 908 61 879 q 143 943 106 938 q 161 946 144 943 q 205 951 178 949 q 267 958 232 954 q 339 964 301 961 q 462 967 411 968 q 547 961 513 967 q 601 945 581 956 q 638 922 622 935 q 676 839 676 890 q 668 794 676 818 q 638 735 660 771 q 579 648 617 700 q 485 519 542 596 q 399 401 442 460 q 321 289 357 342 q 279 222 294 249 q 257 181 264 196 q 315 176 276 178 q 415 179 353 174 q 526 192 479 185 q 575 200 574 200 q 642 185 611 206 q 679 128 672 164 q 665 60 686 92 q 607 22 644 29 q 587 19 606 22 q 538 11 568 15 q 468 3 507 7 q 388 -3 429 -1 q 358 -5 372 -4 q 328 -6 343 -6 m 417 1117 q 429 1088 429 1104 q 417 1060 429 1069 q 401 1049 410 1053 q 372 1043 390 1043 q 344 1049 354 1043 q 328 1060 335 1053 q 317 1088 317 1069 q 328 1117 317 1106 q 344 1128 335 1124 q 358 1131 350 1131 q 372 1132 365 1132 q 388 1131 381 1132 q 401 1128 394 1131 q 417 1117 410 1124 z "},"Ŕ":{"ha":804,"x_min":72,"x_max":750,"o":"m 654 -3 q 606 11 628 -3 q 480 97 532 58 q 388 167 428 135 q 319 228 349 200 q 261 286 289 257 q 258 187 258 238 q 254 83 257 136 q 226 22 253 47 q 161 -3 199 -4 q 98 26 124 -1 q 74 90 72 54 q 80 306 78 203 q 82 504 82 408 q 80 691 82 600 q 74 872 78 782 q 97 937 72 910 q 158 967 122 964 q 367 960 271 974 q 539 914 464 947 q 664 831 615 881 q 725 701 717 774 q 724 656 726 682 q 710 599 722 629 q 672 535 697 568 q 600 471 646 503 q 417 386 526 419 q 465 339 439 363 q 524 288 490 315 q 601 231 557 261 q 703 163 644 200 q 742 107 735 143 q 729 39 750 71 q 697 8 717 18 q 654 -3 676 -3 m 258 788 q 263 533 263 663 q 413 576 358 553 q 496 618 468 599 q 533 652 519 635 q 546 682 547 669 q 526 713 544 694 q 468 749 507 732 q 258 788 382 785 m 303 986 q 276 991 289 986 q 253 1007 263 996 q 233 1056 233 1028 q 254 1104 233 1085 q 277 1129 265 1115 q 303 1158 289 1143 q 338 1199 319 1178 q 381 1243 357 1221 q 430 1263 401 1263 q 479 1242 458 1263 q 498 1192 499 1221 q 476 1144 497 1164 q 440 1106 457 1125 q 408 1068 424 1088 q 379 1035 393 1051 q 350 1004 365 1019 q 328 990 340 994 q 303 986 315 986 z "},"Á":{"ha":903,"x_min":53,"x_max":839,"o":"m 828 397 q 836 281 833 336 q 839 183 839 225 q 838 115 839 140 q 838 88 838 89 q 809 26 835 51 q 747 1 783 1 l 743 1 q 681 31 706 4 q 657 96 656 58 q 658 114 657 96 q 658 162 658 132 q 657 233 658 192 q 653 319 656 274 q 563 315 607 317 q 474 313 518 313 q 362 315 417 313 q 253 319 307 317 q 242 228 246 271 q 238 155 239 186 q 235 105 236 124 q 235 86 235 86 q 207 24 233 50 q 144 -3 181 -3 l 143 -3 q 79 26 106 -1 q 54 89 53 53 q 56 128 54 92 q 61 223 57 165 q 75 353 65 281 q 101 503 85 426 q 210 803 142 693 q 275 887 240 854 q 344 938 310 919 q 410 963 378 956 q 469 969 442 969 q 664 885 582 969 q 782 656 739 806 q 828 397 813 544 m 285 499 q 458 493 372 494 q 633 499 544 492 q 533 760 600 689 q 469 789 506 789 q 402 758 432 789 q 349 683 372 728 q 310 589 326 639 q 285 499 294 539 m 388 986 q 360 991 374 986 q 338 1007 347 996 q 318 1056 318 1028 q 339 1104 318 1085 q 362 1129 350 1115 q 388 1158 374 1143 q 423 1199 404 1178 q 465 1243 442 1221 q 515 1263 486 1263 q 564 1242 543 1263 q 583 1192 583 1221 q 561 1144 582 1164 q 525 1106 542 1125 q 493 1068 508 1088 q 464 1035 478 1051 q 435 1004 450 1019 q 413 990 425 994 q 388 986 400 986 z "},"á":{"ha":894,"x_min":39,"x_max":843,"o":"m 840 96 q 819 30 843 58 q 757 -1 794 1 l 750 -1 q 688 22 714 -1 q 660 82 663 46 q 658 97 660 92 q 653 90 657 94 q 605 50 631 67 q 551 21 579 33 q 435 -1 492 -1 q 365 6 399 -1 q 296 29 331 14 q 233 66 263 44 q 176 115 203 88 q 73 283 107 186 q 42 492 39 379 q 53 592 44 543 q 78 685 61 640 q 164 835 110 771 q 289 935 218 900 q 435 971 360 971 q 635 893 549 971 q 666 949 640 926 q 726 969 692 971 q 789 941 763 968 q 814 876 815 914 q 817 460 807 657 q 840 96 826 264 m 525 218 q 581 323 561 256 q 600 481 600 390 q 588 608 600 551 q 553 706 575 665 q 502 769 532 747 q 435 790 472 790 q 361 769 399 790 q 294 709 324 749 q 244 613 264 669 q 222 486 224 557 q 241 348 219 411 q 306 240 263 285 q 367 195 333 211 q 435 179 401 179 q 525 218 488 179 m 350 986 q 323 991 336 986 q 300 1007 310 996 q 281 1056 281 1028 q 301 1104 281 1085 q 324 1129 313 1115 q 350 1158 336 1143 q 385 1199 367 1178 q 428 1243 404 1221 q 477 1263 449 1263 q 526 1242 506 1263 q 545 1192 546 1221 q 524 1144 544 1164 q 488 1106 504 1125 q 456 1068 471 1088 q 426 1035 440 1051 q 397 1004 413 1019 q 375 990 388 994 q 350 986 363 986 z "},"Ć":{"ha":829,"x_min":53,"x_max":782,"o":"m 433 -3 q 381 1 407 -3 q 251 44 310 11 q 149 135 192 78 q 56 472 53 258 q 157 840 58 713 q 271 936 204 901 q 400 969 331 965 q 510 959 456 972 q 614 918 565 946 q 701 844 668 886 q 739 756 733 801 q 720 689 743 718 q 660 656 697 660 q 595 672 624 650 q 560 731 567 694 q 543 749 557 736 q 504 772 529 761 q 445 788 475 785 q 388 786 415 792 q 309 740 339 776 q 263 658 279 704 q 242 560 247 611 q 236 469 236 510 q 292 244 233 321 q 404 181 335 189 q 472 182 438 176 q 539 203 507 188 q 581 231 567 217 q 597 256 594 246 q 639 311 607 292 q 707 321 671 331 q 763 279 743 311 q 772 211 782 247 q 713 108 758 156 q 670 72 693 89 q 619 42 647 56 q 433 -3 531 -3 m 351 993 q 324 998 338 993 q 301 1014 311 1003 q 282 1063 282 1035 q 303 1111 282 1092 q 326 1136 314 1122 q 351 1165 338 1150 q 387 1206 368 1185 q 429 1250 406 1228 q 478 1269 450 1269 q 528 1249 507 1269 q 547 1199 547 1228 q 525 1151 546 1171 q 489 1113 506 1132 q 457 1075 472 1094 q 428 1042 442 1058 q 399 1011 414 1026 q 376 997 389 1001 q 351 993 364 993 z "},"ć":{"ha":801,"x_min":38,"x_max":767,"o":"m 392 -3 q 288 14 338 -3 q 182 71 229 32 q 103 167 135 110 q 43 465 38 286 q 139 810 50 676 q 238 912 181 872 q 363 964 296 951 q 466 966 414 975 q 564 932 518 957 q 704 775 660 879 q 705 706 719 740 q 656 657 690 672 q 587 656 621 642 q 538 704 553 669 q 479 773 518 750 q 396 788 440 796 q 289 710 333 775 q 242 602 258 665 q 222 460 225 539 q 224 385 221 426 q 240 303 228 343 q 276 230 253 263 q 342 185 300 197 q 408 178 372 175 q 479 197 444 182 q 544 235 514 211 q 596 289 575 258 q 652 328 615 321 q 721 315 689 335 q 759 258 751 294 q 746 190 767 221 q 658 95 710 138 q 544 28 607 53 q 468 5 507 13 q 392 -3 429 -3 m 328 986 q 301 991 314 986 q 278 1007 288 996 q 258 1056 258 1028 q 279 1104 258 1085 q 302 1129 290 1115 q 328 1158 314 1143 q 363 1199 344 1178 q 406 1243 382 1221 q 455 1263 426 1263 q 504 1242 483 1263 q 523 1192 524 1221 q 501 1144 522 1164 q 465 1106 482 1125 q 433 1068 449 1088 q 404 1035 418 1051 q 375 1004 390 1019 q 353 990 365 994 q 328 986 340 986 z "},"É":{"ha":839,"x_min":68,"x_max":774,"o":"m 476 789 q 332 788 379 793 q 268 776 285 782 q 259 672 264 738 q 251 529 254 606 q 442 529 347 526 q 628 543 536 532 q 693 524 664 547 q 726 463 722 500 q 707 396 731 425 q 647 364 683 367 q 344 347 499 347 q 297 347 321 347 q 250 349 274 347 q 258 240 253 278 q 265 186 263 201 q 333 181 285 183 q 474 182 381 178 q 544 185 511 183 q 604 190 578 188 q 647 193 631 192 q 663 194 663 194 q 728 175 699 199 q 761 114 757 151 q 742 49 765 78 q 681 15 718 19 q 661 14 679 15 q 614 10 643 13 q 547 6 585 8 q 469 1 510 3 q 422 -1 444 0 q 376 -1 399 -1 q 339 -1 357 -1 q 304 0 321 0 q 158 33 201 6 q 96 122 117 60 q 86 163 90 140 q 78 213 82 185 q 71 313 74 257 q 69 438 68 368 q 72 558 69 497 q 78 670 75 618 q 85 763 82 722 q 93 826 89 804 q 115 882 97 857 q 161 925 133 907 q 200 944 179 936 q 249 957 221 951 q 332 968 285 964 q 438 971 379 972 q 529 968 485 971 q 609 962 574 965 q 666 956 644 958 q 690 953 688 953 q 751 918 728 947 q 768 851 774 889 q 734 792 764 815 q 667 774 704 769 q 651 776 667 774 q 608 781 635 778 q 548 785 582 783 q 476 789 514 788 m 346 986 q 319 991 332 986 q 296 1007 306 996 q 276 1056 276 1028 q 297 1104 276 1085 q 320 1129 308 1115 q 346 1158 332 1143 q 381 1199 363 1178 q 424 1243 400 1221 q 473 1263 444 1263 q 522 1242 501 1263 q 541 1192 542 1221 q 519 1144 540 1164 q 483 1106 500 1125 q 451 1068 467 1088 q 422 1035 436 1051 q 393 1004 408 1019 q 371 990 383 994 q 346 986 358 986 z "},"Í":{"ha":801,"x_min":63,"x_max":735,"o":"m 638 189 q 700 163 674 189 q 726 100 726 136 q 701 35 728 63 q 639 8 675 8 q 569 6 603 7 q 503 3 536 6 q 424 -1 463 0 q 347 -3 386 -3 q 244 1 296 -3 q 139 18 192 6 q 83 57 103 25 q 69 125 63 89 q 110 181 78 161 q 178 194 142 201 q 232 185 206 188 q 286 179 258 182 q 290 410 290 300 q 286 636 289 521 q 285 706 286 671 q 285 776 285 740 q 274 777 279 776 q 264 778 269 778 q 213 780 238 779 q 163 782 188 781 q 99 809 125 782 q 75 874 74 836 q 102 937 75 911 q 167 963 129 963 q 219 960 193 961 q 272 958 244 960 q 442 953 356 954 q 625 968 529 953 q 692 953 663 975 q 729 893 722 931 q 713 826 735 857 q 654 790 692 796 q 557 778 604 782 q 465 774 510 775 q 466 706 465 739 q 467 639 467 672 q 470 417 469 529 q 467 182 471 304 q 481 182 474 182 q 494 183 488 182 q 563 186 528 185 q 635 189 599 188 l 638 189 m 319 986 q 292 991 306 986 q 269 1007 279 996 q 250 1056 250 1028 q 271 1104 250 1085 q 294 1129 282 1115 q 319 1158 306 1143 q 355 1199 336 1178 q 397 1243 374 1221 q 447 1263 418 1263 q 496 1242 475 1263 q 515 1192 515 1221 q 493 1144 514 1164 q 457 1106 474 1125 q 425 1068 440 1088 q 396 1035 410 1051 q 367 1004 382 1019 q 344 990 357 994 q 319 986 332 986 z "},"Ń":{"ha":793,"x_min":72,"x_max":719,"o":"m 176 -3 q 115 22 140 -3 q 86 82 89 46 q 84 117 86 83 q 80 207 82 151 q 76 333 78 263 q 74 476 74 403 q 74 633 72 564 q 81 754 76 703 q 99 861 88 824 q 119 911 107 890 q 163 951 139 942 q 201 961 186 960 q 247 954 226 963 q 282 933 267 946 q 307 908 297 921 q 321 888 317 894 q 346 843 332 868 q 375 785 360 818 q 431 651 401 725 q 489 503 460 578 q 514 440 501 471 q 538 379 526 408 q 539 453 539 413 q 540 543 539 494 q 539 667 540 607 q 537 773 538 726 q 535 847 536 819 q 533 876 533 875 q 558 940 532 913 q 621 969 583 968 q 685 945 658 971 q 714 882 713 919 q 715 850 714 882 q 717 766 717 818 q 719 648 718 714 q 719 511 719 582 q 711 240 719 344 q 691 106 704 151 q 651 36 678 60 q 571 10 617 6 q 510 38 533 14 q 472 86 488 63 q 425 181 451 119 q 375 299 401 233 q 321 438 349 365 q 288 524 304 481 q 254 607 271 567 q 254 426 253 535 q 257 301 256 361 q 260 196 258 242 q 265 122 263 150 q 267 93 267 93 q 244 28 269 56 q 181 -3 218 0 l 176 -3 m 349 971 q 322 976 335 971 q 299 992 308 981 q 279 1041 279 1013 q 300 1089 279 1069 q 323 1114 311 1100 q 349 1143 335 1128 q 384 1184 365 1163 q 426 1228 403 1206 q 476 1247 447 1247 q 525 1226 504 1247 q 544 1177 544 1206 q 522 1129 543 1149 q 486 1091 503 1110 q 454 1053 469 1072 q 425 1020 439 1036 q 396 989 411 1004 q 374 975 386 979 q 349 971 361 971 z "},"Ó":{"ha":972,"x_min":51,"x_max":915,"o":"m 503 0 q 343 31 418 0 q 201 124 263 64 q 100 272 139 185 q 56 469 60 364 q 85 678 51 582 q 183 838 117 767 q 326 937 246 901 q 494 972 407 972 q 651 941 578 972 q 781 851 724 910 q 875 698 842 788 q 913 500 908 608 q 904 365 915 425 q 874 258 893 304 q 832 176 856 211 q 786 118 808 142 q 658 30 731 60 q 503 0 585 0 m 494 792 q 397 771 444 792 q 314 713 350 750 q 253 610 272 669 q 236 478 233 550 q 263 349 239 404 q 325 256 288 293 q 409 199 363 218 q 503 181 456 181 q 657 243 594 181 q 732 493 739 329 q 707 632 729 575 q 651 724 685 689 q 577 776 618 760 q 494 792 536 792 m 411 986 q 384 991 397 986 q 361 1007 371 996 q 342 1056 342 1028 q 363 1104 342 1085 q 385 1129 374 1115 q 411 1158 397 1143 q 447 1199 428 1178 q 489 1243 465 1221 q 538 1263 510 1263 q 588 1242 567 1263 q 606 1192 607 1221 q 585 1144 606 1164 q 549 1106 565 1125 q 517 1068 532 1088 q 488 1035 501 1051 q 458 1004 474 1019 q 436 990 449 994 q 411 986 424 986 z "},"Ú":{"ha":836,"x_min":51,"x_max":772,"o":"m 408 -1 q 190 99 278 1 q 114 235 144 151 q 90 316 100 272 q 75 408 81 360 q 85 876 51 601 q 118 936 89 913 q 185 956 147 960 q 244 921 221 950 q 264 856 268 892 q 246 620 249 726 q 254 431 243 514 q 286 288 265 336 q 326 218 307 239 q 411 179 357 181 q 496 219 460 179 q 540 292 515 243 q 579 438 564 342 q 592 634 593 526 q 576 871 592 742 q 595 937 572 907 q 656 971 618 967 q 722 952 693 975 q 756 892 751 929 q 772 631 772 751 q 757 410 772 510 q 629 99 725 203 q 413 -1 540 -1 l 408 -1 m 354 971 q 327 976 340 971 q 304 992 314 981 q 285 1041 285 1013 q 306 1089 285 1069 q 328 1114 317 1100 q 354 1143 340 1128 q 390 1184 371 1163 q 432 1228 408 1206 q 481 1247 453 1247 q 531 1226 510 1247 q 549 1177 550 1206 q 528 1129 549 1149 q 492 1091 508 1110 q 460 1053 475 1072 q 431 1020 444 1036 q 401 989 417 1004 q 379 975 392 979 q 354 971 367 971 z "},"Ý":{"ha":739,"x_min":35,"x_max":707,"o":"m 643 964 q 692 915 678 949 q 693 846 707 881 q 650 737 669 788 q 615 640 631 686 q 587 553 600 594 q 561 471 574 511 q 531 376 546 424 q 499 278 517 329 q 458 172 481 228 q 407 51 436 115 q 374 12 396 26 q 325 -3 351 -3 q 289 6 306 -3 q 241 56 254 21 q 243 125 228 90 q 286 226 267 179 q 321 317 306 274 q 253 425 290 364 q 177 555 215 486 q 105 696 139 624 q 47 835 71 768 q 51 904 35 871 q 103 950 67 938 q 172 945 139 961 q 218 893 206 929 q 296 715 247 808 q 394 540 344 622 q 449 709 419 621 q 525 914 478 797 q 574 963 540 949 q 643 964 608 978 m 313 971 q 285 976 299 971 q 263 992 272 981 q 243 1041 243 1013 q 264 1089 243 1069 q 287 1114 275 1100 q 313 1143 299 1128 q 348 1184 329 1163 q 390 1228 367 1206 q 440 1247 411 1247 q 489 1226 468 1247 q 508 1177 508 1206 q 486 1129 507 1149 q 450 1091 467 1110 q 418 1053 433 1072 q 389 1020 403 1036 q 360 989 375 1004 q 338 975 350 979 q 313 971 325 971 z "},"é":{"ha":799,"x_min":33,"x_max":754,"o":"m 421 -1 q 294 19 354 -1 q 104 186 169 64 q 46 508 33 314 q 81 697 53 611 q 160 844 110 782 q 272 939 207 904 q 410 971 340 972 q 543 933 481 968 q 650 832 607 894 q 719 681 696 768 q 746 489 743 593 q 717 421 746 450 q 647 397 686 394 q 498 401 572 404 q 344 392 424 397 q 288 388 317 389 q 229 385 258 386 q 263 272 238 318 q 354 190 293 213 q 490 190 418 169 q 547 215 522 199 q 586 250 572 231 q 644 287 607 281 q 711 271 681 293 q 748 213 742 250 q 733 146 754 176 q 652 69 701 101 q 542 17 603 36 q 481 3 511 8 q 421 -1 451 -1 m 403 790 q 301 732 347 790 q 263 669 282 708 q 233 565 244 629 q 282 568 257 567 q 332 572 307 569 q 443 578 388 575 q 557 582 499 582 q 533 672 549 636 q 503 729 518 707 q 404 790 460 790 l 403 790 m 328 986 q 301 991 314 986 q 278 1007 288 996 q 258 1056 258 1028 q 279 1104 258 1085 q 302 1129 290 1115 q 328 1158 314 1143 q 363 1199 344 1178 q 406 1243 382 1221 q 455 1263 426 1263 q 504 1242 483 1263 q 523 1192 524 1221 q 501 1144 522 1164 q 465 1106 482 1125 q 433 1068 449 1088 q 404 1035 418 1051 q 375 1004 390 1019 q 353 990 365 994 q 328 986 340 986 z "},"í":{"ha":349,"x_min":36,"x_max":324,"o":"m 221 610 q 233 443 235 526 q 226 283 231 360 q 222 182 224 231 q 226 101 221 133 q 210 34 232 64 q 150 -1 188 4 q 136 -3 146 -3 q 78 19 104 -3 q 47 74 53 40 q 42 176 40 121 q 47 293 43 232 q 51 437 50 363 q 42 581 53 511 q 58 647 36 617 q 117 685 81 678 q 183 668 153 690 q 221 610 214 646 m 128 717 q 101 722 114 717 q 78 738 88 726 q 58 787 58 758 q 79 835 58 815 q 102 860 90 846 q 128 889 114 874 q 163 930 144 908 q 206 974 182 951 q 255 993 226 993 q 304 972 283 993 q 323 923 324 951 q 301 875 322 894 q 265 837 282 856 q 233 799 249 818 q 204 766 218 782 q 175 735 190 750 q 153 721 165 725 q 128 717 140 717 z "},"ń":{"ha":824,"x_min":47,"x_max":776,"o":"m 190 0 q 129 25 154 1 q 101 85 104 49 l 50 861 q 72 926 47 899 q 135 957 97 954 q 200 935 172 960 q 231 872 228 910 l 239 749 q 265 806 251 779 q 347 919 303 879 q 424 965 388 956 q 489 972 461 974 q 550 956 515 969 q 621 904 585 943 q 690 786 663 858 q 756 494 735 676 q 769 350 765 421 q 775 224 774 279 q 776 134 776 169 q 776 96 776 99 q 749 33 775 60 q 686 7 724 7 q 685 8 685 7 q 622 35 647 8 q 596 100 596 63 q 596 133 596 100 q 594 218 596 165 q 589 338 593 271 q 576 475 585 406 q 522 721 557 635 q 493 776 506 761 q 476 792 481 790 q 461 779 474 790 q 429 731 449 768 q 386 627 410 694 q 338 446 363 560 q 312 313 322 378 q 294 196 301 247 q 284 113 288 144 q 281 82 281 82 q 252 24 278 47 q 192 0 226 0 l 190 0 m 410 986 q 383 991 396 986 q 360 1007 369 996 q 340 1056 340 1028 q 361 1104 340 1085 q 384 1129 372 1115 q 410 1158 396 1143 q 445 1199 426 1178 q 488 1243 464 1221 q 537 1263 508 1263 q 586 1242 565 1263 q 605 1192 606 1221 q 583 1144 604 1164 q 547 1106 564 1125 q 515 1068 531 1088 q 486 1035 500 1051 q 457 1004 472 1019 q 435 990 447 994 q 410 986 422 986 z "},"ó":{"ha":957,"x_min":39,"x_max":913,"o":"m 503 -1 q 339 29 418 -1 q 263 69 299 46 q 194 122 226 92 q 88 271 128 185 q 42 468 46 360 q 47 573 39 522 q 71 672 54 624 q 169 829 106 763 q 317 933 233 897 q 493 969 401 969 q 649 939 576 969 q 779 850 722 908 q 872 700 840 785 q 899 605 889 656 q 910 497 908 554 q 902 362 913 422 q 873 254 892 301 q 831 173 854 207 q 785 115 807 139 q 658 28 731 58 q 503 -1 586 -1 m 493 790 q 390 768 440 790 q 300 706 339 746 q 244 619 271 674 q 221 476 218 564 q 251 349 225 404 q 317 255 278 293 q 406 197 357 217 q 503 178 454 178 q 656 240 596 178 q 715 344 696 281 q 731 492 733 408 q 706 631 728 574 q 650 723 683 688 q 576 774 617 758 q 493 790 535 790 m 418 986 q 391 991 404 986 q 368 1007 378 996 q 349 1056 349 1028 q 369 1104 349 1085 q 392 1129 381 1115 q 418 1158 404 1143 q 453 1199 435 1178 q 496 1243 472 1221 q 545 1263 517 1263 q 594 1242 574 1263 q 613 1192 614 1221 q 592 1144 613 1164 q 556 1106 572 1125 q 524 1068 539 1088 q 494 1035 508 1051 q 465 1004 481 1019 q 443 990 456 994 q 418 986 431 986 z "},"ú":{"ha":824,"x_min":47,"x_max":776,"o":"m 633 974 q 694 949 669 972 q 722 889 719 925 l 774 113 q 751 47 776 75 q 689 17 726 19 q 624 39 651 14 q 593 101 596 64 l 585 225 q 558 168 572 194 q 476 54 521 94 q 399 9 436 18 q 335 1 363 0 q 274 17 308 4 q 203 69 239 31 q 133 188 161 115 q 68 479 89 297 q 54 624 58 553 q 49 749 50 694 q 47 840 47 804 q 47 878 47 875 q 74 940 49 914 q 138 967 100 967 q 139 965 139 967 q 202 938 176 965 q 228 874 228 911 q 228 841 228 874 q 229 756 228 808 q 235 635 231 703 q 247 499 239 568 q 301 253 267 339 q 331 198 318 213 q 347 182 343 183 q 362 194 349 183 q 394 242 375 206 q 438 347 414 279 q 486 528 461 414 q 512 661 501 596 q 529 777 522 726 q 540 860 536 828 q 543 892 543 892 q 572 950 546 926 q 632 974 597 974 l 633 974 m 308 986 q 281 991 294 986 q 258 1007 268 996 q 239 1056 239 1028 q 260 1104 239 1085 q 283 1129 271 1115 q 308 1158 294 1143 q 344 1199 325 1178 q 386 1243 363 1221 q 435 1263 407 1263 q 485 1242 464 1263 q 503 1192 504 1221 q 482 1144 503 1164 q 446 1106 463 1125 q 414 1068 429 1088 q 385 1035 399 1051 q 356 1004 371 1019 q 333 990 346 994 q 308 986 321 986 z "},"Ő":{"ha":972,"x_min":51,"x_max":915,"o":"m 503 0 q 343 31 418 0 q 201 124 263 64 q 100 272 139 185 q 56 469 60 364 q 85 678 51 582 q 183 838 117 767 q 326 937 246 901 q 494 972 407 972 q 651 941 578 972 q 781 851 724 910 q 875 698 842 788 q 913 500 908 608 q 904 365 915 425 q 874 258 893 304 q 832 176 856 211 q 786 118 808 142 q 658 30 731 60 q 503 0 585 0 m 494 792 q 397 771 444 792 q 314 713 350 750 q 253 610 272 669 q 236 478 233 550 q 263 349 239 404 q 325 256 288 293 q 409 199 363 218 q 503 181 456 181 q 657 243 594 181 q 732 493 739 329 q 707 632 729 575 q 651 724 685 689 q 577 776 618 760 q 494 792 536 792 m 264 983 q 237 988 250 983 q 214 1004 224 993 q 194 1053 194 1025 q 215 1101 194 1082 q 238 1126 226 1113 q 264 1156 250 1140 q 299 1197 281 1175 q 342 1240 318 1218 q 391 1260 363 1260 q 440 1239 419 1260 q 459 1190 460 1218 q 438 1142 458 1161 q 401 1103 418 1122 q 369 1065 385 1085 q 340 1033 354 1049 q 311 1001 326 1017 q 289 988 301 992 q 264 983 276 983 m 581 983 q 553 988 567 983 q 531 1004 540 993 q 511 1053 511 1025 q 532 1101 511 1082 q 555 1126 543 1113 q 581 1156 567 1140 q 616 1197 597 1175 q 658 1240 635 1218 q 708 1260 679 1260 q 757 1239 736 1260 q 776 1190 776 1218 q 754 1142 775 1161 q 718 1103 735 1122 q 686 1065 701 1085 q 657 1033 671 1049 q 628 1001 643 1017 q 606 988 618 992 q 581 983 593 983 z "},"ő":{"ha":957,"x_min":39,"x_max":913,"o":"m 503 -1 q 339 29 418 -1 q 263 69 299 46 q 194 122 226 92 q 88 271 128 185 q 42 468 46 360 q 47 573 39 522 q 71 672 54 624 q 169 829 106 763 q 317 933 233 897 q 493 969 401 969 q 649 939 576 969 q 779 850 722 908 q 872 700 840 785 q 899 605 889 656 q 910 497 908 554 q 902 362 913 422 q 873 254 892 301 q 831 173 854 207 q 785 115 807 139 q 658 28 731 58 q 503 -1 586 -1 m 493 790 q 390 768 440 790 q 300 706 339 746 q 244 619 271 674 q 221 476 218 564 q 251 349 225 404 q 317 255 278 293 q 406 197 357 217 q 503 178 454 178 q 656 240 596 178 q 715 344 696 281 q 731 492 733 408 q 706 631 728 574 q 650 723 683 688 q 576 774 617 758 q 493 790 535 790 m 264 983 q 237 988 250 983 q 214 1004 224 993 q 194 1053 194 1025 q 215 1101 194 1082 q 238 1126 226 1113 q 264 1156 250 1140 q 299 1197 281 1175 q 342 1240 318 1218 q 391 1260 363 1260 q 440 1239 419 1260 q 459 1190 460 1218 q 438 1142 458 1161 q 401 1103 418 1122 q 369 1065 385 1085 q 340 1033 354 1049 q 311 1001 326 1017 q 289 988 301 992 q 264 983 276 983 m 581 983 q 553 988 567 983 q 531 1004 540 993 q 511 1053 511 1025 q 532 1101 511 1082 q 555 1126 543 1113 q 581 1156 567 1140 q 616 1197 597 1175 q 658 1240 635 1218 q 708 1260 679 1260 q 757 1239 736 1260 q 776 1190 776 1218 q 754 1142 775 1161 q 718 1103 735 1122 q 686 1065 701 1085 q 657 1033 671 1049 q 628 1001 643 1017 q 606 988 618 992 q 581 983 593 983 z "},"Ű":{"ha":836,"x_min":51,"x_max":772,"o":"m 408 -1 q 190 99 278 1 q 114 235 144 151 q 90 316 100 272 q 75 408 81 360 q 85 876 51 601 q 118 936 89 913 q 185 956 147 960 q 244 921 221 950 q 264 856 268 892 q 246 620 249 726 q 254 431 243 514 q 286 288 265 336 q 326 218 307 239 q 411 179 357 181 q 496 219 460 179 q 540 292 515 243 q 579 438 564 342 q 592 634 593 526 q 576 871 592 742 q 595 937 572 907 q 656 971 618 967 q 722 952 693 975 q 756 892 751 929 q 772 631 772 751 q 757 410 772 510 q 629 99 725 203 q 413 -1 540 -1 l 408 -1 m 513 971 q 485 976 499 971 q 463 992 472 981 q 443 1041 443 1013 q 464 1089 443 1069 q 487 1114 475 1100 q 513 1143 499 1128 q 548 1184 529 1163 q 590 1228 567 1206 q 640 1247 611 1247 q 689 1226 668 1247 q 708 1177 708 1206 q 686 1129 707 1149 q 650 1091 667 1110 q 618 1053 633 1072 q 589 1020 603 1036 q 560 989 575 1004 q 538 975 550 979 q 513 971 525 971 m 196 971 q 169 976 182 971 q 146 992 156 981 q 126 1041 126 1013 q 147 1089 126 1069 q 170 1114 158 1100 q 196 1143 182 1128 q 231 1184 213 1163 q 274 1228 250 1206 q 323 1247 294 1247 q 372 1226 351 1247 q 391 1177 392 1206 q 369 1129 390 1149 q 333 1091 350 1110 q 301 1053 317 1072 q 272 1020 286 1036 q 243 989 258 1004 q 221 975 233 979 q 196 971 208 971 z "},"ű":{"ha":824,"x_min":47,"x_max":776,"o":"m 633 974 q 694 949 669 972 q 722 889 719 925 l 774 113 q 751 47 776 75 q 689 17 726 19 q 624 39 651 14 q 593 101 596 64 l 585 225 q 558 168 572 194 q 476 54 521 94 q 399 9 436 18 q 335 1 363 0 q 274 17 308 4 q 203 69 239 31 q 133 188 161 115 q 68 479 89 297 q 54 624 58 553 q 49 749 50 694 q 47 840 47 804 q 47 878 47 875 q 74 940 49 914 q 138 967 100 967 q 139 965 139 967 q 202 938 176 965 q 228 874 228 911 q 228 841 228 874 q 229 756 228 808 q 235 635 231 703 q 247 499 239 568 q 301 253 267 339 q 331 198 318 213 q 347 182 343 183 q 362 194 349 183 q 394 242 375 206 q 438 347 414 279 q 486 528 461 414 q 512 661 501 596 q 529 777 522 726 q 540 860 536 828 q 543 892 543 892 q 572 950 546 926 q 632 974 597 974 l 633 974 m 481 988 q 453 992 467 988 q 431 1008 440 997 q 411 1058 411 1029 q 432 1106 411 1086 q 455 1131 443 1117 q 481 1160 467 1144 q 516 1201 497 1179 q 558 1244 535 1222 q 608 1264 579 1264 q 657 1243 636 1264 q 676 1194 676 1222 q 654 1146 675 1165 q 618 1108 635 1126 q 586 1069 601 1089 q 557 1037 571 1053 q 528 1006 543 1021 q 506 992 518 996 q 481 988 493 988 m 164 988 q 137 992 150 988 q 114 1008 124 997 q 94 1058 94 1029 q 115 1106 94 1086 q 138 1131 126 1117 q 164 1160 150 1144 q 199 1201 181 1179 q 242 1244 218 1222 q 291 1264 263 1264 q 340 1243 319 1264 q 359 1194 360 1222 q 338 1146 358 1165 q 301 1108 318 1126 q 269 1069 285 1089 q 240 1037 254 1053 q 211 1006 226 1021 q 189 992 201 996 q 164 988 176 988 z "},"ĺ":{"ha":290,"x_min":49,"x_max":343,"o":"m 150 -1 q 90 22 115 -1 q 61 81 64 44 q 49 313 49 201 q 53 542 50 424 q 58 737 56 638 q 53 944 60 836 q 75 1010 50 982 q 138 1040 100 1038 q 203 1017 175 1043 q 233 956 231 992 q 238 739 240 842 q 233 536 236 636 q 230 317 231 424 q 240 97 229 210 q 219 32 243 61 q 160 -1 196 3 l 150 -1 m 147 1069 q 120 1074 133 1069 q 97 1090 107 1079 q 78 1140 78 1111 q 99 1188 78 1168 q 122 1213 110 1199 q 147 1242 133 1226 q 183 1283 164 1261 q 225 1326 201 1304 q 274 1346 246 1346 q 324 1325 303 1346 q 342 1276 343 1304 q 321 1228 342 1247 q 285 1190 301 1208 q 253 1151 268 1171 q 224 1119 238 1135 q 194 1088 210 1103 q 172 1074 185 1078 q 147 1069 160 1069 z "},"Ĺ":{"ha":746,"x_min":71,"x_max":735,"o":"m 399 -1 q 306 1 343 -1 q 244 6 268 3 q 208 11 221 8 q 189 15 194 14 q 156 29 175 18 q 121 64 138 40 q 96 115 106 85 q 84 165 89 138 q 76 226 79 192 q 71 349 71 279 q 74 504 71 418 q 80 644 75 576 q 89 766 85 713 q 97 853 93 819 q 100 890 100 888 q 132 950 103 926 q 199 971 161 974 q 260 938 236 967 q 279 872 283 908 q 276 844 279 871 q 270 772 274 817 q 263 667 267 726 q 256 546 258 608 q 251 410 253 471 q 253 300 250 349 q 258 226 256 254 q 264 185 261 199 q 341 180 294 181 q 439 180 388 179 q 542 183 490 181 q 636 188 593 185 q 701 165 674 190 q 732 103 729 140 q 710 38 735 65 q 649 7 685 10 q 632 6 647 7 q 592 4 617 6 q 535 1 567 3 q 467 0 503 0 q 431 -1 447 -1 q 399 -1 414 -1 m 310 971 q 283 976 296 971 q 260 992 269 981 q 240 1041 240 1013 q 261 1089 240 1069 q 284 1114 272 1100 q 310 1143 296 1128 q 345 1184 326 1163 q 388 1228 364 1206 q 437 1247 408 1247 q 486 1226 465 1247 q 505 1177 506 1206 q 483 1129 504 1149 q 447 1091 464 1110 q 415 1053 431 1072 q 386 1020 400 1036 q 357 989 372 1004 q 335 975 347 979 q 310 971 322 971 z "},"Ẁ":{"ha":1075,"x_min":60,"x_max":1015,"o":"m 758 -1 q 706 11 736 -1 q 650 65 676 24 q 625 119 638 88 q 599 197 613 150 q 572 299 586 240 q 538 439 557 358 q 510 334 524 382 q 483 244 497 286 q 453 161 468 197 q 425 97 439 125 q 389 44 411 71 q 331 7 367 17 q 246 22 285 -4 q 182 124 206 50 q 164 188 172 151 q 146 272 156 224 q 106 516 126 371 q 64 856 86 661 q 83 921 60 892 q 144 954 107 950 q 211 935 182 958 q 244 875 240 913 q 281 571 264 703 q 315 344 299 439 l 319 324 q 323 335 322 331 q 326 347 324 340 q 388 583 357 447 q 450 889 418 719 q 481 942 456 921 q 538 963 506 963 q 594 942 569 963 q 626 890 619 922 q 697 556 667 690 q 749 333 726 421 q 753 318 751 322 q 756 333 754 325 q 758 349 757 340 q 794 579 776 444 q 832 890 813 714 q 865 951 836 928 q 932 971 894 975 q 992 938 969 967 q 1013 871 1015 908 q 967 508 989 660 q 924 253 946 356 q 881 100 903 153 q 869 77 876 92 q 850 47 863 63 q 819 17 838 31 q 776 0 801 4 q 769 -1 774 0 q 758 -1 764 -1 m 610 983 q 585 988 597 983 q 563 1001 572 992 q 533 1033 547 1017 q 504 1065 519 1049 q 472 1103 489 1085 q 436 1142 456 1122 q 415 1190 415 1161 q 433 1239 414 1218 q 483 1260 454 1260 q 532 1240 511 1260 q 574 1197 556 1218 q 610 1156 593 1175 q 635 1126 624 1140 q 658 1101 647 1113 q 679 1053 679 1082 q 660 1004 679 1025 q 610 983 640 983 z "},"Ẃ":{"ha":1075,"x_min":60,"x_max":1015,"o":"m 758 -1 q 706 11 736 -1 q 650 65 676 24 q 625 119 638 88 q 599 197 613 150 q 572 299 586 240 q 538 439 557 358 q 510 334 524 382 q 483 244 497 286 q 453 161 468 197 q 425 97 439 125 q 389 44 411 71 q 331 7 367 17 q 246 22 285 -4 q 182 124 206 50 q 164 188 172 151 q 146 272 156 224 q 106 516 126 371 q 64 856 86 661 q 83 921 60 892 q 144 954 107 950 q 211 935 182 958 q 244 875 240 913 q 281 571 264 703 q 315 344 299 439 l 319 324 q 323 335 322 331 q 326 347 324 340 q 388 583 357 447 q 450 889 418 719 q 481 942 456 921 q 538 963 506 963 q 594 942 569 963 q 626 890 619 922 q 697 556 667 690 q 749 333 726 421 q 753 318 751 322 q 756 333 754 325 q 758 349 757 340 q 794 579 776 444 q 832 890 813 714 q 865 951 836 928 q 932 971 894 975 q 992 938 969 967 q 1013 871 1015 908 q 967 508 989 660 q 924 253 946 356 q 881 100 903 153 q 869 77 876 92 q 850 47 863 63 q 819 17 838 31 q 776 0 801 4 q 769 -1 774 0 q 758 -1 764 -1 m 474 988 q 447 992 460 988 q 424 1008 433 997 q 404 1058 404 1029 q 425 1106 404 1086 q 448 1131 436 1117 q 474 1160 460 1144 q 509 1201 490 1179 q 551 1244 528 1222 q 601 1264 572 1264 q 650 1243 629 1264 q 669 1194 669 1222 q 647 1146 668 1165 q 611 1108 628 1126 q 579 1069 594 1089 q 550 1037 564 1053 q 521 1006 536 1021 q 499 992 511 996 q 474 988 486 988 z "},"Ỳ":{"ha":739,"x_min":35,"x_max":707,"o":"m 643 964 q 692 915 678 949 q 693 846 707 881 q 650 737 669 788 q 615 640 631 686 q 587 553 600 594 q 561 471 574 511 q 531 376 546 424 q 499 278 517 329 q 458 172 481 228 q 407 51 436 115 q 374 12 396 26 q 325 -3 351 -3 q 289 6 306 -3 q 241 56 254 21 q 243 125 228 90 q 286 226 267 179 q 321 317 306 274 q 253 425 290 364 q 177 555 215 486 q 105 696 139 624 q 47 835 71 768 q 51 904 35 871 q 103 950 67 938 q 172 945 139 961 q 218 893 206 929 q 296 715 247 808 q 394 540 344 622 q 449 709 419 621 q 525 914 478 797 q 574 963 540 949 q 643 964 608 978 m 432 971 q 407 975 419 971 q 385 989 394 979 q 356 1020 369 1004 q 326 1053 342 1036 q 294 1091 311 1072 q 258 1129 278 1110 q 237 1177 238 1149 q 256 1226 236 1206 q 305 1247 276 1247 q 354 1228 333 1247 q 397 1184 378 1206 q 432 1143 415 1163 q 458 1114 446 1128 q 481 1089 469 1100 q 501 1041 501 1069 q 482 992 501 1013 q 432 971 463 971 z "},"Ḟ":{"ha":790,"x_min":74,"x_max":775,"o":"m 692 953 q 752 919 729 949 q 771 853 775 890 q 739 793 768 817 q 672 774 710 769 q 655 775 672 774 q 610 779 638 776 q 545 784 582 782 q 468 789 508 786 q 328 790 378 793 q 256 785 279 788 q 256 679 254 744 q 258 546 257 614 q 400 542 333 542 q 543 546 467 543 q 590 548 567 547 q 640 550 614 549 q 704 524 678 550 q 732 461 731 499 q 708 397 733 424 q 644 369 682 371 q 596 367 619 368 q 549 367 572 367 q 372 363 457 363 q 319 363 346 363 q 263 364 292 363 q 265 279 264 319 q 267 204 265 239 l 267 121 q 262 72 265 96 q 239 26 258 47 q 174 0 210 0 q 110 26 136 0 q 83 89 83 53 q 84 101 83 96 q 86 113 85 106 q 86 164 86 128 q 85 247 86 200 q 83 345 83 293 q 81 443 82 397 q 75 713 76 611 q 78 846 74 814 q 95 894 81 865 q 156 943 110 924 q 239 964 189 957 q 323 971 275 969 q 431 971 371 972 q 525 967 479 969 q 608 960 571 964 q 667 955 644 957 q 692 953 689 953 m 439 1117 q 451 1088 451 1104 q 439 1060 451 1069 q 424 1049 432 1053 q 394 1043 413 1043 q 367 1049 376 1043 q 350 1060 357 1053 q 339 1088 339 1069 q 350 1117 339 1106 q 367 1128 357 1124 q 380 1131 372 1131 q 394 1132 388 1132 q 410 1131 403 1132 q 424 1128 417 1131 q 439 1117 432 1124 z "},"ḟ":{"ha":796,"x_min":53,"x_max":778,"o":"m 678 529 q 616 560 642 532 q 593 625 590 588 q 560 785 599 724 q 449 858 522 847 q 389 857 419 863 q 331 835 358 851 q 281 792 303 819 q 250 726 260 765 q 234 602 236 672 q 235 453 232 532 q 466 454 360 450 q 671 469 572 458 q 738 451 708 474 q 771 390 767 428 q 753 324 776 353 q 693 290 729 294 q 526 276 611 281 q 344 271 440 271 q 294 271 319 271 q 242 272 268 271 q 244 180 243 226 q 242 86 244 133 q 213 25 239 50 q 151 0 188 0 l 147 0 q 85 28 110 1 q 61 93 60 56 q 62 227 64 160 q 57 361 60 294 q 53 578 53 474 q 76 772 53 683 q 136 900 96 846 q 181 949 157 926 q 233 988 206 971 q 351 1034 289 1021 q 476 1036 414 1047 q 599 992 543 1025 q 694 907 654 960 q 758 776 739 850 q 774 615 778 703 q 745 554 771 579 q 683 529 719 529 l 678 529 m 454 1146 q 467 1117 467 1133 q 454 1089 467 1099 q 439 1078 447 1082 q 410 1072 428 1072 q 382 1078 392 1072 q 365 1089 372 1082 q 354 1117 354 1099 q 365 1146 354 1135 q 382 1157 372 1153 q 395 1160 388 1160 q 410 1161 403 1161 q 425 1160 418 1161 q 439 1157 432 1160 q 454 1146 447 1153 z "},"Ġ":{"ha":903,"x_min":58,"x_max":879,"o":"m 875 403 q 856 336 879 365 q 794 303 832 307 q 756 299 775 300 q 719 297 738 297 q 683 188 713 240 q 604 93 653 136 q 492 23 553 47 q 371 -1 432 -1 l 364 -1 q 237 33 294 0 q 139 126 179 65 q 63 472 58 250 q 90 696 64 597 q 164 853 118 793 q 216 906 188 883 q 278 944 244 929 q 338 964 306 957 q 401 969 369 971 q 488 958 444 969 q 568 925 531 947 q 628 881 603 907 q 660 832 653 856 q 668 792 668 808 q 642 728 668 754 q 579 701 615 701 q 528 718 550 701 q 494 760 506 735 q 472 772 486 765 q 439 784 457 779 q 400 790 421 789 q 358 783 379 790 q 289 711 315 767 q 243 469 246 628 q 256 308 240 365 q 290 225 272 251 q 368 178 321 179 q 485 228 428 178 q 536 300 524 263 q 508 301 522 301 q 481 303 494 301 q 417 330 443 303 q 392 394 390 357 q 419 456 393 431 q 482 482 446 482 l 483 482 q 526 481 506 482 q 565 479 546 481 q 662 476 614 476 q 775 482 710 475 q 842 463 813 486 q 875 403 871 439 m 438 1117 q 450 1088 450 1104 q 438 1060 450 1069 q 422 1049 431 1053 q 393 1043 411 1043 q 365 1049 375 1043 q 349 1060 356 1053 q 338 1088 338 1069 q 349 1117 338 1106 q 365 1128 356 1124 q 378 1131 371 1131 q 393 1132 386 1132 q 408 1131 401 1132 q 422 1128 415 1131 q 438 1117 431 1124 z "},"ġ":{"ha":874,"x_min":44,"x_max":818,"o":"m 810 739 q 814 587 811 672 q 817 408 817 501 q 816 217 818 314 q 807 32 814 121 q 699 -225 794 -121 q 599 -301 654 -271 q 481 -343 544 -332 q 444 -347 461 -346 q 407 -349 426 -349 q 322 -340 364 -349 q 242 -314 281 -332 q 60 -133 119 -257 q 56 -63 44 -99 q 103 -12 68 -28 q 172 -8 136 4 q 222 -56 207 -21 q 268 -118 240 -94 q 326 -154 296 -142 q 388 -169 357 -167 q 447 -165 419 -171 q 490 -153 461 -162 q 547 -120 518 -143 q 599 -57 576 -97 q 628 47 622 -17 q 632 114 631 79 q 635 185 633 149 q 632 182 635 182 q 513 97 579 126 q 379 67 447 67 q 272 86 324 67 q 178 150 218 110 q 90 303 119 210 q 63 517 61 397 q 151 846 67 728 q 252 938 193 907 q 381 969 311 969 q 510 940 447 969 q 625 856 572 910 l 625 860 q 626 869 625 865 q 626 876 626 872 q 644 921 629 901 q 682 950 658 940 q 751 951 717 965 q 800 903 785 938 q 806 850 810 878 q 806 806 806 838 q 810 739 807 774 m 501 307 q 560 401 540 347 q 576 518 579 456 q 555 631 574 579 q 501 722 536 683 q 442 772 474 754 q 381 789 411 789 q 299 742 332 789 q 263 663 279 717 q 243 514 246 610 q 258 370 242 431 q 306 278 274 310 q 379 246 338 246 q 442 263 410 246 q 501 307 474 279 m 442 1117 q 454 1088 454 1104 q 442 1060 454 1069 q 426 1049 435 1053 q 397 1043 415 1043 q 369 1049 379 1043 q 353 1060 360 1053 q 342 1088 342 1069 q 353 1117 342 1106 q 369 1128 360 1124 q 383 1131 375 1131 q 397 1132 390 1132 q 413 1131 406 1132 q 426 1128 419 1131 q 442 1117 435 1124 z "},"Ṁ":{"ha":976,"x_min":74,"x_max":903,"o":"m 165 -6 q 103 20 129 -6 q 76 83 76 46 q 76 115 76 83 q 74 197 75 146 q 74 315 74 249 q 75 451 74 381 q 81 603 78 535 q 90 724 85 671 q 102 808 96 774 q 116 865 108 842 q 133 903 124 889 q 153 929 142 918 q 228 964 183 961 q 265 958 243 964 q 308 929 286 951 q 326 910 318 921 q 342 886 333 900 q 389 783 364 850 q 476 504 428 681 q 486 470 482 488 q 494 436 490 453 q 505 470 500 453 q 517 504 510 488 q 565 660 543 592 q 607 781 588 729 q 629 837 619 813 q 649 879 639 861 q 669 918 658 900 q 738 965 697 957 q 821 944 785 974 q 845 917 835 933 q 863 876 856 900 q 876 818 871 851 q 886 739 882 785 q 894 618 892 686 q 900 465 897 550 q 902 327 901 394 q 903 207 903 260 q 902 122 903 154 q 901 89 901 89 q 875 26 901 51 q 811 0 849 0 l 810 0 q 747 27 772 0 q 721 92 721 54 q 722 120 721 92 q 722 196 722 149 q 722 303 722 243 q 721 429 722 364 q 717 543 719 490 q 698 483 708 515 q 676 414 688 450 q 638 284 656 347 q 605 172 619 221 q 582 94 590 124 q 574 63 574 64 q 542 15 565 33 q 486 -3 518 -3 l 485 -3 q 429 18 453 -1 q 399 68 406 38 q 392 97 399 68 q 374 174 386 126 q 347 283 363 222 q 315 411 332 344 q 286 515 300 469 q 261 599 272 561 q 258 519 258 563 q 256 422 257 475 q 254 297 254 357 q 254 191 254 238 q 255 116 254 144 q 256 88 256 88 q 231 23 257 50 q 168 -6 206 -4 l 165 -6 m 532 1117 q 544 1088 544 1104 q 532 1060 544 1069 q 517 1049 525 1053 q 488 1043 506 1043 q 460 1049 469 1043 q 443 1060 450 1053 q 432 1088 432 1069 q 443 1117 432 1106 q 460 1128 450 1124 q 473 1131 465 1131 q 488 1132 481 1132 q 503 1131 496 1132 q 517 1128 510 1131 q 532 1117 525 1124 z "},"ṁ":{"ha":1163,"x_min":50,"x_max":1111,"o":"m 1011 -1 q 949 29 974 1 q 926 94 924 57 q 928 123 926 94 q 930 197 929 151 q 930 303 931 243 q 925 425 929 363 q 892 661 917 572 q 867 732 879 711 q 850 760 856 753 q 828 734 843 754 q 793 664 813 714 q 758 558 774 618 q 728 424 743 499 q 708 298 715 358 q 694 190 700 238 q 687 113 689 142 q 685 83 685 83 q 656 23 682 47 q 594 -1 631 -1 l 593 -1 q 531 26 557 0 q 504 88 506 51 q 503 116 504 88 q 500 192 503 144 q 492 299 497 239 q 481 424 488 358 q 448 644 465 567 q 417 757 431 721 q 399 713 408 740 q 378 646 389 686 q 354 550 367 606 q 329 422 342 494 q 310 296 318 357 q 296 188 301 235 q 288 111 290 140 q 285 82 285 82 q 256 22 282 46 q 194 -1 231 -1 q 133 24 158 0 q 106 83 108 47 l 53 875 q 75 940 50 913 q 138 971 100 968 q 203 949 175 974 q 233 886 231 924 l 239 800 q 290 896 265 861 q 408 971 340 965 q 456 967 428 974 q 515 935 485 961 q 572 854 547 906 q 615 721 596 803 q 617 716 617 718 q 618 711 617 714 q 631 744 625 729 q 644 774 638 760 q 721 886 676 844 q 794 933 758 922 q 857 942 831 943 q 985 879 929 939 q 1078 661 1047 811 q 1107 404 1099 556 q 1110 284 1110 342 q 1110 183 1111 226 q 1107 113 1108 139 q 1106 83 1106 86 q 1078 23 1103 47 q 1017 -1 1053 -1 l 1011 -1 m 667 1117 q 679 1088 679 1104 q 667 1060 679 1069 q 651 1049 660 1053 q 622 1043 640 1043 q 594 1049 604 1043 q 578 1060 585 1053 q 567 1088 567 1069 q 578 1117 567 1106 q 594 1128 585 1124 q 608 1131 600 1131 q 622 1132 615 1132 q 638 1131 631 1132 q 651 1128 644 1131 q 667 1117 660 1124 z "},"Ṗ":{"ha":800,"x_min":71,"x_max":781,"o":"m 168 -3 q 105 27 131 0 q 82 92 79 54 q 87 483 89 281 q 74 872 85 686 q 96 936 71 908 q 157 967 121 964 q 385 960 279 976 q 575 904 490 944 q 711 806 658 864 q 757 737 740 774 q 779 661 774 700 q 778 610 781 640 q 762 544 776 579 q 717 469 747 508 q 633 393 686 431 q 267 254 500 299 q 265 169 265 211 q 261 85 264 126 q 234 23 260 49 q 172 -3 208 -3 l 168 -3 m 258 789 q 267 439 267 618 q 434 489 371 461 q 529 540 497 517 q 584 592 565 565 q 600 640 603 618 q 570 693 597 667 q 499 740 543 719 q 258 789 401 786 m 443 1117 q 456 1088 456 1104 q 443 1060 456 1069 q 428 1049 436 1053 q 399 1043 417 1043 q 371 1049 381 1043 q 354 1060 361 1053 q 343 1088 343 1069 q 354 1117 343 1106 q 371 1128 361 1124 q 384 1131 376 1131 q 399 1132 392 1132 q 414 1131 407 1132 q 428 1128 421 1131 q 443 1117 436 1124 z "},"ṗ":{"ha":850,"x_min":53,"x_max":835,"o":"m 697 856 q 799 692 764 786 q 832 486 835 597 q 796 292 829 383 q 708 139 764 206 q 578 36 650 72 q 429 0 506 0 q 318 22 374 0 q 249 64 279 39 q 244 -119 246 -33 q 236 -268 242 -204 q 208 -328 233 -304 q 146 -351 182 -351 l 139 -351 q 77 -320 101 -349 q 56 -254 53 -292 q 63 -108 60 -193 q 68 76 67 -22 q 69 283 69 175 q 67 495 68 390 q 65 697 67 600 q 61 875 63 794 q 85 940 60 913 q 149 968 111 967 q 211 946 185 969 q 240 888 238 922 q 444 967 331 967 q 581 938 514 967 q 697 856 644 908 m 651 489 q 631 625 653 564 q 568 729 610 686 q 444 786 511 786 q 339 728 381 786 q 297 641 317 700 q 275 479 276 582 q 292 320 274 388 q 347 217 311 253 q 429 181 383 181 q 503 201 465 181 q 571 257 540 221 q 629 360 608 301 q 651 489 650 419 m 500 1117 q 513 1088 513 1104 q 500 1060 513 1069 q 485 1049 493 1053 q 456 1043 474 1043 q 428 1049 438 1043 q 411 1060 418 1053 q 400 1088 400 1069 q 411 1117 400 1106 q 428 1128 418 1124 q 441 1131 433 1131 q 456 1132 449 1132 q 471 1131 464 1132 q 485 1128 478 1131 q 500 1117 493 1124 z "},"Ṡ":{"ha":725,"x_min":54,"x_max":671,"o":"m 346 -1 q 276 4 310 -1 q 210 21 242 10 q 121 69 157 38 q 63 169 74 111 q 76 237 56 206 q 135 275 97 268 q 201 262 171 282 q 239 207 231 242 q 259 194 243 203 q 307 182 275 186 q 372 181 339 178 q 432 194 406 183 q 477 230 469 210 q 482 269 485 250 q 470 306 479 290 q 443 333 461 321 q 397 358 425 346 q 331 383 369 369 q 245 416 288 399 q 165 463 203 433 q 60 664 68 535 q 90 813 54 743 q 185 913 125 874 q 363 971 260 963 q 457 965 411 974 q 542 936 503 956 q 633 856 600 906 q 668 743 665 806 q 645 678 671 706 q 582 649 619 651 q 517 673 544 647 q 489 736 490 699 q 484 753 488 743 q 460 775 481 764 q 419 788 442 785 q 372 790 396 792 q 324 781 347 788 q 283 761 301 774 q 244 717 251 740 q 239 676 238 693 q 248 637 240 653 q 273 607 256 621 q 319 581 290 593 q 390 553 347 568 q 472 522 431 539 q 550 479 514 506 q 661 292 646 410 q 650 175 669 231 q 590 85 631 122 q 414 4 525 21 q 380 0 397 1 q 346 -1 363 -1 m 406 1117 q 418 1088 418 1104 q 406 1060 418 1069 q 390 1049 399 1053 q 361 1043 379 1043 q 333 1049 343 1043 q 317 1060 324 1053 q 306 1088 306 1069 q 317 1117 306 1106 q 333 1128 324 1124 q 347 1131 339 1131 q 361 1132 354 1132 q 376 1131 369 1132 q 390 1128 383 1131 q 406 1117 399 1124 z "},"ṡ":{"ha":815,"x_min":39,"x_max":776,"o":"m 404 0 q 263 19 332 0 q 133 81 186 40 q 54 176 79 121 q 52 246 39 211 q 100 296 65 281 q 169 298 135 311 q 219 250 204 285 q 253 217 228 232 q 316 192 279 201 q 396 181 353 182 q 482 189 439 179 q 506 195 490 190 q 538 208 522 200 q 565 228 554 217 q 576 257 576 240 q 573 271 576 261 q 546 296 569 281 q 485 328 521 313 q 408 358 449 343 q 299 404 353 381 q 197 464 244 428 q 78 704 74 557 q 171 900 85 828 q 353 971 244 960 q 477 967 414 978 q 599 933 540 957 q 711 861 668 904 q 767 765 754 818 q 756 697 776 729 q 700 656 736 665 q 633 667 664 647 q 592 722 601 686 q 572 743 589 729 q 518 771 554 757 q 437 791 479 786 q 358 789 394 796 q 302 772 322 783 q 272 747 282 760 q 260 719 263 733 q 258 697 258 706 q 268 649 257 669 q 306 608 279 628 q 383 565 338 585 q 474 526 428 546 q 565 490 519 508 q 647 444 610 471 q 757 261 754 372 q 681 89 760 158 q 522 14 618 35 q 465 3 494 7 q 404 0 435 0 m 440 1117 q 453 1088 453 1104 q 440 1060 453 1069 q 425 1049 433 1053 q 396 1043 414 1043 q 368 1049 378 1043 q 351 1060 358 1053 q 340 1088 340 1069 q 351 1117 340 1106 q 368 1128 358 1124 q 381 1131 374 1131 q 396 1132 389 1132 q 411 1131 404 1132 q 425 1128 418 1131 q 440 1117 433 1124 z "},"Ẅ":{"ha":1075,"x_min":60,"x_max":1015,"o":"m 758 -1 q 706 11 736 -1 q 650 65 676 24 q 625 119 638 88 q 599 197 613 150 q 572 299 586 240 q 538 439 557 358 q 510 334 524 382 q 483 244 497 286 q 453 161 468 197 q 425 97 439 125 q 389 44 411 71 q 331 7 367 17 q 246 22 285 -4 q 182 124 206 50 q 164 188 172 151 q 146 272 156 224 q 106 516 126 371 q 64 856 86 661 q 83 921 60 892 q 144 954 107 950 q 211 935 182 958 q 244 875 240 913 q 281 571 264 703 q 315 344 299 439 l 319 324 q 323 335 322 331 q 326 347 324 340 q 388 583 357 447 q 450 889 418 719 q 481 942 456 921 q 538 963 506 963 q 594 942 569 963 q 626 890 619 922 q 697 556 667 690 q 749 333 726 421 q 753 318 751 322 q 756 333 754 325 q 758 349 757 340 q 794 579 776 444 q 832 890 813 714 q 865 951 836 928 q 932 971 894 975 q 992 938 969 967 q 1013 871 1015 908 q 967 508 989 660 q 924 253 946 356 q 881 100 903 153 q 869 77 876 92 q 850 47 863 63 q 819 17 838 31 q 776 0 801 4 q 769 -1 774 0 q 758 -1 764 -1 m 663 1119 q 675 1090 675 1107 q 663 1063 675 1072 q 647 1051 656 1056 q 618 1046 636 1046 q 590 1051 600 1046 q 574 1063 581 1056 q 563 1090 563 1072 q 574 1119 563 1108 q 590 1131 581 1126 q 603 1134 596 1133 q 618 1135 611 1135 q 633 1134 626 1135 q 647 1131 640 1133 q 663 1119 656 1126 m 500 1117 q 513 1088 513 1104 q 500 1060 513 1069 q 485 1049 493 1053 q 456 1043 474 1043 q 428 1049 438 1043 q 411 1060 418 1053 q 400 1088 400 1069 q 411 1117 400 1106 q 428 1128 418 1124 q 441 1131 433 1131 q 456 1132 449 1132 q 471 1131 464 1132 q 485 1128 478 1131 q 500 1117 493 1124 z "},"ḋ":{"ha":833,"x_min":25,"x_max":783,"o":"m 781 99 q 759 33 783 61 q 697 1 735 4 l 690 1 q 630 25 656 1 q 601 85 604 49 q 599 100 600 92 q 599 115 599 108 l 590 107 q 485 35 543 60 q 365 10 428 10 q 244 35 301 10 q 142 106 186 60 q 54 253 83 167 q 32 347 39 297 q 26 450 25 396 q 128 763 33 644 q 236 850 175 818 q 367 881 301 881 q 499 849 435 881 q 572 797 542 826 q 574 878 574 839 q 575 956 574 918 q 603 1018 576 992 q 667 1043 631 1044 q 731 1015 704 1042 q 756 950 757 988 q 753 758 753 860 q 757 547 754 656 q 766 324 760 438 q 781 99 772 211 m 463 233 q 529 442 529 303 q 508 572 528 524 q 468 646 489 621 q 367 700 425 700 q 313 687 339 700 q 268 649 288 674 q 229 577 249 625 q 207 446 210 529 q 221 320 204 375 q 271 232 238 265 q 365 190 313 190 q 463 233 419 190 m 460 1022 q 472 993 472 1010 q 460 965 472 975 q 444 954 453 958 q 415 949 433 949 q 388 954 397 949 q 371 965 378 958 q 360 993 360 975 q 371 1022 360 1011 q 388 1033 378 1029 q 401 1037 393 1036 q 415 1038 408 1038 q 431 1037 424 1038 q 444 1033 438 1036 q 460 1022 453 1029 z "},"ḃ":{"ha":833,"x_min":50,"x_max":808,"o":"m 53 99 q 67 324 61 211 q 76 547 74 438 q 80 758 79 656 q 78 950 81 860 q 103 1015 76 988 q 167 1043 129 1042 q 230 1018 203 1044 q 258 956 257 992 q 260 878 260 918 q 261 797 260 839 q 335 849 292 826 q 467 881 399 881 q 597 850 532 881 q 706 763 657 818 q 807 450 800 644 q 801 347 808 396 q 779 253 794 297 q 692 106 750 167 q 590 35 647 60 q 468 10 532 10 q 348 35 406 10 q 243 107 290 60 l 235 115 q 234 100 235 108 q 232 85 233 92 q 203 25 229 49 q 143 1 178 1 l 136 1 q 74 33 99 4 q 53 99 50 61 m 371 233 q 468 190 414 190 q 563 232 521 190 q 613 320 596 265 q 626 446 629 375 q 604 577 624 529 q 565 649 585 625 q 520 687 546 674 q 467 700 494 700 q 365 646 408 700 q 325 572 344 621 q 304 442 306 524 q 371 233 304 303 m 460 1022 q 472 993 472 1010 q 460 965 472 975 q 444 954 453 958 q 415 949 433 949 q 388 954 397 949 q 371 965 378 958 q 360 993 360 975 q 371 1022 360 1011 q 388 1033 378 1029 q 401 1037 393 1036 q 415 1038 408 1038 q 431 1037 424 1038 q 444 1033 438 1036 q 460 1022 453 1029 z "},"Ḃ":{"ha":840,"x_min":74,"x_max":796,"o":"m 381 -1 q 147 26 274 -1 q 94 59 115 33 q 75 117 74 85 q 84 487 82 297 q 75 872 86 676 q 98 936 74 908 q 158 967 122 964 q 257 971 208 971 q 558 915 436 971 q 635 867 606 893 q 683 816 665 842 q 706 767 700 790 q 714 728 713 744 q 678 600 721 661 q 586 513 646 551 q 745 404 694 471 q 796 267 796 338 q 763 155 796 207 q 669 67 731 103 q 381 -1 557 -1 m 258 189 q 321 182 290 185 q 381 179 351 179 q 493 190 443 179 q 576 221 543 201 q 605 244 594 232 q 615 267 615 256 q 601 294 615 278 q 557 328 588 311 q 437 368 508 354 q 278 382 365 382 l 263 382 q 260 285 261 333 q 258 189 260 238 m 260 790 q 264 578 264 683 q 393 617 343 597 q 471 653 443 638 q 522 692 510 676 q 535 713 533 708 q 522 727 533 715 q 478 754 510 739 q 381 781 438 772 q 260 790 325 790 m 464 1117 q 476 1088 476 1104 q 464 1060 476 1069 q 449 1049 457 1053 q 419 1043 438 1043 q 392 1049 401 1043 q 375 1060 382 1053 q 364 1088 364 1069 q 375 1117 364 1106 q 392 1128 382 1124 q 405 1131 397 1131 q 419 1132 413 1132 q 435 1131 428 1132 q 449 1128 442 1131 q 464 1117 457 1124 z "},"Ḋ":{"ha":850,"x_min":72,"x_max":808,"o":"m 161 -1 q 97 29 124 1 q 75 94 72 58 q 83 496 85 275 q 81 673 83 581 q 75 876 79 765 q 100 942 72 917 q 164 969 125 969 l 168 969 q 417 929 300 969 q 613 819 529 889 q 744 661 693 753 q 801 475 793 569 q 783 310 808 389 q 699 169 757 232 q 630 110 671 140 q 531 55 589 79 q 394 15 472 31 q 215 -1 315 -1 l 161 -1 m 258 783 q 263 634 261 704 q 264 497 264 564 q 260 179 265 326 q 442 213 364 185 q 565 292 519 242 q 615 381 606 336 q 622 460 625 426 q 584 578 617 521 q 497 681 551 636 q 403 741 461 711 q 258 783 344 771 m 468 1117 q 481 1088 481 1104 q 468 1060 481 1069 q 453 1049 461 1053 q 424 1043 442 1043 q 396 1049 406 1043 q 379 1060 386 1053 q 368 1088 368 1069 q 379 1117 368 1106 q 396 1128 386 1124 q 409 1131 401 1131 q 424 1132 417 1132 q 439 1131 432 1132 q 453 1128 446 1131 q 468 1117 461 1124 z "},"Ṫ":{"ha":761,"x_min":32,"x_max":733,"o":"m 728 894 q 710 828 733 858 q 650 794 686 799 q 549 785 597 788 q 451 781 500 782 q 458 477 461 622 q 450 185 456 332 l 446 89 q 418 27 444 53 q 356 1 392 1 l 353 1 q 290 31 315 4 q 265 96 264 58 l 269 192 q 278 483 275 339 q 271 781 281 626 q 167 785 217 782 q 144 785 156 785 q 121 786 132 785 q 58 815 83 788 q 33 879 32 842 q 63 942 36 917 q 128 967 90 968 q 151 965 139 965 q 174 964 163 965 q 397 959 286 960 q 628 974 507 958 q 694 955 664 978 q 728 894 724 932 m 424 1117 q 436 1088 436 1104 q 424 1060 436 1069 q 408 1049 417 1053 q 379 1043 397 1043 q 351 1049 361 1043 q 335 1060 342 1053 q 324 1088 324 1069 q 335 1117 324 1106 q 351 1128 342 1124 q 365 1131 357 1131 q 379 1132 372 1132 q 394 1131 388 1132 q 408 1128 401 1131 q 424 1117 417 1124 z "},"ṫ":{"ha":813,"x_min":19,"x_max":796,"o":"m 706 421 q 769 392 743 419 q 794 328 796 365 q 773 212 793 267 q 717 113 753 157 q 543 6 646 29 q 476 -3 510 -3 q 382 15 424 -3 q 253 132 296 49 q 213 258 228 181 q 196 443 199 335 l 114 440 q 111 439 114 439 q 49 465 75 439 q 21 526 22 490 q 45 591 19 564 q 107 619 71 618 l 197 624 q 206 769 200 704 q 214 865 211 833 q 215 874 214 869 q 215 881 215 878 q 234 935 215 911 q 283 967 253 960 q 326 967 304 972 q 364 947 347 963 q 384 922 371 940 q 394 872 397 904 l 394 865 q 394 858 394 863 q 393 849 393 854 q 385 763 390 821 q 378 631 381 704 l 535 636 q 599 613 572 639 q 628 550 626 588 q 605 485 631 513 q 542 457 579 458 l 376 450 q 383 351 378 392 q 392 282 388 310 q 403 238 397 254 q 413 215 408 222 q 456 180 429 183 q 501 181 483 176 q 578 228 543 190 q 614 332 613 265 q 642 394 615 368 q 704 421 668 421 l 706 421 m 347 1075 q 360 1046 360 1063 q 347 1018 360 1028 q 332 1007 340 1011 q 303 1001 321 1001 q 275 1007 285 1001 q 258 1018 265 1011 q 247 1046 247 1028 q 258 1075 247 1064 q 275 1086 265 1082 q 288 1090 281 1089 q 303 1090 296 1090 q 318 1090 311 1090 q 332 1086 325 1089 q 347 1075 340 1082 m 218 857 q 217 858 218 858 q 217 860 217 858 q 222 843 219 849 q 218 857 224 838 m 215 867 l 215 871 l 215 867 z "},"Ċ":{"ha":829,"x_min":53,"x_max":782,"o":"m 433 -3 q 381 1 407 -3 q 251 44 310 11 q 149 135 192 78 q 56 472 53 258 q 157 840 58 713 q 271 936 204 901 q 400 969 331 965 q 510 959 456 972 q 614 918 565 946 q 701 844 668 886 q 739 756 733 801 q 720 689 743 718 q 660 656 697 660 q 595 672 624 650 q 560 731 567 694 q 543 749 557 736 q 504 772 529 761 q 445 788 475 785 q 388 786 415 792 q 309 740 339 776 q 263 658 279 704 q 242 560 247 611 q 236 469 236 510 q 292 244 233 321 q 404 181 335 189 q 472 182 438 176 q 539 203 507 188 q 581 231 567 217 q 597 256 594 246 q 639 311 607 292 q 707 321 671 331 q 763 279 743 311 q 772 211 782 247 q 713 108 758 156 q 670 72 693 89 q 619 42 647 56 q 433 -3 531 -3 m 458 1117 q 471 1088 471 1104 q 458 1060 471 1069 q 443 1049 451 1053 q 414 1043 432 1043 q 386 1049 396 1043 q 369 1060 376 1053 q 358 1088 358 1069 q 369 1117 358 1106 q 386 1128 376 1124 q 399 1131 392 1131 q 414 1132 407 1132 q 429 1131 422 1132 q 443 1128 436 1131 q 458 1117 451 1124 z "},"ċ":{"ha":801,"x_min":38,"x_max":767,"o":"m 392 -3 q 288 14 338 -3 q 182 71 229 32 q 103 167 135 110 q 43 465 38 286 q 139 810 50 676 q 238 912 181 872 q 363 964 296 951 q 466 966 414 975 q 564 932 518 957 q 704 775 660 879 q 705 706 719 740 q 656 657 690 672 q 587 656 621 642 q 538 704 553 669 q 479 773 518 750 q 396 788 440 796 q 289 710 333 775 q 242 602 258 665 q 222 460 225 539 q 224 385 221 426 q 240 303 228 343 q 276 230 253 263 q 342 185 300 197 q 408 178 372 175 q 479 197 444 182 q 544 235 514 211 q 596 289 575 258 q 652 328 615 321 q 721 315 689 335 q 759 258 751 294 q 746 190 767 221 q 658 95 710 138 q 544 28 607 53 q 468 5 507 13 q 392 -3 429 -3 m 438 1117 q 450 1088 450 1104 q 438 1060 450 1069 q 422 1049 431 1053 q 393 1043 411 1043 q 365 1049 375 1043 q 349 1060 356 1053 q 338 1088 338 1069 q 349 1117 338 1106 q 365 1128 356 1124 q 378 1131 371 1131 q 393 1132 386 1132 q 408 1131 401 1132 q 422 1128 415 1131 q 438 1117 431 1124 z "},"À":{"ha":903,"x_min":53,"x_max":839,"o":"m 828 397 q 836 281 833 336 q 839 183 839 225 q 838 115 839 140 q 838 88 838 89 q 809 26 835 51 q 747 1 783 1 l 743 1 q 681 31 706 4 q 657 96 656 58 q 658 114 657 96 q 658 162 658 132 q 657 233 658 192 q 653 319 656 274 q 563 315 607 317 q 474 313 518 313 q 362 315 417 313 q 253 319 307 317 q 242 228 246 271 q 238 155 239 186 q 235 105 236 124 q 235 86 235 86 q 207 24 233 50 q 144 -3 181 -3 l 143 -3 q 79 26 106 -1 q 54 89 53 53 q 56 128 54 92 q 61 223 57 165 q 75 353 65 281 q 101 503 85 426 q 210 803 142 693 q 275 887 240 854 q 344 938 310 919 q 410 963 378 956 q 469 969 442 969 q 664 885 582 969 q 782 656 739 806 q 828 397 813 544 m 285 499 q 458 493 372 494 q 633 499 544 492 q 533 760 600 689 q 469 789 506 789 q 402 758 432 789 q 349 683 372 728 q 310 589 326 639 q 285 499 294 539 m 526 983 q 501 988 514 983 q 479 1001 489 992 q 450 1033 464 1017 q 421 1065 436 1049 q 389 1103 406 1085 q 353 1142 372 1122 q 331 1190 332 1161 q 350 1239 331 1218 q 399 1260 371 1260 q 449 1240 428 1260 q 491 1197 472 1218 q 526 1156 510 1175 q 552 1126 540 1140 q 575 1101 564 1113 q 596 1053 596 1082 q 576 1004 596 1025 q 526 983 557 983 z "},"à":{"ha":894,"x_min":39,"x_max":843,"o":"m 840 96 q 819 30 843 58 q 757 -1 794 1 l 750 -1 q 688 22 714 -1 q 660 82 663 46 q 658 97 660 92 q 653 90 657 94 q 605 50 631 67 q 551 21 579 33 q 435 -1 492 -1 q 365 6 399 -1 q 296 29 331 14 q 233 66 263 44 q 176 115 203 88 q 73 283 107 186 q 42 492 39 379 q 53 592 44 543 q 78 685 61 640 q 164 835 110 771 q 289 935 218 900 q 435 971 360 971 q 635 893 549 971 q 666 949 640 926 q 726 969 692 971 q 789 941 763 968 q 814 876 815 914 q 817 460 807 657 q 840 96 826 264 m 525 218 q 581 323 561 256 q 600 481 600 390 q 588 608 600 551 q 553 706 575 665 q 502 769 532 747 q 435 790 472 790 q 361 769 399 790 q 294 709 324 749 q 244 613 264 669 q 222 486 224 557 q 241 348 219 411 q 306 240 263 285 q 367 195 333 211 q 435 179 401 179 q 525 218 488 179 m 499 983 q 474 988 486 983 q 451 1001 461 992 q 422 1033 436 1017 q 393 1065 408 1049 q 361 1103 378 1085 q 325 1142 344 1122 q 303 1190 304 1161 q 322 1239 303 1218 q 372 1260 343 1260 q 421 1240 400 1260 q 463 1197 444 1218 q 499 1156 482 1175 q 524 1126 513 1140 q 547 1101 536 1113 q 568 1053 568 1082 q 549 1004 568 1025 q 499 983 529 983 z "},"È":{"ha":839,"x_min":68,"x_max":774,"o":"m 476 789 q 332 788 379 793 q 268 776 285 782 q 259 672 264 738 q 251 529 254 606 q 442 529 347 526 q 628 543 536 532 q 693 524 664 547 q 726 463 722 500 q 707 396 731 425 q 647 364 683 367 q 344 347 499 347 q 297 347 321 347 q 250 349 274 347 q 258 240 253 278 q 265 186 263 201 q 333 181 285 183 q 474 182 381 178 q 544 185 511 183 q 604 190 578 188 q 647 193 631 192 q 663 194 663 194 q 728 175 699 199 q 761 114 757 151 q 742 49 765 78 q 681 15 718 19 q 661 14 679 15 q 614 10 643 13 q 547 6 585 8 q 469 1 510 3 q 422 -1 444 0 q 376 -1 399 -1 q 339 -1 357 -1 q 304 0 321 0 q 158 33 201 6 q 96 122 117 60 q 86 163 90 140 q 78 213 82 185 q 71 313 74 257 q 69 438 68 368 q 72 558 69 497 q 78 670 75 618 q 85 763 82 722 q 93 826 89 804 q 115 882 97 857 q 161 925 133 907 q 200 944 179 936 q 249 957 221 951 q 332 968 285 964 q 438 971 379 972 q 529 968 485 971 q 609 962 574 965 q 666 956 644 958 q 690 953 688 953 q 751 918 728 947 q 768 851 774 889 q 734 792 764 815 q 667 774 704 769 q 651 776 667 774 q 608 781 635 778 q 548 785 582 783 q 476 789 514 788 m 494 983 q 469 988 482 983 q 447 1001 457 992 q 418 1033 432 1017 q 389 1065 404 1049 q 357 1103 374 1085 q 321 1142 340 1122 q 299 1190 300 1161 q 318 1239 299 1218 q 367 1260 339 1260 q 417 1240 396 1260 q 459 1197 440 1218 q 494 1156 478 1175 q 520 1126 508 1140 q 543 1101 532 1113 q 564 1053 564 1082 q 544 1004 564 1025 q 494 983 525 983 z "},"è":{"ha":799,"x_min":33,"x_max":754,"o":"m 421 -1 q 294 19 354 -1 q 104 186 169 64 q 46 508 33 314 q 81 697 53 611 q 160 844 110 782 q 272 939 207 904 q 410 971 340 972 q 543 933 481 968 q 650 832 607 894 q 719 681 696 768 q 746 489 743 593 q 717 421 746 450 q 647 397 686 394 q 498 401 572 404 q 344 392 424 397 q 288 388 317 389 q 229 385 258 386 q 263 272 238 318 q 354 190 293 213 q 490 190 418 169 q 547 215 522 199 q 586 250 572 231 q 644 287 607 281 q 711 271 681 293 q 748 213 742 250 q 733 146 754 176 q 652 69 701 101 q 542 17 603 36 q 481 3 511 8 q 421 -1 451 -1 m 403 790 q 301 732 347 790 q 263 669 282 708 q 233 565 244 629 q 282 568 257 567 q 332 572 307 569 q 443 578 388 575 q 557 582 499 582 q 533 672 549 636 q 503 729 518 707 q 404 790 460 790 l 403 790 m 468 983 q 443 988 456 983 q 421 1001 431 992 q 392 1033 406 1017 q 363 1065 378 1049 q 331 1103 347 1085 q 294 1142 314 1122 q 273 1190 274 1161 q 292 1239 272 1218 q 341 1260 313 1260 q 390 1240 369 1260 q 433 1197 414 1218 q 468 1156 451 1175 q 494 1126 482 1140 q 517 1101 506 1113 q 538 1053 538 1082 q 518 1004 538 1025 q 468 983 499 983 z "},"Ì":{"ha":801,"x_min":63,"x_max":735,"o":"m 638 189 q 700 163 674 189 q 726 100 726 136 q 701 35 728 63 q 639 8 675 8 q 569 6 603 7 q 503 3 536 6 q 424 -1 463 0 q 347 -3 386 -3 q 244 1 296 -3 q 139 18 192 6 q 83 57 103 25 q 69 125 63 89 q 110 181 78 161 q 178 194 142 201 q 232 185 206 188 q 286 179 258 182 q 290 410 290 300 q 286 636 289 521 q 285 706 286 671 q 285 776 285 740 q 274 777 279 776 q 264 778 269 778 q 213 780 238 779 q 163 782 188 781 q 99 809 125 782 q 75 874 74 836 q 102 937 75 911 q 167 963 129 963 q 219 960 193 961 q 272 958 244 960 q 442 953 356 954 q 625 968 529 953 q 692 953 663 975 q 729 893 722 931 q 713 826 735 857 q 654 790 692 796 q 557 778 604 782 q 465 774 510 775 q 466 706 465 739 q 467 639 467 672 q 470 417 469 529 q 467 182 471 304 q 481 182 474 182 q 494 183 488 182 q 563 186 528 185 q 635 189 599 188 l 638 189 m 464 975 q 439 979 451 975 q 417 993 426 983 q 388 1024 401 1008 q 358 1057 374 1040 q 326 1095 343 1076 q 290 1133 310 1114 q 269 1181 269 1153 q 288 1231 268 1210 q 337 1251 308 1251 q 386 1232 365 1251 q 428 1188 410 1210 q 464 1147 447 1167 q 490 1118 478 1132 q 513 1093 501 1104 q 533 1045 533 1074 q 514 996 533 1017 q 464 975 494 975 z "},"ì":{"ha":365,"x_min":24,"x_max":329,"o":"m 315 610 q 327 443 329 526 q 321 283 325 360 q 317 182 318 231 q 321 101 315 133 q 304 34 326 64 q 244 -1 282 4 q 231 -3 240 -3 q 173 19 199 -3 q 142 74 147 40 q 136 176 135 121 q 142 293 138 232 q 146 437 144 363 q 136 581 147 511 q 153 647 131 617 q 211 685 175 678 q 278 668 247 690 q 315 610 308 646 m 219 724 q 194 728 207 724 q 172 742 182 732 q 143 773 157 757 q 114 806 129 789 q 82 844 99 825 q 46 882 65 863 q 24 930 25 901 q 43 979 24 958 q 92 1000 64 1000 q 142 981 121 1000 q 184 937 165 958 q 219 896 203 915 q 245 867 233 881 q 268 842 257 853 q 289 794 289 822 q 269 744 289 765 q 219 724 250 724 z "},"Ò":{"ha":972,"x_min":51,"x_max":915,"o":"m 503 0 q 343 31 418 0 q 201 124 263 64 q 100 272 139 185 q 56 469 60 364 q 85 678 51 582 q 183 838 117 767 q 326 937 246 901 q 494 972 407 972 q 651 941 578 972 q 781 851 724 910 q 875 698 842 788 q 913 500 908 608 q 904 365 915 425 q 874 258 893 304 q 832 176 856 211 q 786 118 808 142 q 658 30 731 60 q 503 0 585 0 m 494 792 q 397 771 444 792 q 314 713 350 750 q 253 610 272 669 q 236 478 233 550 q 263 349 239 404 q 325 256 288 293 q 409 199 363 218 q 503 181 456 181 q 657 243 594 181 q 732 493 739 329 q 707 632 729 575 q 651 724 685 689 q 577 776 618 760 q 494 792 536 792 m 551 983 q 526 988 539 983 q 504 1001 514 992 q 475 1033 489 1017 q 446 1065 461 1049 q 414 1103 431 1085 q 378 1142 397 1122 q 356 1190 357 1161 q 375 1239 356 1218 q 424 1260 396 1260 q 474 1240 453 1260 q 516 1197 497 1218 q 551 1156 535 1175 q 577 1126 565 1140 q 600 1101 589 1113 q 621 1053 621 1082 q 601 1004 621 1025 q 551 983 582 983 z "},"ò":{"ha":957,"x_min":39,"x_max":913,"o":"m 503 -1 q 339 29 418 -1 q 263 69 299 46 q 194 122 226 92 q 88 271 128 185 q 42 468 46 360 q 47 573 39 522 q 71 672 54 624 q 169 829 106 763 q 317 933 233 897 q 493 969 401 969 q 649 939 576 969 q 779 850 722 908 q 872 700 840 785 q 899 605 889 656 q 910 497 908 554 q 902 362 913 422 q 873 254 892 301 q 831 173 854 207 q 785 115 807 139 q 658 28 731 58 q 503 -1 586 -1 m 493 790 q 390 768 440 790 q 300 706 339 746 q 244 619 271 674 q 221 476 218 564 q 251 349 225 404 q 317 255 278 293 q 406 197 357 217 q 503 178 454 178 q 656 240 596 178 q 715 344 696 281 q 731 492 733 408 q 706 631 728 574 q 650 723 683 688 q 576 774 617 758 q 493 790 535 790 m 558 983 q 533 988 546 983 q 511 1001 521 992 q 482 1033 496 1017 q 453 1065 468 1049 q 421 1103 438 1085 q 385 1142 404 1122 q 363 1190 364 1161 q 382 1239 363 1218 q 431 1260 403 1260 q 481 1240 460 1260 q 523 1197 504 1218 q 558 1156 542 1175 q 584 1126 572 1140 q 607 1101 596 1113 q 628 1053 628 1082 q 608 1004 628 1025 q 558 983 589 983 z "},"Ù":{"ha":836,"x_min":51,"x_max":772,"o":"m 408 -1 q 190 99 278 1 q 114 235 144 151 q 90 316 100 272 q 75 408 81 360 q 85 876 51 601 q 118 936 89 913 q 185 956 147 960 q 244 921 221 950 q 264 856 268 892 q 246 620 249 726 q 254 431 243 514 q 286 288 265 336 q 326 218 307 239 q 411 179 357 181 q 496 219 460 179 q 540 292 515 243 q 579 438 564 342 q 592 634 593 526 q 576 871 592 742 q 595 937 572 907 q 656 971 618 967 q 722 952 693 975 q 756 892 751 929 q 772 631 772 751 q 757 410 772 510 q 629 99 725 203 q 413 -1 540 -1 l 408 -1 m 481 971 q 456 975 468 971 q 433 989 443 979 q 404 1020 418 1004 q 375 1053 390 1036 q 343 1091 360 1072 q 307 1129 326 1110 q 285 1177 286 1149 q 304 1226 285 1206 q 353 1247 325 1247 q 403 1228 382 1247 q 445 1184 426 1206 q 481 1143 464 1163 q 506 1114 494 1128 q 529 1089 518 1100 q 550 1041 550 1069 q 531 992 550 1013 q 481 971 511 971 z "},"ù":{"ha":824,"x_min":47,"x_max":776,"o":"m 633 974 q 694 949 669 972 q 722 889 719 925 l 774 113 q 751 47 776 75 q 689 17 726 19 q 624 39 651 14 q 593 101 596 64 l 585 225 q 558 168 572 194 q 476 54 521 94 q 399 9 436 18 q 335 1 363 0 q 274 17 308 4 q 203 69 239 31 q 133 188 161 115 q 68 479 89 297 q 54 624 58 553 q 49 749 50 694 q 47 840 47 804 q 47 878 47 875 q 74 940 49 914 q 138 967 100 967 q 139 965 139 967 q 202 938 176 965 q 228 874 228 911 q 228 841 228 874 q 229 756 228 808 q 235 635 231 703 q 247 499 239 568 q 301 253 267 339 q 331 198 318 213 q 347 182 343 183 q 362 194 349 183 q 394 242 375 206 q 438 347 414 279 q 486 528 461 414 q 512 661 501 596 q 529 777 522 726 q 540 860 536 828 q 543 892 543 892 q 572 950 546 926 q 632 974 597 974 l 633 974 m 456 983 q 431 988 443 983 q 408 1001 418 992 q 379 1033 393 1017 q 350 1065 365 1049 q 318 1103 335 1085 q 282 1142 301 1122 q 260 1190 261 1161 q 279 1239 260 1218 q 328 1260 300 1260 q 378 1240 357 1260 q 420 1197 401 1218 q 456 1156 439 1175 q 481 1126 469 1140 q 504 1101 493 1113 q 525 1053 525 1082 q 506 1004 525 1025 q 456 983 486 983 z "},":":{"ha":300,"x_min":46,"x_max":253,"o":"m 217 488 q 149 469 190 469 q 113 474 129 469 q 83 488 96 478 q 69 499 76 493 q 57 511 63 506 q 46 556 46 529 q 48 580 46 568 q 57 600 50 592 q 69 613 63 607 q 83 625 76 619 q 113 639 96 636 q 149 642 129 642 q 185 639 168 642 q 217 625 203 636 q 231 613 224 619 q 243 600 238 607 q 251 580 250 592 q 251 556 251 568 q 251 533 251 543 q 243 511 250 522 q 231 499 238 506 q 217 488 224 493 m 218 28 q 150 10 192 10 q 114 14 131 10 q 85 28 97 18 q 71 40 78 33 q 58 51 64 46 q 47 96 47 69 q 49 120 47 108 q 58 140 51 132 q 71 153 64 147 q 85 165 78 160 q 114 179 97 176 q 150 182 131 182 q 187 179 169 182 q 218 165 204 176 q 232 153 225 160 q 244 140 239 147 q 252 120 251 132 q 253 96 253 108 q 252 73 253 83 q 244 51 251 63 q 232 40 239 46 q 218 28 225 33 z "},"Ŀ":{"ha":746,"x_min":71,"x_max":735,"o":"m 399 -1 q 306 1 343 -1 q 244 6 268 3 q 208 11 221 8 q 189 15 194 14 q 156 29 175 18 q 121 64 138 40 q 96 115 106 85 q 84 165 89 138 q 76 226 79 192 q 71 349 71 279 q 74 504 71 418 q 80 644 75 576 q 89 766 85 713 q 97 853 93 819 q 100 890 100 888 q 132 950 103 926 q 199 971 161 974 q 260 938 236 967 q 279 872 283 908 q 276 844 279 871 q 270 772 274 817 q 263 667 267 726 q 256 546 258 608 q 251 410 253 471 q 253 300 250 349 q 258 226 256 254 q 264 185 261 199 q 341 180 294 181 q 439 180 388 179 q 542 183 490 181 q 636 188 593 185 q 701 165 674 190 q 732 103 729 140 q 710 38 735 65 q 649 7 685 10 q 632 6 647 7 q 592 4 617 6 q 535 1 567 3 q 467 0 503 0 q 431 -1 447 -1 q 399 -1 414 -1 m 633 364 q 593 347 617 347 q 554 364 568 347 q 546 374 550 368 q 539 385 542 379 q 532 425 532 400 q 533 447 532 436 q 539 464 535 457 q 554 486 544 476 q 572 499 561 496 q 593 501 582 501 q 615 499 604 501 q 633 486 625 496 q 649 464 643 476 q 653 447 653 457 q 654 425 654 436 q 653 404 654 414 q 649 385 653 394 q 642 374 646 379 q 633 364 638 368 z "},"ŀ":{"ha":494,"x_min":49,"x_max":451,"o":"m 150 -1 q 90 22 115 -1 q 61 81 64 44 q 49 313 49 201 q 53 542 50 424 q 58 737 56 638 q 53 944 60 836 q 75 1010 50 982 q 138 1040 100 1038 q 203 1017 175 1043 q 233 956 231 992 q 238 739 240 842 q 233 536 236 636 q 230 317 231 424 q 240 97 229 210 q 219 32 243 61 q 160 -1 196 3 l 150 -1 m 431 371 q 390 354 414 354 q 351 371 365 354 q 343 381 347 375 q 336 392 339 386 q 329 432 329 407 q 331 453 329 443 q 336 471 332 464 q 351 493 342 483 q 369 506 358 503 q 390 508 379 508 q 412 506 401 508 q 431 493 422 503 q 446 471 440 483 q 451 453 450 464 q 451 432 451 443 q 451 411 451 421 q 446 392 450 401 q 439 381 443 386 q 431 371 435 375 z "},"/":{"ha":518,"x_min":17,"x_max":503,"o":"m 436 961 q 441 960 439 960 q 446 958 443 960 q 491 906 479 940 q 488 836 503 871 q 439 728 463 786 q 393 610 415 671 q 351 491 371 550 q 313 379 331 432 q 286 296 297 332 q 263 224 275 260 q 234 150 250 189 q 196 58 218 111 q 147 11 182 25 q 78 13 113 -3 q 30 62 43 28 q 32 131 17 96 q 67 217 53 181 q 92 286 81 253 q 115 354 104 319 q 142 435 126 389 q 181 552 160 490 q 226 676 203 614 q 274 799 249 739 q 325 914 299 860 q 372 959 340 946 q 436 961 404 972 z "},"\\":{"ha":518,"x_min":15,"x_max":501,"o":"m 82 961 q 146 959 114 972 q 193 914 178 946 q 244 799 219 860 q 292 676 269 739 q 337 552 315 614 q 376 435 358 490 q 403 354 392 389 q 426 286 414 319 q 451 217 438 253 q 486 131 465 181 q 488 62 501 96 q 440 13 475 28 q 371 11 406 -3 q 322 58 336 25 q 283 150 299 111 q 256 224 268 189 q 232 296 243 260 q 206 379 221 332 q 167 491 188 432 q 125 610 147 550 q 79 728 103 671 q 31 836 56 786 q 27 906 15 871 q 72 958 39 940 q 77 960 75 960 q 82 961 79 960 z "},"Ø":{"ha":972,"x_min":51,"x_max":915,"o":"m 503 0 q 442 3 472 0 q 383 15 413 7 q 304 13 346 -4 q 267 40 281 22 q 250 82 253 58 q 201 124 222 103 q 100 272 139 185 q 56 469 60 364 q 85 678 51 582 q 183 838 117 767 q 326 937 246 901 q 494 972 407 972 q 597 958 550 972 q 663 961 629 972 q 667 960 665 960 q 672 958 669 960 q 718 904 707 939 q 781 851 749 883 q 875 698 842 788 q 913 500 908 608 q 904 365 915 425 q 874 258 893 304 q 832 176 856 211 q 786 118 808 142 q 658 30 731 60 q 503 0 585 0 m 539 379 q 506 274 519 318 q 474 182 492 229 q 488 181 481 181 q 503 181 496 181 q 657 243 594 181 q 732 493 739 329 q 710 625 729 571 q 660 715 690 679 q 595 544 626 632 q 539 379 564 456 m 494 792 q 397 771 444 792 q 314 713 350 750 q 253 610 272 669 q 236 478 233 550 q 260 358 239 410 q 313 268 281 306 q 338 344 326 307 q 368 435 350 382 q 428 610 394 517 q 497 792 461 703 l 494 792 z "},"ø":{"ha":957,"x_min":39,"x_max":913,"o":"m 503 -1 q 376 17 436 -1 q 296 13 339 -6 q 258 40 272 22 q 242 82 244 58 q 217 101 229 90 q 194 122 206 111 q 88 271 128 185 q 42 468 46 360 q 47 573 39 522 q 71 672 54 624 q 169 829 106 763 q 317 933 233 897 q 493 969 401 969 q 588 958 539 969 q 620 966 603 965 q 654 961 638 967 q 659 960 657 960 q 664 958 661 960 q 708 907 694 942 q 779 850 744 885 q 872 700 840 785 q 899 605 889 656 q 910 497 908 554 q 902 362 913 422 q 873 254 892 301 q 831 173 854 207 q 785 115 807 139 q 658 28 731 58 q 503 -1 586 -1 m 531 379 q 497 274 511 318 q 464 181 482 229 q 483 178 474 179 q 503 178 493 178 q 656 240 596 178 q 715 344 696 281 q 731 492 733 408 q 706 628 728 572 q 653 719 685 683 q 588 546 618 635 q 531 379 557 457 m 360 435 q 419 609 386 517 q 488 790 451 701 q 386 767 435 789 q 300 706 338 744 q 244 619 271 674 q 221 476 218 564 q 246 358 224 410 q 304 268 268 306 q 330 344 318 307 q 360 435 342 382 z "},"ˆ":{"ha":478,"x_min":36,"x_max":443,"o":"m 371 700 q 342 706 356 700 q 318 724 329 711 q 270 776 294 751 q 226 818 246 801 q 199 781 214 803 q 171 738 183 760 q 128 706 156 713 q 75 714 100 699 q 43 757 50 729 q 51 810 36 785 q 66 832 53 811 q 99 879 79 853 q 158 946 129 921 q 221 971 186 971 q 278 952 249 971 q 357 885 308 933 q 403 838 383 858 q 424 815 422 817 q 441 765 443 793 q 417 717 439 736 q 371 700 396 700 z "},"ˇ":{"ha":476,"x_min":36,"x_max":443,"o":"m 371 965 q 417 949 396 965 q 441 901 439 929 q 424 850 443 872 q 403 828 422 849 q 357 781 383 807 q 278 713 308 732 q 221 694 249 694 q 158 719 186 694 q 99 786 129 744 q 66 833 79 813 q 51 856 53 854 q 43 908 36 881 q 75 951 50 936 q 128 960 100 967 q 171 928 156 953 q 199 884 183 906 q 226 847 214 863 q 270 889 246 864 q 318 942 294 914 q 342 960 329 954 q 371 965 356 965 z "},"Â":{"ha":903,"x_min":53,"x_max":839,"o":"m 828 397 q 836 281 833 336 q 839 183 839 225 q 838 115 839 140 q 838 88 838 89 q 809 26 835 51 q 747 1 783 1 l 743 1 q 681 31 706 4 q 657 96 656 58 q 658 114 657 96 q 658 162 658 132 q 657 233 658 192 q 653 319 656 274 q 563 315 607 317 q 474 313 518 313 q 362 315 417 313 q 253 319 307 317 q 242 228 246 271 q 238 155 239 186 q 235 105 236 124 q 235 86 235 86 q 207 24 233 50 q 144 -3 181 -3 l 143 -3 q 79 26 106 -1 q 54 89 53 53 q 56 128 54 92 q 61 223 57 165 q 75 353 65 281 q 101 503 85 426 q 210 803 142 693 q 275 887 240 854 q 344 938 310 919 q 410 963 378 956 q 469 969 442 969 q 664 885 582 969 q 782 656 739 806 q 828 397 813 544 m 285 499 q 458 493 372 494 q 633 499 544 492 q 533 760 600 689 q 469 789 506 789 q 402 758 432 789 q 349 683 372 728 q 310 589 326 639 q 285 499 294 539 m 593 978 q 565 983 578 978 q 540 1001 551 989 q 492 1054 517 1029 q 449 1096 468 1079 q 421 1059 436 1081 q 393 1015 406 1038 q 350 983 378 990 q 297 992 322 976 q 265 1035 272 1007 q 274 1088 258 1063 q 288 1110 275 1089 q 321 1157 301 1131 q 380 1224 351 1199 q 443 1249 408 1249 q 501 1230 471 1249 q 579 1163 531 1211 q 625 1115 606 1136 q 646 1093 644 1094 q 663 1042 665 1071 q 639 994 661 1014 q 593 978 618 978 z "},"Ê":{"ha":839,"x_min":68,"x_max":774,"o":"m 476 789 q 332 788 379 793 q 268 776 285 782 q 259 672 264 738 q 251 529 254 606 q 442 529 347 526 q 628 543 536 532 q 693 524 664 547 q 726 463 722 500 q 707 396 731 425 q 647 364 683 367 q 344 347 499 347 q 297 347 321 347 q 250 349 274 347 q 258 240 253 278 q 265 186 263 201 q 333 181 285 183 q 474 182 381 178 q 544 185 511 183 q 604 190 578 188 q 647 193 631 192 q 663 194 663 194 q 728 175 699 199 q 761 114 757 151 q 742 49 765 78 q 681 15 718 19 q 661 14 679 15 q 614 10 643 13 q 547 6 585 8 q 469 1 510 3 q 422 -1 444 0 q 376 -1 399 -1 q 339 -1 357 -1 q 304 0 321 0 q 158 33 201 6 q 96 122 117 60 q 86 163 90 140 q 78 213 82 185 q 71 313 74 257 q 69 438 68 368 q 72 558 69 497 q 78 670 75 618 q 85 763 82 722 q 93 826 89 804 q 115 882 97 857 q 161 925 133 907 q 200 944 179 936 q 249 957 221 951 q 332 968 285 964 q 438 971 379 972 q 529 968 485 971 q 609 962 574 965 q 666 956 644 958 q 690 953 688 953 q 751 918 728 947 q 768 851 774 889 q 734 792 764 815 q 667 774 704 769 q 651 776 667 774 q 608 781 635 778 q 548 785 582 783 q 476 789 514 788 m 563 983 q 534 989 547 983 q 510 1007 521 994 q 462 1060 486 1035 q 418 1101 438 1085 q 390 1065 406 1086 q 363 1021 375 1043 q 319 989 347 996 q 267 997 292 982 q 235 1040 242 1013 q 243 1093 228 1068 q 258 1115 244 1094 q 290 1163 271 1136 q 349 1229 321 1204 q 413 1254 378 1254 q 470 1235 440 1254 q 549 1168 500 1217 q 594 1121 575 1142 q 615 1099 614 1100 q 633 1048 635 1076 q 608 1000 631 1019 q 563 983 588 983 z "},"Î":{"ha":801,"x_min":63,"x_max":735,"o":"m 638 189 q 700 163 674 189 q 726 100 726 136 q 701 35 728 63 q 639 8 675 8 q 569 6 603 7 q 503 3 536 6 q 424 -1 463 0 q 347 -3 386 -3 q 244 1 296 -3 q 139 18 192 6 q 83 57 103 25 q 69 125 63 89 q 110 181 78 161 q 178 194 142 201 q 232 185 206 188 q 286 179 258 182 q 290 410 290 300 q 286 636 289 521 q 285 706 286 671 q 285 776 285 740 q 274 777 279 776 q 264 778 269 778 q 213 780 238 779 q 163 782 188 781 q 99 809 125 782 q 75 874 74 836 q 102 937 75 911 q 167 963 129 963 q 219 960 193 961 q 272 958 244 960 q 442 953 356 954 q 625 968 529 953 q 692 953 663 975 q 729 893 722 931 q 713 826 735 857 q 654 790 692 796 q 557 778 604 782 q 465 774 510 775 q 466 706 465 739 q 467 639 467 672 q 470 417 469 529 q 467 182 471 304 q 481 182 474 182 q 494 183 488 182 q 563 186 528 185 q 635 189 599 188 l 638 189 m 531 983 q 502 989 515 983 q 478 1007 489 994 q 430 1060 454 1035 q 386 1101 406 1085 q 358 1065 374 1086 q 331 1021 343 1043 q 288 989 315 996 q 235 997 260 982 q 203 1040 210 1013 q 211 1093 196 1068 q 226 1115 213 1094 q 258 1163 239 1136 q 317 1229 289 1204 q 381 1254 346 1254 q 438 1235 408 1254 q 517 1168 468 1217 q 563 1121 543 1142 q 583 1099 582 1100 q 601 1048 603 1076 q 576 1000 599 1019 q 531 983 556 983 z "},"Ô":{"ha":972,"x_min":51,"x_max":915,"o":"m 503 0 q 343 31 418 0 q 201 124 263 64 q 100 272 139 185 q 56 469 60 364 q 85 678 51 582 q 183 838 117 767 q 326 937 246 901 q 494 972 407 972 q 651 941 578 972 q 781 851 724 910 q 875 698 842 788 q 913 500 908 608 q 904 365 915 425 q 874 258 893 304 q 832 176 856 211 q 786 118 808 142 q 658 30 731 60 q 503 0 585 0 m 494 792 q 397 771 444 792 q 314 713 350 750 q 253 610 272 669 q 236 478 233 550 q 263 349 239 404 q 325 256 288 293 q 409 199 363 218 q 503 181 456 181 q 657 243 594 181 q 732 493 739 329 q 707 632 729 575 q 651 724 685 689 q 577 776 618 760 q 494 792 536 792 m 617 982 q 588 988 601 982 q 564 1006 575 993 q 516 1058 540 1033 q 472 1100 492 1083 q 444 1063 460 1085 q 417 1019 429 1042 q 374 988 401 994 q 321 996 346 981 q 289 1039 296 1011 q 297 1092 282 1067 q 312 1114 299 1093 q 344 1161 325 1135 q 403 1228 375 1203 q 467 1253 432 1253 q 524 1234 494 1253 q 603 1167 554 1215 q 649 1119 629 1140 q 669 1097 668 1099 q 687 1047 689 1075 q 663 999 685 1018 q 617 982 642 982 z "},"Û":{"ha":836,"x_min":51,"x_max":772,"o":"m 408 -1 q 190 99 278 1 q 114 235 144 151 q 90 316 100 272 q 75 408 81 360 q 85 876 51 601 q 118 936 89 913 q 185 956 147 960 q 244 921 221 950 q 264 856 268 892 q 246 620 249 726 q 254 431 243 514 q 286 288 265 336 q 326 218 307 239 q 411 179 357 181 q 496 219 460 179 q 540 292 515 243 q 579 438 564 342 q 592 634 593 526 q 576 871 592 742 q 595 937 572 907 q 656 971 618 967 q 722 952 693 975 q 756 892 751 929 q 772 631 772 751 q 757 410 772 510 q 629 99 725 203 q 413 -1 540 -1 l 408 -1 m 549 978 q 520 983 533 978 q 496 1001 507 989 q 448 1054 472 1029 q 404 1096 424 1079 q 376 1059 392 1081 q 349 1015 361 1038 q 306 983 333 990 q 253 992 278 976 q 221 1035 228 1007 q 229 1088 214 1063 q 244 1110 231 1089 q 276 1157 257 1131 q 335 1224 307 1199 q 399 1249 364 1249 q 456 1230 426 1249 q 535 1163 486 1211 q 581 1115 561 1136 q 601 1093 600 1094 q 619 1042 621 1071 q 594 994 617 1014 q 549 978 574 978 z "},"â":{"ha":894,"x_min":39,"x_max":843,"o":"m 840 96 q 819 30 843 58 q 757 -1 794 1 l 750 -1 q 688 22 714 -1 q 660 82 663 46 q 658 97 660 92 q 653 90 657 94 q 605 50 631 67 q 551 21 579 33 q 435 -1 492 -1 q 365 6 399 -1 q 296 29 331 14 q 233 66 263 44 q 176 115 203 88 q 73 283 107 186 q 42 492 39 379 q 53 592 44 543 q 78 685 61 640 q 164 835 110 771 q 289 935 218 900 q 435 971 360 971 q 635 893 549 971 q 666 949 640 926 q 726 969 692 971 q 789 941 763 968 q 814 876 815 914 q 817 460 807 657 q 840 96 826 264 m 525 218 q 581 323 561 256 q 600 481 600 390 q 588 608 600 551 q 553 706 575 665 q 502 769 532 747 q 435 790 472 790 q 361 769 399 790 q 294 709 324 749 q 244 613 264 669 q 222 486 224 557 q 241 348 219 411 q 306 240 263 285 q 367 195 333 211 q 435 179 401 179 q 525 218 488 179 m 544 978 q 516 983 529 978 q 492 1001 503 989 q 444 1054 468 1029 q 400 1096 419 1079 q 372 1059 388 1081 q 344 1015 357 1038 q 301 983 329 990 q 249 992 274 976 q 217 1035 224 1007 q 225 1088 210 1063 q 240 1110 226 1089 q 272 1157 253 1131 q 331 1224 303 1199 q 394 1249 360 1249 q 452 1230 422 1249 q 531 1163 482 1211 q 576 1115 557 1136 q 597 1093 596 1094 q 615 1042 617 1071 q 590 994 613 1014 q 544 978 569 978 z "},"ê":{"ha":799,"x_min":33,"x_max":754,"o":"m 421 -1 q 294 19 354 -1 q 104 186 169 64 q 46 508 33 314 q 81 697 53 611 q 160 844 110 782 q 272 939 207 904 q 410 971 340 972 q 543 933 481 968 q 650 832 607 894 q 719 681 696 768 q 746 489 743 593 q 717 421 746 450 q 647 397 686 394 q 498 401 572 404 q 344 392 424 397 q 288 388 317 389 q 229 385 258 386 q 263 272 238 318 q 354 190 293 213 q 490 190 418 169 q 547 215 522 199 q 586 250 572 231 q 644 287 607 281 q 711 271 681 293 q 748 213 742 250 q 733 146 754 176 q 652 69 701 101 q 542 17 603 36 q 481 3 511 8 q 421 -1 451 -1 m 528 978 q 499 983 513 978 q 475 1001 486 989 q 427 1054 451 1029 q 383 1096 403 1079 q 356 1059 371 1081 q 328 1015 340 1038 q 285 983 313 990 q 232 992 257 976 q 200 1035 207 1007 q 208 1088 193 1063 q 223 1110 210 1089 q 256 1157 236 1131 q 315 1224 286 1199 q 378 1249 343 1249 q 435 1230 406 1249 q 514 1163 465 1211 q 560 1115 540 1136 q 581 1093 579 1094 q 598 1042 600 1071 q 574 994 596 1014 q 528 978 553 978 m 403 790 q 301 732 347 790 q 263 669 282 708 q 233 565 244 629 q 282 568 257 567 q 332 572 307 569 q 443 578 388 575 q 557 582 499 582 q 533 672 549 636 q 503 729 518 707 q 404 790 460 790 l 403 790 z "},"î":{"ha":454,"x_min":24,"x_max":431,"o":"m 317 610 q 328 443 331 526 q 322 283 326 360 q 318 182 319 231 q 322 101 317 133 q 306 34 328 64 q 246 -1 283 4 q 232 -3 242 -3 q 174 19 200 -3 q 143 74 149 40 q 138 176 136 121 q 143 293 139 232 q 147 437 146 363 q 138 581 149 511 q 154 647 132 617 q 213 685 176 678 q 279 668 249 690 q 317 610 310 646 m 358 700 q 330 706 343 700 q 306 724 317 711 q 258 776 282 751 q 214 818 233 801 q 186 781 201 803 q 158 738 171 760 q 115 706 143 713 q 63 714 88 699 q 31 757 38 729 q 39 810 24 785 q 53 832 40 811 q 86 879 67 853 q 145 946 117 921 q 208 971 174 971 q 266 952 236 971 q 344 885 296 933 q 390 838 371 858 q 411 815 410 817 q 428 765 431 793 q 404 717 426 736 q 358 700 383 700 z "},"ô":{"ha":957,"x_min":39,"x_max":913,"o":"m 503 -1 q 339 29 418 -1 q 263 69 299 46 q 194 122 226 92 q 88 271 128 185 q 42 468 46 360 q 47 573 39 522 q 71 672 54 624 q 169 829 106 763 q 317 933 233 897 q 493 969 401 969 q 649 939 576 969 q 779 850 722 908 q 872 700 840 785 q 899 605 889 656 q 910 497 908 554 q 902 362 913 422 q 873 254 892 301 q 831 173 854 207 q 785 115 807 139 q 658 28 731 58 q 503 -1 586 -1 m 493 790 q 390 768 440 790 q 300 706 339 746 q 244 619 271 674 q 221 476 218 564 q 251 349 225 404 q 317 255 278 293 q 406 197 357 217 q 503 178 454 178 q 656 240 596 178 q 715 344 696 281 q 731 492 733 408 q 706 631 728 574 q 650 723 683 688 q 576 774 617 758 q 493 790 535 790 m 614 978 q 585 983 599 978 q 561 1001 572 989 q 513 1054 538 1029 q 469 1096 489 1079 q 442 1059 457 1081 q 414 1015 426 1038 q 371 983 399 990 q 318 992 343 976 q 286 1035 293 1007 q 294 1088 279 1063 q 309 1110 296 1089 q 342 1157 322 1131 q 401 1224 372 1199 q 464 1249 429 1249 q 522 1230 492 1249 q 600 1163 551 1211 q 646 1115 626 1136 q 667 1093 665 1094 q 684 1042 686 1071 q 660 994 682 1014 q 614 978 639 978 z "},"û":{"ha":824,"x_min":47,"x_max":776,"o":"m 633 974 q 694 949 669 972 q 722 889 719 925 l 774 113 q 751 47 776 75 q 689 17 726 19 q 624 39 651 14 q 593 101 596 64 l 585 225 q 558 168 572 194 q 476 54 521 94 q 399 9 436 18 q 335 1 363 0 q 274 17 308 4 q 203 69 239 31 q 133 188 161 115 q 68 479 89 297 q 54 624 58 553 q 49 749 50 694 q 47 840 47 804 q 47 878 47 875 q 74 940 49 914 q 138 967 100 967 q 139 965 139 967 q 202 938 176 965 q 228 874 228 911 q 228 841 228 874 q 229 756 228 808 q 235 635 231 703 q 247 499 239 568 q 301 253 267 339 q 331 198 318 213 q 347 182 343 183 q 362 194 349 183 q 394 242 375 206 q 438 347 414 279 q 486 528 461 414 q 512 661 501 596 q 529 777 522 726 q 540 860 536 828 q 543 892 543 892 q 572 950 546 926 q 632 974 597 974 l 633 974 m 504 978 q 476 983 489 978 q 451 1001 463 989 q 403 1054 428 1029 q 360 1096 379 1079 q 332 1059 347 1081 q 304 1015 317 1038 q 261 983 289 990 q 208 992 233 976 q 176 1035 183 1007 q 185 1088 169 1063 q 199 1110 186 1089 q 232 1157 213 1131 q 291 1224 263 1199 q 354 1249 319 1249 q 412 1230 382 1249 q 490 1163 442 1211 q 536 1115 517 1136 q 557 1093 556 1094 q 574 1042 576 1071 q 550 994 572 1014 q 504 978 529 978 z "},"Ĳ":{"ha":1596,"x_min":63,"x_max":1563,"o":"m 1557 896 q 1540 830 1563 860 q 1481 793 1518 800 q 1413 785 1446 789 q 1349 778 1381 781 q 1365 731 1357 754 q 1379 683 1372 707 q 1411 472 1407 574 q 1395 278 1415 367 q 1333 126 1375 189 q 1208 19 1282 49 q 1122 1 1168 1 q 1046 15 1082 1 q 954 85 993 38 q 896 201 915 132 q 890 532 857 333 q 928 591 897 569 q 994 606 958 613 q 1053 569 1032 599 q 1068 501 1075 539 q 1056 344 1051 404 q 1069 251 1060 283 q 1091 203 1079 219 q 1114 183 1103 188 q 1147 190 1128 176 q 1185 228 1167 203 q 1219 317 1206 260 q 1231 447 1232 374 q 1213 603 1231 519 q 1156 772 1194 686 q 1053 776 1104 774 q 946 783 1001 778 q 885 815 908 786 q 864 881 861 843 q 895 941 867 917 q 960 963 924 965 q 1084 954 1024 957 q 1204 952 1144 951 q 1326 958 1264 953 q 1454 972 1388 963 q 1522 956 1492 978 q 1557 896 1551 933 m 638 189 q 700 163 674 189 q 726 100 726 136 q 701 35 728 63 q 639 8 675 8 q 569 6 603 7 q 503 3 536 6 q 424 -1 463 0 q 347 -3 386 -3 q 244 1 296 -3 q 139 18 192 6 q 83 57 103 25 q 69 125 63 89 q 110 181 78 161 q 178 194 142 201 q 232 185 206 188 q 286 179 258 182 q 290 410 290 300 q 286 636 289 521 q 285 706 286 671 q 285 776 285 740 q 274 777 279 776 q 264 778 269 778 q 213 780 238 779 q 163 782 188 781 q 99 809 125 782 q 75 874 74 836 q 102 937 75 911 q 167 963 129 963 q 219 960 193 961 q 272 958 244 960 q 442 953 356 954 q 625 968 529 953 q 692 953 663 975 q 729 893 722 931 q 713 826 735 857 q 654 790 692 796 q 557 778 604 782 q 465 774 510 775 q 466 706 465 739 q 467 639 467 672 q 470 417 469 529 q 467 182 471 304 q 481 182 474 182 q 494 183 488 182 q 563 186 528 185 q 635 189 599 188 l 638 189 z "},"İ":{"ha":801,"x_min":63,"x_max":735,"o":"m 638 189 q 700 163 674 189 q 726 100 726 136 q 701 35 728 63 q 639 8 675 8 q 569 6 603 7 q 503 3 536 6 q 424 -1 463 0 q 347 -3 386 -3 q 244 1 296 -3 q 139 18 192 6 q 83 57 103 25 q 69 125 63 89 q 110 181 78 161 q 178 194 142 201 q 232 185 206 188 q 286 179 258 182 q 290 410 290 300 q 286 636 289 521 q 285 706 286 671 q 285 776 285 740 q 274 777 279 776 q 264 778 269 778 q 213 780 238 779 q 163 782 188 781 q 99 809 125 782 q 75 874 74 836 q 102 937 75 911 q 167 963 129 963 q 219 960 193 961 q 272 958 244 960 q 442 953 356 954 q 625 968 529 953 q 692 953 663 975 q 729 893 722 931 q 713 826 735 857 q 654 790 692 796 q 557 778 604 782 q 465 774 510 775 q 466 706 465 739 q 467 639 467 672 q 470 417 469 529 q 467 182 471 304 q 481 182 474 182 q 494 183 488 182 q 563 186 528 185 q 635 189 599 188 l 638 189 m 444 1117 q 457 1088 457 1104 q 444 1060 457 1069 q 429 1049 438 1053 q 400 1043 418 1043 q 372 1049 382 1043 q 356 1060 363 1053 q 344 1088 344 1069 q 356 1117 344 1106 q 372 1128 363 1124 q 385 1131 378 1131 q 400 1132 393 1132 q 415 1131 408 1132 q 429 1128 422 1131 q 444 1117 438 1124 z "},"Ĉ":{"ha":829,"x_min":53,"x_max":782,"o":"m 433 -3 q 381 1 407 -3 q 251 44 310 11 q 149 135 192 78 q 56 472 53 258 q 157 840 58 713 q 271 936 204 901 q 400 969 331 965 q 510 959 456 972 q 614 918 565 946 q 701 844 668 886 q 739 756 733 801 q 720 689 743 718 q 660 656 697 660 q 595 672 624 650 q 560 731 567 694 q 543 749 557 736 q 504 772 529 761 q 445 788 475 785 q 388 786 415 792 q 309 740 339 776 q 263 658 279 704 q 242 560 247 611 q 236 469 236 510 q 292 244 233 321 q 404 181 335 189 q 472 182 438 176 q 539 203 507 188 q 581 231 567 217 q 597 256 594 246 q 639 311 607 292 q 707 321 671 331 q 763 279 743 311 q 772 211 782 247 q 713 108 758 156 q 670 72 693 89 q 619 42 647 56 q 433 -3 531 -3 m 544 978 q 516 983 529 978 q 492 1001 503 989 q 444 1054 468 1029 q 400 1096 419 1079 q 372 1059 388 1081 q 344 1015 357 1038 q 301 983 329 990 q 249 992 274 976 q 217 1035 224 1007 q 225 1088 210 1063 q 240 1110 226 1089 q 272 1157 253 1131 q 331 1224 303 1199 q 394 1249 360 1249 q 452 1230 422 1249 q 531 1163 482 1211 q 576 1115 557 1136 q 597 1093 596 1094 q 615 1042 617 1071 q 590 994 613 1014 q 544 978 569 978 z "},"ĉ":{"ha":801,"x_min":38,"x_max":767,"o":"m 392 -3 q 288 14 338 -3 q 182 71 229 32 q 103 167 135 110 q 43 465 38 286 q 139 810 50 676 q 238 912 181 872 q 363 964 296 951 q 466 966 414 975 q 564 932 518 957 q 704 775 660 879 q 705 706 719 740 q 656 657 690 672 q 587 656 621 642 q 538 704 553 669 q 479 773 518 750 q 396 788 440 796 q 289 710 333 775 q 242 602 258 665 q 222 460 225 539 q 224 385 221 426 q 240 303 228 343 q 276 230 253 263 q 342 185 300 197 q 408 178 372 175 q 479 197 444 182 q 544 235 514 211 q 596 289 575 258 q 652 328 615 321 q 721 315 689 335 q 759 258 751 294 q 746 190 767 221 q 658 95 710 138 q 544 28 607 53 q 468 5 507 13 q 392 -3 429 -3 m 542 978 q 513 983 526 978 q 489 1001 500 989 q 441 1054 465 1029 q 397 1096 417 1079 q 369 1059 385 1081 q 342 1015 354 1038 q 299 983 326 990 q 246 992 271 976 q 214 1035 221 1007 q 222 1088 207 1063 q 237 1110 224 1089 q 269 1157 250 1131 q 328 1224 300 1199 q 392 1249 357 1249 q 449 1230 419 1249 q 528 1163 479 1211 q 574 1115 554 1136 q 594 1093 593 1094 q 612 1042 614 1071 q 588 994 610 1014 q 542 978 567 978 z "},"Ė":{"ha":839,"x_min":68,"x_max":774,"o":"m 476 789 q 332 788 379 793 q 268 776 285 782 q 259 672 264 738 q 251 529 254 606 q 442 529 347 526 q 628 543 536 532 q 693 524 664 547 q 726 463 722 500 q 707 396 731 425 q 647 364 683 367 q 344 347 499 347 q 297 347 321 347 q 250 349 274 347 q 258 240 253 278 q 265 186 263 201 q 333 181 285 183 q 474 182 381 178 q 544 185 511 183 q 604 190 578 188 q 647 193 631 192 q 663 194 663 194 q 728 175 699 199 q 761 114 757 151 q 742 49 765 78 q 681 15 718 19 q 661 14 679 15 q 614 10 643 13 q 547 6 585 8 q 469 1 510 3 q 422 -1 444 0 q 376 -1 399 -1 q 339 -1 357 -1 q 304 0 321 0 q 158 33 201 6 q 96 122 117 60 q 86 163 90 140 q 78 213 82 185 q 71 313 74 257 q 69 438 68 368 q 72 558 69 497 q 78 670 75 618 q 85 763 82 722 q 93 826 89 804 q 115 882 97 857 q 161 925 133 907 q 200 944 179 936 q 249 957 221 951 q 332 968 285 964 q 438 971 379 972 q 529 968 485 971 q 609 962 574 965 q 666 956 644 958 q 690 953 688 953 q 751 918 728 947 q 768 851 774 889 q 734 792 764 815 q 667 774 704 769 q 651 776 667 774 q 608 781 635 778 q 548 785 582 783 q 476 789 514 788 m 463 1117 q 475 1088 475 1104 q 463 1060 475 1069 q 447 1049 456 1053 q 418 1043 436 1043 q 390 1049 400 1043 q 374 1060 381 1053 q 363 1088 363 1069 q 374 1117 363 1106 q 390 1128 381 1124 q 403 1131 396 1131 q 418 1132 411 1132 q 433 1131 426 1132 q 447 1128 440 1131 q 463 1117 456 1124 z "},"Ĝ":{"ha":903,"x_min":58,"x_max":879,"o":"m 875 403 q 856 336 879 365 q 794 303 832 307 q 756 299 775 300 q 719 297 738 297 q 683 188 713 240 q 604 93 653 136 q 492 23 553 47 q 371 -1 432 -1 l 364 -1 q 237 33 294 0 q 139 126 179 65 q 63 472 58 250 q 90 696 64 597 q 164 853 118 793 q 216 906 188 883 q 278 944 244 929 q 338 964 306 957 q 401 969 369 971 q 488 958 444 969 q 568 925 531 947 q 628 881 603 907 q 660 832 653 856 q 668 792 668 808 q 642 728 668 754 q 579 701 615 701 q 528 718 550 701 q 494 760 506 735 q 472 772 486 765 q 439 784 457 779 q 400 790 421 789 q 358 783 379 790 q 289 711 315 767 q 243 469 246 628 q 256 308 240 365 q 290 225 272 251 q 368 178 321 179 q 485 228 428 178 q 536 300 524 263 q 508 301 522 301 q 481 303 494 301 q 417 330 443 303 q 392 394 390 357 q 419 456 393 431 q 482 482 446 482 l 483 482 q 526 481 506 482 q 565 479 546 481 q 662 476 614 476 q 775 482 710 475 q 842 463 813 486 q 875 403 871 439 m 513 978 q 484 983 497 978 q 460 1001 471 989 q 412 1054 436 1029 q 368 1096 388 1079 q 340 1059 356 1081 q 313 1015 325 1038 q 269 983 297 990 q 217 992 242 976 q 185 1035 192 1007 q 193 1088 178 1063 q 208 1110 194 1089 q 240 1157 221 1131 q 299 1224 271 1199 q 363 1249 328 1249 q 420 1230 390 1249 q 499 1163 450 1211 q 544 1115 525 1136 q 565 1093 564 1094 q 583 1042 585 1071 q 558 994 581 1014 q 513 978 538 978 z "},"ĝ":{"ha":874,"x_min":44,"x_max":818,"o":"m 810 739 q 814 587 811 672 q 817 408 817 501 q 816 217 818 314 q 807 32 814 121 q 699 -225 794 -121 q 599 -301 654 -271 q 481 -343 544 -332 q 444 -347 461 -346 q 407 -349 426 -349 q 322 -340 364 -349 q 242 -314 281 -332 q 60 -133 119 -257 q 56 -63 44 -99 q 103 -12 68 -28 q 172 -8 136 4 q 222 -56 207 -21 q 268 -118 240 -94 q 326 -154 296 -142 q 388 -169 357 -167 q 447 -165 419 -171 q 490 -153 461 -162 q 547 -120 518 -143 q 599 -57 576 -97 q 628 47 622 -17 q 632 114 631 79 q 635 185 633 149 q 632 182 635 182 q 513 97 579 126 q 379 67 447 67 q 272 86 324 67 q 178 150 218 110 q 90 303 119 210 q 63 517 61 397 q 151 846 67 728 q 252 938 193 907 q 381 969 311 969 q 510 940 447 969 q 625 856 572 910 l 625 860 q 626 869 625 865 q 626 876 626 872 q 644 921 629 901 q 682 950 658 940 q 751 951 717 965 q 800 903 785 938 q 806 850 810 878 q 806 806 806 838 q 810 739 807 774 m 501 307 q 560 401 540 347 q 576 518 579 456 q 555 631 574 579 q 501 722 536 683 q 442 772 474 754 q 381 789 411 789 q 299 742 332 789 q 263 663 279 717 q 243 514 246 610 q 258 370 242 431 q 306 278 274 310 q 379 246 338 246 q 442 263 410 246 q 501 307 474 279 m 514 982 q 485 988 499 982 q 461 1006 472 993 q 413 1058 438 1033 q 369 1100 389 1083 q 342 1063 357 1085 q 314 1019 326 1042 q 271 988 299 994 q 218 996 243 981 q 186 1039 193 1011 q 194 1092 179 1067 q 209 1114 196 1093 q 242 1161 222 1135 q 301 1228 272 1203 q 364 1253 329 1253 q 422 1234 392 1253 q 500 1167 451 1215 q 546 1119 526 1140 q 567 1097 565 1099 q 584 1047 586 1075 q 560 999 582 1018 q 514 982 539 982 z "},"Ĥ":{"ha":828,"x_min":72,"x_max":758,"o":"m 675 963 q 735 928 713 957 q 753 861 758 899 q 733 557 731 703 q 742 261 735 411 q 746 176 744 219 q 749 90 747 133 q 724 26 750 53 q 661 -3 699 -1 l 658 -3 q 596 23 622 -3 q 568 85 569 49 q 565 169 567 126 q 561 253 564 213 q 560 292 560 272 q 558 331 560 311 q 436 322 497 322 q 426 322 431 322 q 414 324 421 322 q 346 326 381 324 q 271 335 311 329 q 267 208 269 271 q 260 83 264 146 q 231 23 257 47 q 169 -1 206 -1 l 164 -1 q 101 30 126 1 q 79 94 76 58 q 92 481 93 288 q 75 872 90 675 q 97 938 72 910 q 158 968 121 965 q 224 947 196 971 q 256 886 253 922 q 266 701 263 793 q 271 517 269 610 q 414 503 346 506 q 553 513 482 501 q 556 695 551 603 q 574 886 560 788 q 609 945 579 922 q 675 963 639 968 m 544 978 q 516 983 529 978 q 492 1001 503 989 q 444 1054 468 1029 q 400 1096 419 1079 q 372 1059 388 1081 q 344 1015 357 1038 q 301 983 329 990 q 249 992 274 976 q 217 1035 224 1007 q 225 1088 210 1063 q 240 1110 226 1089 q 272 1157 253 1131 q 331 1224 303 1199 q 394 1249 360 1249 q 452 1230 422 1249 q 531 1163 482 1211 q 576 1115 557 1136 q 597 1093 596 1094 q 615 1042 617 1071 q 590 994 613 1014 q 544 978 569 978 z "},"ĥ":{"ha":833,"x_min":53,"x_max":811,"o":"m 718 1 q 656 26 682 1 q 628 86 631 50 q 626 113 628 86 q 619 182 624 139 q 606 281 614 225 q 586 394 599 336 q 522 604 557 528 q 488 664 501 650 q 471 679 474 678 q 451 664 468 678 q 407 601 435 650 q 324 390 364 525 q 292 276 306 332 q 268 175 278 219 q 253 103 258 131 q 249 76 249 76 q 215 20 242 42 q 153 1 189 -1 q 94 29 118 4 q 69 90 71 54 l 54 951 q 79 1015 53 989 q 143 1043 106 1042 q 207 1018 181 1044 q 235 954 233 992 l 240 671 q 251 692 246 682 q 264 714 257 703 q 303 770 283 746 q 346 813 324 794 q 419 852 385 843 q 476 860 453 861 q 603 804 547 856 q 676 701 643 765 q 758 447 725 604 q 782 320 772 382 q 797 210 792 258 q 806 131 803 161 q 808 97 808 100 q 786 33 811 61 q 725 1 761 4 l 718 1 m 611 922 q 583 928 596 922 q 558 946 569 933 q 510 999 535 974 q 467 1040 486 1024 q 439 1003 454 1025 q 411 960 424 982 q 368 928 396 935 q 315 936 340 921 q 283 979 290 951 q 292 1032 276 1007 q 306 1054 293 1033 q 339 1101 319 1075 q 398 1168 369 1143 q 461 1193 426 1193 q 519 1174 489 1193 q 597 1107 549 1156 q 643 1060 624 1081 q 664 1038 663 1039 q 681 987 683 1015 q 657 939 679 958 q 611 922 636 922 z "},"Ĵ":{"ha":794,"x_min":56,"x_max":761,"o":"m 756 896 q 739 830 761 860 q 679 793 717 800 q 612 785 644 789 q 547 778 579 781 q 563 731 556 754 q 578 683 571 707 q 610 472 606 574 q 594 278 614 367 q 532 126 574 189 q 407 19 481 49 q 321 1 367 1 q 244 15 281 1 q 153 85 192 38 q 94 201 114 132 q 89 532 56 333 q 126 591 96 569 q 193 606 157 613 q 252 569 231 599 q 267 501 274 539 q 254 344 250 404 q 268 251 258 283 q 290 203 278 219 q 313 183 301 188 q 346 190 326 176 q 383 228 365 203 q 417 317 404 260 q 430 447 431 374 q 411 603 429 519 q 354 772 393 686 q 251 776 303 774 q 144 783 200 778 q 83 815 107 786 q 63 881 60 843 q 94 941 65 917 q 158 963 122 965 q 283 954 222 957 q 403 952 343 951 q 524 958 463 953 q 653 972 586 963 q 720 956 690 978 q 756 896 750 933 m 528 994 q 499 1000 513 994 q 475 1018 486 1006 q 427 1071 451 1046 q 383 1113 403 1096 q 356 1076 371 1097 q 328 1032 340 1054 q 285 1000 313 1007 q 232 1008 257 993 q 200 1051 207 1024 q 208 1104 193 1079 q 223 1126 210 1106 q 256 1174 236 1147 q 315 1240 286 1215 q 378 1265 343 1265 q 435 1247 406 1265 q 514 1179 465 1228 q 560 1132 540 1153 q 581 1110 579 1111 q 598 1059 600 1088 q 574 1011 596 1031 q 528 994 553 994 z "},"ĵ":{"ha":482,"x_min":-33,"x_max":454,"o":"m 343 603 q 347 562 346 583 q 351 517 349 540 q 365 306 360 417 q 354 82 371 194 q 282 -144 333 -44 q 115 -335 222 -258 q 63 -351 90 -351 q 22 -342 42 -351 q -11 -314 3 -333 q -27 -247 -33 -283 q 10 -187 -21 -210 q 127 -51 89 -132 q 178 122 165 29 q 185 313 190 215 q 171 501 179 411 q 167 547 168 525 q 164 590 165 568 q 185 655 161 626 q 247 686 210 683 q 313 665 285 689 q 343 603 340 640 m 382 700 q 353 706 367 700 q 329 724 340 711 q 281 776 306 751 q 238 818 257 801 q 210 781 225 803 q 182 738 194 760 q 139 706 167 713 q 86 714 111 699 q 54 757 61 729 q 63 810 47 785 q 77 832 64 811 q 110 879 90 853 q 169 946 140 921 q 232 971 197 971 q 290 952 260 971 q 368 885 319 933 q 414 838 394 858 q 435 815 433 817 q 452 765 454 793 q 428 717 450 736 q 382 700 407 700 z "},"Ŵ":{"ha":1075,"x_min":60,"x_max":1015,"o":"m 758 -1 q 706 11 736 -1 q 650 65 676 24 q 625 119 638 88 q 599 197 613 150 q 572 299 586 240 q 538 439 557 358 q 510 334 524 382 q 483 244 497 286 q 453 161 468 197 q 425 97 439 125 q 389 44 411 71 q 331 7 367 17 q 246 22 285 -4 q 182 124 206 50 q 164 188 172 151 q 146 272 156 224 q 106 516 126 371 q 64 856 86 661 q 83 921 60 892 q 144 954 107 950 q 211 935 182 958 q 244 875 240 913 q 281 571 264 703 q 315 344 299 439 l 319 324 q 323 335 322 331 q 326 347 324 340 q 388 583 357 447 q 450 889 418 719 q 481 942 456 921 q 538 963 506 963 q 594 942 569 963 q 626 890 619 922 q 697 556 667 690 q 749 333 726 421 q 753 318 751 322 q 756 333 754 325 q 758 349 757 340 q 794 579 776 444 q 832 890 813 714 q 865 951 836 928 q 932 971 894 975 q 992 938 969 967 q 1013 871 1015 908 q 967 508 989 660 q 924 253 946 356 q 881 100 903 153 q 869 77 876 92 q 850 47 863 63 q 819 17 838 31 q 776 0 801 4 q 769 -1 774 0 q 758 -1 764 -1 m 668 985 q 640 990 653 985 q 615 1008 626 996 q 567 1061 592 1036 q 524 1103 543 1086 q 496 1066 511 1088 q 468 1022 481 1044 q 425 990 453 997 q 372 999 397 983 q 340 1042 347 1014 q 349 1094 333 1069 q 363 1117 350 1096 q 396 1164 376 1138 q 455 1231 426 1206 q 518 1256 483 1256 q 576 1237 546 1256 q 654 1169 606 1218 q 700 1122 681 1143 q 721 1100 719 1101 q 738 1049 740 1078 q 714 1001 736 1021 q 668 985 693 985 z "},"Ŷ":{"ha":739,"x_min":35,"x_max":707,"o":"m 643 964 q 692 915 678 949 q 693 846 707 881 q 650 737 669 788 q 615 640 631 686 q 587 553 600 594 q 561 471 574 511 q 531 376 546 424 q 499 278 517 329 q 458 172 481 228 q 407 51 436 115 q 374 12 396 26 q 325 -3 351 -3 q 289 6 306 -3 q 241 56 254 21 q 243 125 228 90 q 286 226 267 179 q 321 317 306 274 q 253 425 290 364 q 177 555 215 486 q 105 696 139 624 q 47 835 71 768 q 51 904 35 871 q 103 950 67 938 q 172 945 139 961 q 218 893 206 929 q 296 715 247 808 q 394 540 344 622 q 449 709 419 621 q 525 914 478 797 q 574 963 540 949 q 643 964 608 978 m 493 978 q 465 983 478 978 q 440 1001 451 989 q 392 1054 417 1029 q 349 1096 368 1079 q 321 1059 336 1081 q 293 1015 306 1038 q 250 983 278 990 q 197 992 222 976 q 165 1035 172 1007 q 174 1088 158 1063 q 188 1110 175 1089 q 221 1157 201 1131 q 280 1224 251 1199 q 343 1249 308 1249 q 401 1230 371 1249 q 479 1163 431 1211 q 525 1115 506 1136 q 546 1093 544 1094 q 563 1042 565 1071 q 539 994 561 1014 q 493 978 518 978 z "},"ė":{"ha":799,"x_min":33,"x_max":754,"o":"m 421 -1 q 294 19 354 -1 q 104 186 169 64 q 46 508 33 314 q 81 697 53 611 q 160 844 110 782 q 272 939 207 904 q 410 971 340 972 q 543 933 481 968 q 650 832 607 894 q 719 681 696 768 q 746 489 743 593 q 717 421 746 450 q 647 397 686 394 q 498 401 572 404 q 344 392 424 397 q 288 388 317 389 q 229 385 258 386 q 263 272 238 318 q 354 190 293 213 q 490 190 418 169 q 547 215 522 199 q 586 250 572 231 q 644 287 607 281 q 711 271 681 293 q 748 213 742 250 q 733 146 754 176 q 652 69 701 101 q 542 17 603 36 q 481 3 511 8 q 421 -1 451 -1 m 403 790 q 301 732 347 790 q 263 669 282 708 q 233 565 244 629 q 282 568 257 567 q 332 572 307 569 q 443 578 388 575 q 557 582 499 582 q 533 672 549 636 q 503 729 518 707 q 404 790 460 790 l 403 790 m 457 1117 q 469 1088 469 1104 q 457 1060 469 1069 q 442 1049 450 1053 q 413 1043 431 1043 q 385 1049 394 1043 q 368 1060 375 1053 q 357 1088 357 1069 q 368 1117 357 1106 q 385 1128 375 1124 q 398 1131 390 1131 q 413 1132 406 1132 q 428 1131 421 1132 q 442 1128 435 1131 q 457 1117 450 1124 z "},"ĸ":{"ha":800,"x_min":54,"x_max":783,"o":"m 739 178 q 777 119 771 156 q 761 51 783 83 q 728 23 747 32 q 688 14 708 14 q 635 31 660 14 q 424 192 518 113 q 240 351 329 271 q 237 222 238 286 q 238 92 236 157 q 212 27 238 54 q 149 0 186 0 l 147 0 q 83 26 110 0 q 57 88 57 51 q 56 259 54 174 q 61 428 58 344 q 65 533 63 492 q 69 610 68 574 q 67 688 69 646 q 60 793 65 729 q 81 859 57 831 q 142 890 104 888 q 208 869 179 893 q 239 808 236 846 q 245 745 243 765 q 248 710 247 725 q 248 676 249 696 q 247 614 247 657 q 435 670 343 642 q 619 738 526 699 q 688 739 654 753 q 738 690 722 725 q 738 622 753 656 q 689 572 724 588 q 535 514 611 539 q 383 465 458 489 q 550 322 465 393 q 739 178 635 251 z "},"ŕ":{"ha":829,"x_min":50,"x_max":821,"o":"m 161 -4 q 99 25 124 -1 q 75 89 74 51 q 72 437 78 263 q 57 785 65 611 q 55 829 56 807 q 53 874 54 851 q 76 938 50 911 q 139 968 101 965 q 203 945 176 971 q 233 882 231 919 q 235 850 235 867 q 236 818 235 833 q 314 911 268 874 q 549 957 415 993 q 717 843 644 929 q 774 759 753 801 q 808 685 796 717 q 806 615 821 649 q 756 568 790 582 q 686 569 719 554 q 639 621 653 585 q 615 672 629 646 q 584 719 601 697 q 545 759 567 742 q 500 783 524 776 q 455 785 471 790 q 428 772 439 781 q 365 672 394 743 q 318 528 338 603 q 286 378 299 454 q 266 226 274 301 q 254 81 258 151 q 226 20 251 44 q 165 -4 201 -4 l 161 -4 m 381 989 q 353 994 367 989 q 331 1010 340 999 q 311 1059 311 1031 q 332 1107 311 1088 q 355 1132 343 1118 q 381 1161 367 1146 q 416 1202 397 1181 q 458 1246 435 1224 q 508 1265 479 1265 q 557 1244 536 1265 q 576 1195 576 1224 q 554 1147 575 1167 q 518 1109 535 1128 q 486 1071 501 1090 q 457 1038 471 1054 q 428 1007 443 1022 q 406 993 418 997 q 381 989 393 989 z "},"Č":{"ha":829,"x_min":53,"x_max":782,"o":"m 433 -3 q 381 1 407 -3 q 251 44 310 11 q 149 135 192 78 q 56 472 53 258 q 157 840 58 713 q 271 936 204 901 q 400 969 331 965 q 510 959 456 972 q 614 918 565 946 q 701 844 668 886 q 739 756 733 801 q 720 689 743 718 q 660 656 697 660 q 595 672 624 650 q 560 731 567 694 q 543 749 557 736 q 504 772 529 761 q 445 788 475 785 q 388 786 415 792 q 309 740 339 776 q 263 658 279 704 q 242 560 247 611 q 236 469 236 510 q 292 244 233 321 q 404 181 335 189 q 472 182 438 176 q 539 203 507 188 q 581 231 567 217 q 597 256 594 246 q 639 311 607 292 q 707 321 671 331 q 763 279 743 311 q 772 211 782 247 q 713 108 758 156 q 670 72 693 89 q 619 42 647 56 q 433 -3 531 -3 m 544 1267 q 590 1250 569 1267 q 615 1202 613 1231 q 597 1151 617 1174 q 576 1129 596 1150 q 531 1082 557 1108 q 452 1015 482 1033 q 394 996 422 996 q 331 1021 360 996 q 272 1088 303 1046 q 240 1135 253 1114 q 225 1157 226 1156 q 217 1210 210 1182 q 249 1253 224 1238 q 301 1261 274 1268 q 344 1229 329 1254 q 372 1185 357 1207 q 400 1149 388 1164 q 444 1190 419 1165 q 492 1243 468 1215 q 516 1261 503 1256 q 544 1267 529 1267 z "},"č":{"ha":801,"x_min":38,"x_max":767,"o":"m 392 -3 q 288 14 338 -3 q 182 71 229 32 q 103 167 135 110 q 43 465 38 286 q 139 810 50 676 q 238 912 181 872 q 363 964 296 951 q 466 966 414 975 q 564 932 518 957 q 704 775 660 879 q 705 706 719 740 q 656 657 690 672 q 587 656 621 642 q 538 704 553 669 q 479 773 518 750 q 396 788 440 796 q 289 710 333 775 q 242 602 258 665 q 222 460 225 539 q 224 385 221 426 q 240 303 228 343 q 276 230 253 263 q 342 185 300 197 q 408 178 372 175 q 479 197 444 182 q 544 235 514 211 q 596 289 575 258 q 652 328 615 321 q 721 315 689 335 q 759 258 751 294 q 746 190 767 221 q 658 95 710 138 q 544 28 607 53 q 468 5 507 13 q 392 -3 429 -3 m 546 1267 q 592 1250 571 1267 q 616 1202 614 1231 q 599 1151 618 1174 q 578 1129 597 1150 q 532 1082 558 1108 q 453 1015 483 1033 q 396 996 424 996 q 333 1021 361 996 q 274 1088 304 1046 q 241 1135 254 1114 q 226 1157 228 1156 q 218 1210 211 1182 q 250 1253 225 1238 q 303 1261 275 1268 q 346 1229 331 1254 q 374 1185 358 1207 q 401 1149 389 1164 q 445 1190 421 1165 q 493 1243 469 1215 q 517 1261 504 1256 q 546 1267 531 1267 z "},"Ď":{"ha":850,"x_min":72,"x_max":808,"o":"m 161 -1 q 97 29 124 1 q 75 94 72 58 q 83 496 85 275 q 81 673 83 581 q 75 876 79 765 q 100 942 72 917 q 164 969 125 969 l 168 969 q 417 929 300 969 q 613 819 529 889 q 744 661 693 753 q 801 475 793 569 q 783 310 808 389 q 699 169 757 232 q 630 110 671 140 q 531 55 589 79 q 394 15 472 31 q 215 -1 315 -1 l 161 -1 m 258 783 q 263 634 261 704 q 264 497 264 564 q 260 179 265 326 q 442 213 364 185 q 565 292 519 242 q 615 381 606 336 q 622 460 625 426 q 584 578 617 521 q 497 681 551 636 q 403 741 461 711 q 258 783 344 771 m 556 1243 q 601 1226 581 1243 q 626 1178 624 1207 q 608 1128 628 1150 q 588 1106 607 1126 q 542 1058 568 1085 q 463 991 493 1010 q 406 972 433 972 q 342 997 371 972 q 283 1064 314 1022 q 251 1111 264 1090 q 236 1133 238 1132 q 228 1186 221 1158 q 260 1229 235 1214 q 313 1238 285 1244 q 356 1206 340 1231 q 383 1162 368 1183 q 411 1125 399 1140 q 455 1167 431 1142 q 503 1219 479 1192 q 527 1238 514 1232 q 556 1243 540 1243 z "},"Ě":{"ha":839,"x_min":68,"x_max":774,"o":"m 476 789 q 332 788 379 793 q 268 776 285 782 q 259 672 264 738 q 251 529 254 606 q 442 529 347 526 q 628 543 536 532 q 693 524 664 547 q 726 463 722 500 q 707 396 731 425 q 647 364 683 367 q 344 347 499 347 q 297 347 321 347 q 250 349 274 347 q 258 240 253 278 q 265 186 263 201 q 333 181 285 183 q 474 182 381 178 q 544 185 511 183 q 604 190 578 188 q 647 193 631 192 q 663 194 663 194 q 728 175 699 199 q 761 114 757 151 q 742 49 765 78 q 681 15 718 19 q 661 14 679 15 q 614 10 643 13 q 547 6 585 8 q 469 1 510 3 q 422 -1 444 0 q 376 -1 399 -1 q 339 -1 357 -1 q 304 0 321 0 q 158 33 201 6 q 96 122 117 60 q 86 163 90 140 q 78 213 82 185 q 71 313 74 257 q 69 438 68 368 q 72 558 69 497 q 78 670 75 618 q 85 763 82 722 q 93 826 89 804 q 115 882 97 857 q 161 925 133 907 q 200 944 179 936 q 249 957 221 951 q 332 968 285 964 q 438 971 379 972 q 529 968 485 971 q 609 962 574 965 q 666 956 644 958 q 690 953 688 953 q 751 918 728 947 q 768 851 774 889 q 734 792 764 815 q 667 774 704 769 q 651 776 667 774 q 608 781 635 778 q 548 785 582 783 q 476 789 514 788 m 546 1267 q 592 1250 571 1267 q 616 1202 614 1231 q 599 1151 618 1174 q 578 1129 597 1150 q 532 1082 558 1108 q 453 1015 483 1033 q 396 996 424 996 q 333 1021 361 996 q 274 1088 304 1046 q 241 1135 254 1114 q 226 1157 228 1156 q 218 1210 211 1182 q 250 1253 225 1238 q 303 1261 275 1268 q 346 1229 331 1254 q 374 1185 358 1207 q 401 1149 389 1164 q 445 1190 421 1165 q 493 1243 469 1215 q 517 1261 504 1256 q 546 1267 531 1267 z "},"ě":{"ha":799,"x_min":33,"x_max":754,"o":"m 421 -1 q 294 19 354 -1 q 104 186 169 64 q 46 508 33 314 q 81 697 53 611 q 160 844 110 782 q 272 939 207 904 q 410 971 340 972 q 543 933 481 968 q 650 832 607 894 q 719 681 696 768 q 746 489 743 593 q 717 421 746 450 q 647 397 686 394 q 498 401 572 404 q 344 392 424 397 q 288 388 317 389 q 229 385 258 386 q 263 272 238 318 q 354 190 293 213 q 490 190 418 169 q 547 215 522 199 q 586 250 572 231 q 644 287 607 281 q 711 271 681 293 q 748 213 742 250 q 733 146 754 176 q 652 69 701 101 q 542 17 603 36 q 481 3 511 8 q 421 -1 451 -1 m 543 1267 q 589 1250 568 1267 q 613 1202 611 1231 q 596 1151 615 1174 q 575 1129 594 1150 q 529 1082 556 1108 q 451 1015 481 1033 q 393 996 421 996 q 330 1021 358 996 q 271 1088 301 1046 q 238 1135 251 1114 q 224 1157 225 1156 q 215 1210 208 1182 q 247 1253 222 1238 q 300 1261 272 1268 q 343 1229 328 1254 q 371 1185 356 1207 q 399 1149 386 1164 q 442 1190 418 1165 q 490 1243 467 1215 q 515 1261 501 1256 q 543 1267 528 1267 m 403 790 q 301 732 347 790 q 263 669 282 708 q 233 565 244 629 q 282 568 257 567 q 332 572 307 569 q 443 578 388 575 q 557 582 499 582 q 533 672 549 636 q 503 729 518 707 q 404 790 460 790 l 403 790 z "},"Ň":{"ha":793,"x_min":72,"x_max":719,"o":"m 176 -3 q 115 22 140 -3 q 86 82 89 46 q 84 117 86 83 q 80 207 82 151 q 76 333 78 263 q 74 476 74 403 q 74 633 72 564 q 81 754 76 703 q 99 861 88 824 q 119 911 107 890 q 163 951 139 942 q 201 961 186 960 q 247 954 226 963 q 282 933 267 946 q 307 908 297 921 q 321 888 317 894 q 346 843 332 868 q 375 785 360 818 q 431 651 401 725 q 489 503 460 578 q 514 440 501 471 q 538 379 526 408 q 539 453 539 413 q 540 543 539 494 q 539 667 540 607 q 537 773 538 726 q 535 847 536 819 q 533 876 533 875 q 558 940 532 913 q 621 969 583 968 q 685 945 658 971 q 714 882 713 919 q 715 850 714 882 q 717 766 717 818 q 719 648 718 714 q 719 511 719 582 q 711 240 719 344 q 691 106 704 151 q 651 36 678 60 q 571 10 617 6 q 510 38 533 14 q 472 86 488 63 q 425 181 451 119 q 375 299 401 233 q 321 438 349 365 q 288 524 304 481 q 254 607 271 567 q 254 426 253 535 q 257 301 256 361 q 260 196 258 242 q 265 122 263 150 q 267 93 267 93 q 244 28 269 56 q 181 -3 218 0 l 176 -3 m 526 1243 q 572 1226 551 1243 q 597 1178 594 1207 q 579 1128 599 1150 q 558 1106 578 1126 q 513 1058 539 1085 q 434 991 464 1010 q 376 972 404 972 q 313 997 342 972 q 254 1064 285 1022 q 222 1111 235 1090 q 207 1133 208 1132 q 199 1186 192 1158 q 231 1229 206 1214 q 283 1238 256 1244 q 326 1206 311 1231 q 354 1162 339 1183 q 382 1125 369 1140 q 426 1167 401 1142 q 474 1219 450 1192 q 498 1238 485 1232 q 526 1243 511 1243 z "},"ň":{"ha":824,"x_min":47,"x_max":776,"o":"m 190 0 q 129 25 154 1 q 101 85 104 49 l 50 861 q 72 926 47 899 q 135 957 97 954 q 200 935 172 960 q 231 872 228 910 l 239 749 q 265 806 251 779 q 347 919 303 879 q 424 965 388 956 q 489 972 461 974 q 550 956 515 969 q 621 904 585 943 q 690 786 663 858 q 756 494 735 676 q 769 350 765 421 q 775 224 774 279 q 776 134 776 169 q 776 96 776 99 q 749 33 775 60 q 686 7 724 7 q 685 8 685 7 q 622 35 647 8 q 596 100 596 63 q 596 133 596 100 q 594 218 596 165 q 589 338 593 271 q 576 475 585 406 q 522 721 557 635 q 493 776 506 761 q 476 792 481 790 q 461 779 474 790 q 429 731 449 768 q 386 627 410 694 q 338 446 363 560 q 312 313 322 378 q 294 196 301 247 q 284 113 288 144 q 281 82 281 82 q 252 24 278 47 q 192 0 226 0 l 190 0 m 608 1267 q 654 1250 633 1267 q 678 1202 676 1231 q 661 1151 681 1174 q 640 1129 660 1150 q 594 1082 621 1108 q 516 1015 546 1033 q 458 996 486 996 q 395 1021 424 996 q 336 1088 367 1046 q 303 1135 317 1114 q 289 1157 290 1156 q 281 1210 274 1182 q 313 1253 288 1238 q 365 1261 338 1268 q 408 1229 393 1254 q 436 1185 421 1207 q 464 1149 451 1164 q 508 1190 483 1165 q 556 1243 532 1215 q 580 1261 567 1256 q 608 1267 593 1267 z "},"Ř":{"ha":804,"x_min":72,"x_max":750,"o":"m 654 -3 q 606 11 628 -3 q 480 97 532 58 q 388 167 428 135 q 319 228 349 200 q 261 286 289 257 q 258 187 258 238 q 254 83 257 136 q 226 22 253 47 q 161 -3 199 -4 q 98 26 124 -1 q 74 90 72 54 q 80 306 78 203 q 82 504 82 408 q 80 691 82 600 q 74 872 78 782 q 97 937 72 910 q 158 967 122 964 q 367 960 271 974 q 539 914 464 947 q 664 831 615 881 q 725 701 717 774 q 724 656 726 682 q 710 599 722 629 q 672 535 697 568 q 600 471 646 503 q 417 386 526 419 q 465 339 439 363 q 524 288 490 315 q 601 231 557 261 q 703 163 644 200 q 742 107 735 143 q 729 39 750 71 q 697 8 717 18 q 654 -3 676 -3 m 258 788 q 263 533 263 663 q 413 576 358 553 q 496 618 468 599 q 533 652 519 635 q 546 682 547 669 q 526 713 544 694 q 468 749 507 732 q 258 788 382 785 m 543 1267 q 589 1250 568 1267 q 613 1202 611 1231 q 596 1151 615 1174 q 575 1129 594 1150 q 529 1082 556 1108 q 451 1015 481 1033 q 393 996 421 996 q 330 1021 358 996 q 271 1088 301 1046 q 238 1135 251 1114 q 224 1157 225 1156 q 215 1210 208 1182 q 247 1253 222 1238 q 300 1261 272 1268 q 343 1229 328 1254 q 371 1185 356 1207 q 399 1149 386 1164 q 442 1190 418 1165 q 490 1243 467 1215 q 515 1261 501 1256 q 543 1267 528 1267 z "},"ř":{"ha":829,"x_min":50,"x_max":821,"o":"m 161 -4 q 99 25 124 -1 q 75 89 74 51 q 72 437 78 263 q 57 785 65 611 q 55 829 56 807 q 53 874 54 851 q 76 938 50 911 q 139 968 101 965 q 203 945 176 971 q 233 882 231 919 q 235 850 235 867 q 236 818 235 833 q 314 911 268 874 q 549 957 415 993 q 717 843 644 929 q 774 759 753 801 q 808 685 796 717 q 806 615 821 649 q 756 568 790 582 q 686 569 719 554 q 639 621 653 585 q 615 672 629 646 q 584 719 601 697 q 545 759 567 742 q 500 783 524 776 q 455 785 471 790 q 428 772 439 781 q 365 672 394 743 q 318 528 338 603 q 286 378 299 454 q 266 226 274 301 q 254 81 258 151 q 226 20 251 44 q 165 -4 201 -4 l 161 -4 m 593 1267 q 639 1250 618 1267 q 663 1202 661 1231 q 646 1151 665 1174 q 625 1129 644 1150 q 579 1082 606 1108 q 501 1015 531 1033 q 443 996 471 996 q 380 1021 408 996 q 321 1088 351 1046 q 288 1135 301 1114 q 274 1157 275 1156 q 265 1210 258 1182 q 297 1253 272 1238 q 350 1261 322 1268 q 393 1229 378 1254 q 421 1185 406 1207 q 449 1149 436 1164 q 492 1190 468 1165 q 540 1243 517 1215 q 565 1261 551 1256 q 593 1267 578 1267 z "},"Ž":{"ha":747,"x_min":54,"x_max":686,"o":"m 328 -6 q 269 -3 296 -6 q 218 4 242 -1 q 152 24 179 11 q 108 52 125 36 q 81 85 90 68 q 68 119 72 103 q 89 247 54 171 q 116 300 100 271 q 154 364 132 329 q 243 493 194 426 q 340 626 292 560 q 398 705 371 667 q 449 775 425 743 q 452 781 451 778 q 456 786 453 783 q 332 782 413 788 q 269 776 299 779 q 217 771 240 774 q 168 765 190 768 q 101 783 131 760 q 67 842 72 806 q 83 908 61 879 q 143 943 106 938 q 161 946 144 943 q 205 951 178 949 q 267 958 232 954 q 339 964 301 961 q 462 967 411 968 q 547 961 513 967 q 601 945 581 956 q 638 922 622 935 q 676 839 676 890 q 668 794 676 818 q 638 735 660 771 q 579 648 617 700 q 485 519 542 596 q 399 401 442 460 q 321 289 357 342 q 279 222 294 249 q 257 181 264 196 q 315 176 276 178 q 415 179 353 174 q 526 192 479 185 q 575 200 574 200 q 642 185 611 206 q 679 128 672 164 q 665 60 686 92 q 607 22 644 29 q 587 19 606 22 q 538 11 568 15 q 468 3 507 7 q 388 -3 429 -1 q 358 -5 372 -4 q 328 -6 343 -6 m 528 1267 q 574 1250 553 1267 q 598 1202 596 1231 q 581 1151 600 1174 q 560 1129 579 1150 q 514 1082 540 1108 q 435 1015 465 1033 q 378 996 406 996 q 315 1021 343 996 q 256 1088 286 1046 q 223 1135 236 1114 q 208 1157 210 1156 q 200 1210 193 1182 q 232 1253 207 1238 q 285 1261 257 1268 q 328 1229 313 1254 q 356 1185 340 1207 q 383 1149 371 1164 q 427 1190 403 1165 q 475 1243 451 1215 q 499 1261 486 1256 q 528 1267 513 1267 z "},"Š":{"ha":725,"x_min":54,"x_max":671,"o":"m 346 -1 q 276 4 310 -1 q 210 21 242 10 q 121 69 157 38 q 63 169 74 111 q 76 237 56 206 q 135 275 97 268 q 201 262 171 282 q 239 207 231 242 q 259 194 243 203 q 307 182 275 186 q 372 181 339 178 q 432 194 406 183 q 477 230 469 210 q 482 269 485 250 q 470 306 479 290 q 443 333 461 321 q 397 358 425 346 q 331 383 369 369 q 245 416 288 399 q 165 463 203 433 q 60 664 68 535 q 90 813 54 743 q 185 913 125 874 q 363 971 260 963 q 457 965 411 974 q 542 936 503 956 q 633 856 600 906 q 668 743 665 806 q 645 678 671 706 q 582 649 619 651 q 517 673 544 647 q 489 736 490 699 q 484 753 488 743 q 460 775 481 764 q 419 788 442 785 q 372 790 396 792 q 324 781 347 788 q 283 761 301 774 q 244 717 251 740 q 239 676 238 693 q 248 637 240 653 q 273 607 256 621 q 319 581 290 593 q 390 553 347 568 q 472 522 431 539 q 550 479 514 506 q 661 292 646 410 q 650 175 669 231 q 590 85 631 122 q 414 4 525 21 q 380 0 397 1 q 346 -1 363 -1 m 525 1267 q 571 1250 550 1267 q 595 1202 593 1231 q 578 1151 597 1174 q 557 1129 576 1150 q 511 1082 538 1108 q 433 1015 463 1033 q 375 996 403 996 q 312 1021 340 996 q 253 1088 283 1046 q 220 1135 233 1114 q 206 1157 207 1156 q 197 1210 190 1182 q 229 1253 204 1238 q 282 1261 254 1268 q 325 1229 310 1254 q 353 1185 338 1207 q 381 1149 368 1164 q 424 1190 400 1165 q 472 1243 449 1215 q 497 1261 483 1256 q 525 1267 510 1267 z "},"š":{"ha":815,"x_min":39,"x_max":776,"o":"m 404 0 q 263 19 332 0 q 133 81 186 40 q 54 176 79 121 q 52 246 39 211 q 100 296 65 281 q 169 298 135 311 q 219 250 204 285 q 253 217 228 232 q 316 192 279 201 q 396 181 353 182 q 482 189 439 179 q 506 195 490 190 q 538 208 522 200 q 565 228 554 217 q 576 257 576 240 q 573 271 576 261 q 546 296 569 281 q 485 328 521 313 q 408 358 449 343 q 299 404 353 381 q 197 464 244 428 q 78 704 74 557 q 171 900 85 828 q 353 971 244 960 q 477 967 414 978 q 599 933 540 957 q 711 861 668 904 q 767 765 754 818 q 756 697 776 729 q 700 656 736 665 q 633 667 664 647 q 592 722 601 686 q 572 743 589 729 q 518 771 554 757 q 437 791 479 786 q 358 789 394 796 q 302 772 322 783 q 272 747 282 760 q 260 719 263 733 q 258 697 258 706 q 268 649 257 669 q 306 608 279 628 q 383 565 338 585 q 474 526 428 546 q 565 490 519 508 q 647 444 610 471 q 757 261 754 372 q 681 89 760 158 q 522 14 618 35 q 465 3 494 7 q 404 0 435 0 m 544 1267 q 590 1250 569 1267 q 615 1202 613 1231 q 597 1151 617 1174 q 576 1129 596 1150 q 531 1082 557 1108 q 452 1015 482 1033 q 394 996 422 996 q 331 1021 360 996 q 272 1088 303 1046 q 240 1135 253 1114 q 225 1157 226 1156 q 217 1210 210 1182 q 249 1253 224 1238 q 301 1261 274 1268 q 344 1229 329 1254 q 372 1185 357 1207 q 400 1149 388 1164 q 444 1190 419 1165 q 492 1243 468 1215 q 516 1261 503 1256 q 544 1267 529 1267 z "},"Ŝ":{"ha":725,"x_min":54,"x_max":671,"o":"m 346 -1 q 276 4 310 -1 q 210 21 242 10 q 121 69 157 38 q 63 169 74 111 q 76 237 56 206 q 135 275 97 268 q 201 262 171 282 q 239 207 231 242 q 259 194 243 203 q 307 182 275 186 q 372 181 339 178 q 432 194 406 183 q 477 230 469 210 q 482 269 485 250 q 470 306 479 290 q 443 333 461 321 q 397 358 425 346 q 331 383 369 369 q 245 416 288 399 q 165 463 203 433 q 60 664 68 535 q 90 813 54 743 q 185 913 125 874 q 363 971 260 963 q 457 965 411 974 q 542 936 503 956 q 633 856 600 906 q 668 743 665 806 q 645 678 671 706 q 582 649 619 651 q 517 673 544 647 q 489 736 490 699 q 484 753 488 743 q 460 775 481 764 q 419 788 442 785 q 372 790 396 792 q 324 781 347 788 q 283 761 301 774 q 244 717 251 740 q 239 676 238 693 q 248 637 240 653 q 273 607 256 621 q 319 581 290 593 q 390 553 347 568 q 472 522 431 539 q 550 479 514 506 q 661 292 646 410 q 650 175 669 231 q 590 85 631 122 q 414 4 525 21 q 380 0 397 1 q 346 -1 363 -1 m 500 988 q 472 993 485 988 q 447 1011 458 999 q 399 1064 424 1039 q 356 1106 375 1089 q 328 1069 343 1090 q 300 1025 313 1047 q 257 993 285 1000 q 204 1001 229 986 q 172 1044 179 1017 q 181 1097 165 1072 q 195 1119 182 1099 q 228 1167 208 1140 q 287 1233 258 1208 q 350 1258 315 1258 q 408 1240 378 1258 q 486 1172 438 1221 q 532 1125 513 1146 q 553 1103 551 1104 q 570 1052 572 1081 q 546 1004 568 1024 q 500 988 525 988 z "},"ŝ":{"ha":815,"x_min":39,"x_max":776,"o":"m 404 0 q 263 19 332 0 q 133 81 186 40 q 54 176 79 121 q 52 246 39 211 q 100 296 65 281 q 169 298 135 311 q 219 250 204 285 q 253 217 228 232 q 316 192 279 201 q 396 181 353 182 q 482 189 439 179 q 506 195 490 190 q 538 208 522 200 q 565 228 554 217 q 576 257 576 240 q 573 271 576 261 q 546 296 569 281 q 485 328 521 313 q 408 358 449 343 q 299 404 353 381 q 197 464 244 428 q 78 704 74 557 q 171 900 85 828 q 353 971 244 960 q 477 967 414 978 q 599 933 540 957 q 711 861 668 904 q 767 765 754 818 q 756 697 776 729 q 700 656 736 665 q 633 667 664 647 q 592 722 601 686 q 572 743 589 729 q 518 771 554 757 q 437 791 479 786 q 358 789 394 796 q 302 772 322 783 q 272 747 282 760 q 260 719 263 733 q 258 697 258 706 q 268 649 257 669 q 306 608 279 628 q 383 565 338 585 q 474 526 428 546 q 565 490 519 508 q 647 444 610 471 q 757 261 754 372 q 681 89 760 158 q 522 14 618 35 q 465 3 494 7 q 404 0 435 0 m 553 988 q 524 993 538 988 q 500 1011 511 999 q 452 1064 476 1039 q 408 1106 428 1089 q 381 1069 396 1090 q 353 1025 365 1047 q 310 993 338 1000 q 257 1001 282 986 q 225 1044 232 1017 q 233 1097 218 1072 q 248 1119 235 1099 q 281 1167 261 1140 q 340 1233 311 1208 q 403 1258 368 1258 q 460 1240 431 1258 q 539 1172 490 1221 q 585 1125 565 1146 q 606 1103 604 1104 q 623 1052 625 1081 q 599 1004 621 1024 q 553 988 578 988 z "},"v":{"ha":742,"x_min":35,"x_max":711,"o":"m 349 -3 l 340 -3 q 228 76 274 1 q 181 185 204 114 q 144 308 161 238 q 107 468 126 379 q 80 613 92 542 q 60 738 68 683 q 46 828 51 793 q 40 867 40 864 q 58 933 35 904 q 118 968 81 963 q 185 951 156 974 q 219 890 214 928 q 224 861 219 890 q 235 785 228 832 q 252 676 242 738 q 275 549 263 614 q 305 409 290 472 q 333 296 319 346 q 343 265 339 279 q 351 240 347 251 q 362 266 357 251 q 374 297 367 281 q 410 411 392 347 q 449 553 429 475 q 480 681 465 619 q 505 790 494 742 q 521 867 515 838 q 526 896 526 896 q 565 953 533 932 q 632 967 596 974 q 690 928 669 960 q 704 861 711 897 q 697 822 704 858 q 676 730 689 786 q 647 603 664 674 q 610 457 631 532 q 519 174 564 276 q 464 67 489 101 q 403 10 433 24 q 349 -3 372 -3 z "},"w":{"ha":1038,"x_min":46,"x_max":992,"o":"m 272 -1 q 244 3 257 -1 q 186 43 206 14 q 157 97 167 72 q 126 204 142 136 q 105 326 115 257 q 85 483 94 396 q 69 627 76 557 q 58 752 63 697 q 51 841 53 807 q 49 875 49 875 q 71 940 46 913 q 132 971 96 968 q 198 949 169 974 q 229 886 226 924 q 231 857 229 886 q 237 781 233 828 q 246 672 240 733 q 258 546 251 611 q 272 427 265 479 q 286 335 279 375 q 340 544 310 417 q 367 670 354 610 q 390 778 381 731 q 405 853 399 825 q 411 882 411 882 q 444 936 418 915 q 503 956 469 957 q 562 931 538 954 q 589 874 586 908 q 592 845 589 874 q 601 770 594 817 q 616 664 607 724 q 636 540 625 604 q 683 330 660 404 q 721 219 706 256 q 734 265 726 238 q 750 332 742 293 q 767 423 758 371 q 783 543 775 475 q 797 667 792 607 q 804 774 801 728 q 808 848 807 819 q 810 876 810 876 q 840 940 813 914 q 904 964 867 965 q 966 934 940 961 q 990 869 992 907 q 989 831 990 867 q 983 740 988 796 q 972 615 979 685 q 956 469 965 544 q 899 185 933 292 q 847 72 875 113 q 782 14 815 28 q 724 0 749 0 q 666 13 700 0 q 600 68 632 25 q 542 179 568 111 q 485 379 513 258 q 436 207 460 279 q 384 77 408 119 q 329 15 360 35 q 272 -1 301 -1 z "},"x":{"ha":753,"x_min":44,"x_max":707,"o":"m 643 956 q 692 908 678 942 q 693 839 707 874 q 598 628 647 725 q 496 444 549 532 q 575 293 533 369 q 665 133 617 217 q 674 65 685 101 q 632 10 664 29 q 588 -3 611 -3 q 542 9 564 -3 q 508 43 521 21 q 443 159 475 103 q 382 271 411 215 q 303 158 343 213 q 222 49 264 104 l 213 35 q 140 -3 183 -3 q 86 15 113 -3 q 50 74 56 38 q 67 142 44 111 l 78 156 q 185 303 132 231 q 289 454 238 375 q 115 847 190 651 q 116 916 101 882 q 167 964 131 950 q 235 963 201 978 q 283 913 269 949 q 339 777 310 844 q 400 640 368 710 q 465 767 433 701 q 525 906 496 832 q 574 956 540 942 q 643 956 608 971 z "},"y":{"ha":736,"x_min":33,"x_max":715,"o":"m 646 956 q 699 912 682 944 q 704 843 715 879 q 627 588 660 704 q 567 367 594 471 q 520 194 543 278 q 471 30 497 111 q 413 -133 444 -51 q 342 -300 382 -215 q 308 -337 331 -324 q 261 -351 286 -351 q 222 -343 240 -351 q 176 -292 188 -328 q 179 -222 164 -257 q 227 -115 206 -168 q 268 -8 249 -61 q 267 -4 267 -7 q 201 214 226 108 q 151 428 175 319 q 106 623 131 519 q 44 853 81 726 q 51 921 33 889 q 106 964 69 953 q 174 956 142 974 q 218 903 207 938 q 280 667 254 774 q 326 468 306 561 q 345 387 336 426 q 364 307 354 347 q 378 359 371 333 q 393 413 386 385 q 454 637 421 518 q 532 897 488 756 q 576 950 543 933 q 646 956 610 967 z "},"z":{"ha":722,"x_min":56,"x_max":675,"o":"m 300 0 q 256 0 276 0 q 219 3 236 0 q 181 7 197 4 q 150 13 164 10 q 67 75 89 29 q 57 110 58 93 q 58 143 56 128 q 67 171 61 158 q 76 192 72 183 q 94 227 83 207 q 122 272 106 247 q 185 369 150 317 q 261 481 221 422 q 340 597 301 539 q 411 704 379 654 q 461 788 442 754 q 409 792 440 790 q 331 790 378 793 q 274 786 301 788 q 226 782 247 785 q 182 778 201 779 q 115 795 144 772 q 81 856 86 818 q 99 922 75 892 q 158 957 122 951 q 177 959 160 957 q 222 963 194 961 q 286 968 250 965 q 360 971 322 971 q 513 963 454 974 q 586 940 558 957 q 636 902 621 924 q 657 863 651 881 q 660 800 668 831 q 639 742 651 769 q 615 693 629 719 q 581 635 600 667 q 500 511 544 576 q 410 379 456 446 q 346 285 376 331 q 290 203 315 240 q 283 191 288 196 q 276 181 279 186 q 331 180 300 179 q 401 183 361 181 q 466 187 435 185 q 520 191 497 189 q 558 194 543 193 q 572 196 572 196 q 638 175 610 199 q 671 114 667 151 q 651 49 675 78 q 590 15 628 19 q 570 14 589 15 q 522 10 551 13 q 456 6 493 8 q 378 1 418 3 q 338 0 357 0 q 300 0 318 0 z "},"ÿ":{"ha":736,"x_min":33,"x_max":715,"o":"m 646 956 q 699 912 682 944 q 704 843 715 879 q 627 588 660 704 q 567 367 594 471 q 520 194 543 278 q 471 30 497 111 q 413 -133 444 -51 q 342 -300 382 -215 q 308 -337 331 -324 q 261 -351 286 -351 q 222 -343 240 -351 q 176 -292 188 -328 q 179 -222 164 -257 q 227 -115 206 -168 q 268 -8 249 -61 q 267 -4 267 -7 q 201 214 226 108 q 151 428 175 319 q 106 623 131 519 q 44 853 81 726 q 51 921 33 889 q 106 964 69 953 q 174 956 142 974 q 218 903 207 938 q 280 667 254 774 q 326 468 306 561 q 345 387 336 426 q 364 307 354 347 q 378 359 371 333 q 393 413 386 385 q 454 637 421 518 q 532 897 488 756 q 576 950 543 933 q 646 956 610 967 m 338 1117 q 350 1088 350 1104 q 338 1060 350 1069 q 322 1049 331 1053 q 293 1043 311 1043 q 265 1049 275 1043 q 249 1060 256 1053 q 238 1088 238 1069 q 249 1117 238 1106 q 265 1128 256 1124 q 278 1131 271 1131 q 293 1132 286 1132 q 308 1131 301 1132 q 322 1128 315 1131 q 338 1117 331 1124 m 500 1119 q 513 1090 513 1107 q 500 1063 513 1072 q 485 1051 493 1056 q 456 1046 474 1046 q 428 1051 438 1046 q 411 1063 418 1056 q 400 1090 400 1072 q 411 1119 400 1108 q 428 1131 418 1126 q 441 1134 433 1133 q 456 1135 449 1135 q 471 1134 464 1135 q 485 1131 478 1133 q 500 1119 493 1126 z "},"ý":{"ha":736,"x_min":33,"x_max":715,"o":"m 646 956 q 699 912 682 944 q 704 843 715 879 q 627 588 660 704 q 567 367 594 471 q 520 194 543 278 q 471 30 497 111 q 413 -133 444 -51 q 342 -300 382 -215 q 308 -337 331 -324 q 261 -351 286 -351 q 222 -343 240 -351 q 176 -292 188 -328 q 179 -222 164 -257 q 227 -115 206 -168 q 268 -8 249 -61 q 267 -4 267 -7 q 201 214 226 108 q 151 428 175 319 q 106 623 131 519 q 44 853 81 726 q 51 921 33 889 q 106 964 69 953 q 174 956 142 974 q 218 903 207 938 q 280 667 254 774 q 326 468 306 561 q 345 387 336 426 q 364 307 354 347 q 378 359 371 333 q 393 413 386 385 q 454 637 421 518 q 532 897 488 756 q 576 950 543 933 q 646 956 610 967 m 313 971 q 285 976 299 971 q 263 992 272 981 q 243 1041 243 1013 q 264 1089 243 1069 q 287 1114 275 1100 q 313 1143 299 1128 q 348 1184 329 1163 q 390 1228 367 1206 q 440 1247 411 1247 q 489 1226 468 1247 q 508 1177 508 1206 q 486 1129 507 1149 q 450 1091 467 1110 q 418 1053 433 1072 q 389 1020 403 1036 q 360 989 375 1004 q 338 975 350 979 q 313 971 325 971 z "},"ĳ":{"ha":738,"x_min":31,"x_max":708,"o":"m 265 610 q 277 443 279 526 q 271 283 275 360 q 267 182 268 231 q 271 101 265 133 q 254 34 276 64 q 194 -1 232 4 q 181 -3 190 -3 q 123 19 149 -3 q 92 74 97 40 q 86 176 85 121 q 92 293 88 232 q 96 437 94 363 q 86 581 97 511 q 103 647 81 617 q 161 685 125 678 q 228 668 197 690 q 265 610 258 646 m 288 929 q 317 857 317 896 q 288 783 317 817 q 247 756 269 765 q 174 742 215 742 q 135 745 154 742 q 100 756 115 749 q 78 768 88 761 q 60 783 68 775 q 31 857 31 814 q 60 929 31 897 q 78 944 68 938 q 100 957 88 951 q 135 967 115 964 q 174 971 154 971 q 247 957 215 971 q 288 929 269 946 m 647 603 q 651 562 650 583 q 656 517 653 540 q 669 306 664 417 q 658 82 675 194 q 586 -144 638 -44 q 419 -335 526 -258 q 367 -351 394 -351 q 326 -342 346 -351 q 293 -314 307 -333 q 277 -247 271 -283 q 314 -187 283 -210 q 431 -51 393 -132 q 482 122 469 29 q 489 313 494 215 q 475 501 483 411 q 471 547 472 525 q 468 590 469 568 q 490 655 465 626 q 551 686 514 683 q 617 665 589 689 q 647 603 644 640 m 672 935 q 708 856 708 903 q 672 775 708 808 q 653 762 664 768 q 631 750 642 756 q 554 738 597 738 q 479 750 513 738 q 438 775 454 760 q 401 856 401 808 q 438 935 401 903 q 479 960 454 949 q 554 972 513 972 q 631 960 597 972 q 653 948 642 954 q 672 935 664 942 z "},"ŵ":{"ha":1038,"x_min":46,"x_max":992,"o":"m 272 -1 q 244 3 257 -1 q 186 43 206 14 q 157 97 167 72 q 126 204 142 136 q 105 326 115 257 q 85 483 94 396 q 69 627 76 557 q 58 752 63 697 q 51 841 53 807 q 49 875 49 875 q 71 940 46 913 q 132 971 96 968 q 198 949 169 974 q 229 886 226 924 q 231 857 229 886 q 237 781 233 828 q 246 672 240 733 q 258 546 251 611 q 272 427 265 479 q 286 335 279 375 q 340 544 310 417 q 367 670 354 610 q 390 778 381 731 q 405 853 399 825 q 411 882 411 882 q 444 936 418 915 q 503 956 469 957 q 562 931 538 954 q 589 874 586 908 q 592 845 589 874 q 601 770 594 817 q 616 664 607 724 q 636 540 625 604 q 683 330 660 404 q 721 219 706 256 q 734 265 726 238 q 750 332 742 293 q 767 423 758 371 q 783 543 775 475 q 797 667 792 607 q 804 774 801 728 q 808 848 807 819 q 810 876 810 876 q 840 940 813 914 q 904 964 867 965 q 966 934 940 961 q 990 869 992 907 q 989 831 990 867 q 983 740 988 796 q 972 615 979 685 q 956 469 965 544 q 899 185 933 292 q 847 72 875 113 q 782 14 815 28 q 724 0 749 0 q 666 13 700 0 q 600 68 632 25 q 542 179 568 111 q 485 379 513 258 q 436 207 460 279 q 384 77 408 119 q 329 15 360 35 q 272 -1 301 -1 m 632 985 q 603 990 617 985 q 579 1008 590 996 q 531 1061 556 1036 q 488 1103 507 1086 q 460 1066 475 1088 q 432 1022 444 1044 q 389 990 417 997 q 336 999 361 983 q 304 1042 311 1014 q 313 1094 297 1069 q 327 1117 314 1096 q 360 1164 340 1138 q 419 1231 390 1206 q 482 1256 447 1256 q 540 1237 510 1256 q 618 1169 569 1218 q 664 1122 644 1143 q 685 1100 683 1101 q 702 1049 704 1078 q 678 1001 700 1021 q 632 985 657 985 z "},"ŷ":{"ha":736,"x_min":33,"x_max":715,"o":"m 646 956 q 699 912 682 944 q 704 843 715 879 q 627 588 660 704 q 567 367 594 471 q 520 194 543 278 q 471 30 497 111 q 413 -133 444 -51 q 342 -300 382 -215 q 308 -337 331 -324 q 261 -351 286 -351 q 222 -343 240 -351 q 176 -292 188 -328 q 179 -222 164 -257 q 227 -115 206 -168 q 268 -8 249 -61 q 267 -4 267 -7 q 201 214 226 108 q 151 428 175 319 q 106 623 131 519 q 44 853 81 726 q 51 921 33 889 q 106 964 69 953 q 174 956 142 974 q 218 903 207 938 q 280 667 254 774 q 326 468 306 561 q 345 387 336 426 q 364 307 354 347 q 378 359 371 333 q 393 413 386 385 q 454 637 421 518 q 532 897 488 756 q 576 950 543 933 q 646 956 610 967 m 508 985 q 480 990 493 985 q 456 1008 467 996 q 408 1061 432 1036 q 364 1103 383 1086 q 336 1066 351 1088 q 308 1022 321 1044 q 265 990 293 997 q 213 999 238 983 q 181 1042 188 1014 q 189 1094 174 1069 q 203 1117 190 1096 q 236 1164 217 1138 q 295 1231 267 1206 q 358 1256 324 1256 q 416 1237 386 1256 q 494 1169 446 1218 q 540 1122 521 1143 q 561 1100 560 1101 q 578 1049 581 1078 q 554 1001 576 1021 q 508 985 533 985 z "}}}
